<svg width="430" height="83" viewBox="0 0 430 83" fill="none" xmlns="http://www.w3.org/2000/svg">
<g clip-path="url(#clip0_36_476)">
<path d="M26.5879 31.4956C20.8389 23.1619 12.768 21.5662 9.45116 21.8101L6.00928 73.8578H454.837V23.1293C428.076 4.62553 414.319 17.2883 410.786 25.9326C386.099 12.6623 367.677 27.1008 361.553 35.9789C341.388 24.7987 333.677 40.6373 332.342 49.9541C320.093 43.0043 302.73 51.5864 297.548 56.2097C268.762 76.4381 177.239 68.2443 131.988 48.6748C122.258 42.0957 111.35 46.7863 107.112 49.9541C97.9722 35.0414 84.2629 37.2832 78.5507 40.2681C57.7656 14.6827 35.2484 23.7592 26.5879 31.4956Z" fill="white" stroke="black" stroke-width="0.582599"/>
<path d="M20.6436 37.6392L20.9027 38.2709L21.5498 38.053C25.9794 36.5609 33.1685 35.6489 40.2687 37.7736C47.3307 39.8869 54.3512 45.0152 58.5143 55.7043L58.8843 56.6541L59.6629 55.9963C62.3572 53.7201 66.9162 51.188 71.8123 50.9379C76.6368 50.6914 81.8896 52.6516 86.1181 59.5508L86.5188 60.2046L87.1511 59.7707C91.8626 56.5372 105.259 51.5764 120.599 58.1185L121.016 58.2964L121.36 58.0003C126.102 53.9155 134.642 48.9938 144.781 47.5601C154.889 46.1308 166.603 48.1631 177.791 57.9956L178.435 58.5607L178.889 57.8354C182.851 51.515 190.433 43.3801 200.261 39.4891C210.028 35.6225 222.089 35.9116 235.201 46.5369L235.507 46.785L235.883 46.6644C242.518 44.5314 252.675 42.6379 261.587 43.8449C266.038 44.4476 270.128 45.8167 273.318 48.2675C276.491 50.7056 278.817 54.2473 279.705 59.2963L280.131 61.7207L281.092 59.4546C282.372 56.4381 285.23 53.0599 289.614 52.4747C293.995 51.8901 300.207 54.0503 308.294 62.8202L308.769 63.336L309.302 62.8799C313.168 59.5735 320.313 55.7268 329.109 55.0254C337.875 54.3262 348.322 56.7474 358.848 66.0291L359.295 66.4232L359.77 66.063C361.096 65.0569 363.458 63.68 366.174 62.8663C368.895 62.0514 371.881 61.8268 374.531 62.9931L375.35 63.3533L375.537 62.4787C376.708 56.9964 380.104 49.1882 386.446 43.6128C392.75 38.0712 402.017 34.6844 415.101 38.068L415.793 38.2472L415.985 37.5576C417.771 31.1184 422.455 21.6178 430.679 14.136C438.77 6.77596 450.293 1.36051 465.917 2.73284V84.2697L-35.9163 86.5585V1.5189C-22.6944 -0.980268 6.32714 2.7424 20.6436 37.6392Z" fill="#FCCB06" stroke="black" stroke-width="1.4565"/>
</g>
<defs>
<clipPath id="clip0_36_476">
<rect width="503.365" height="82.4377" fill="white" transform="translate(-36.6826 0.0517578)"/>
</clipPath>
</defs>
</svg>
