<svg width="262" height="110" viewBox="0 0 262 110" fill="none" xmlns="http://www.w3.org/2000/svg">
<g filter="url(#filter0_d_36_441)">
<rect x="0.533691" y="29.4159" width="253.924" height="78.8469" rx="9.93346" transform="rotate(-6.53223 0.533691 29.4159)" fill="#F4EBCE"/>
<rect x="2.59601" y="31.0544" width="250.199" height="75.1218" rx="8.07094" transform="rotate(-6.53223 2.59601 31.0544)" stroke="black" stroke-width="3.72505"/>
</g>
<path d="M62.2421 49.0921L70.384 48.7652C70.8256 48.7506 71.1826 49.0287 71.3163 49.4554C72.4845 53.341 77.8355 71.7414 77.949 72.6544C78.0181 73.2101 73.7948 74.9041 72.4203 75.1959C72.068 75.28 71.6811 75.0862 71.5176 74.7438C70.5813 72.7239 69.1165 67.1016 69.1165 67.1016L67.0524 67.3582C66.6951 67.4027 66.4915 67.7101 66.4913 68.0326C66.4913 68.0326 66.331 70.3098 66.3454 71.0739C66.3299 71.9222 66.482 74.4427 66.482 74.4427C66.482 74.4427 59.8927 75.2619 59.1587 74.8695C58.4067 71.7383 60.1698 54.1464 61.294 49.8953C61.3985 49.4389 61.7609 49.1117 62.2421 49.0921ZM66.4447 63.4433L67.7943 63.2755C68.0325 63.2459 68.1666 63.0277 68.0973 62.7945L66.3351 56.7255L66.0828 63.1255C66.0677 63.3289 66.2463 63.468 66.4447 63.4433ZM95.0943 52.344C95.6223 56.5913 92.1968 59.8387 90.8171 60.4133C90.8171 60.4133 96.3984 60.8884 96.9708 65.4929C97.711 71.4471 91.1844 75.0398 88.3264 75.3951C87.3737 75.5135 84.915 72.2721 84.915 72.2721C84.915 72.2721 81.4215 73.3513 80.6182 72.7256C79.8545 72.095 78.6591 56.9669 78.6591 56.9669C78.6591 56.9669 77.7658 57.2392 77.7214 56.882C77.677 56.5247 75.92 50.173 76.4066 49.5482C76.8535 48.9283 79.5733 47.4615 84.813 46.8101C90.013 46.1637 94.6403 48.6921 95.0943 52.344ZM84.8237 53.0565C84.4414 53.5475 85.1176 58.6631 85.5146 58.6138C86.7848 58.4558 88.0664 56.1199 87.8641 54.4924C87.6075 52.4283 85.2061 52.5656 84.8237 53.0565ZM86.1108 64.7067C85.8675 65.0191 86.3466 68.2245 86.7436 68.1752C87.8947 68.0321 89.007 66.6039 88.8787 65.5719C88.7603 64.6192 86.3889 64.3497 86.1108 64.7067ZM104.585 43.1428C106.689 42.8813 111.387 44.0305 111.916 45.6979C112.005 46.4124 112.005 47.0574 111.994 47.623C112.595 47.5886 113.096 47.7279 113.373 48.0158C114.201 49.1625 114.706 50.3089 115.116 53.6035C116.399 63.9241 114.043 69.9407 109.28 70.5329C104.477 71.13 98.6376 70.8482 97.2164 59.4162C95.8001 48.0239 97.7576 43.9916 104.585 43.1428ZM108.441 56.6503C108.234 54.9832 108.021 53.5988 107.799 52.4575C107.392 52.4275 107.05 52.2685 106.881 51.8863C107.359 49.8922 106.174 48.4675 105.698 48.5267C104.745 48.6451 104.054 50.8674 104.829 57.0994C105.604 63.3314 106.043 66.2192 107.829 65.9972C109.497 65.7899 109.142 62.2869 108.441 56.6503ZM128.593 67.2853C128.549 66.9281 128.416 65.2114 128.219 62.9786C127.334 66.5552 125.725 69.1737 123.422 69.4599C120.048 69.8794 117.519 67.6947 116.829 62.1375C116.621 60.4703 114.88 45.8132 115.451 44.8957C116.732 43.2047 123.256 43.1595 123.335 43.7946C123.419 44.4694 123.612 60.6089 125.676 60.3523C127.74 60.0957 126.221 45.9349 126.221 45.9349L126.266 45.9696C126.118 45.1013 125.989 44.3917 125.856 43.965C127.077 42.4426 133.145 41.9704 133.869 42.606C134.32 42.9932 135.515 51.6318 135.982 58.6277C135.977 58.9105 136.393 59.3424 136.616 59.5162C136.983 59.8737 136.722 65.2268 136.478 65.5393C135.669 66.4863 128.653 67.7617 128.593 67.2853ZM152.202 38.5935C153.358 38.4901 153.549 42.2956 152.83 42.3448C152.592 42.3744 151.083 42.5619 149.104 42.8483C149.606 48.1871 150.813 60.8147 151.744 63.4399C150.523 64.9622 144.732 66.3674 144.013 65.7715C143.437 65.3593 141.537 50.722 141.06 43.9692C138.842 44.2852 137.14 44.5371 136.897 44.527C135.955 44.0799 135.376 41.3706 136.041 40.8848C136.741 40.3544 146.541 39.0958 152.202 38.5935ZM177.447 61.2119C177.403 60.8546 177.27 59.1379 177.073 56.9051C176.187 60.4817 174.578 63.1002 172.276 63.3865C168.902 63.8059 166.373 61.6212 165.682 56.064C165.475 54.3968 163.733 39.7397 164.304 38.8222C165.586 37.1313 172.11 37.086 172.189 37.7211C172.273 38.3959 172.465 54.5355 174.529 54.2788C176.594 54.0222 175.075 39.8614 175.075 39.8614L175.12 39.8962C174.971 39.0278 174.843 38.3183 174.709 37.8915C175.931 36.3692 181.999 35.8969 182.723 36.5325C183.174 36.9198 184.369 45.5583 184.835 52.5542C184.83 52.837 185.247 53.2689 185.47 53.4427C185.837 53.8002 185.575 59.1534 185.332 59.4658C184.523 60.4129 177.506 61.6882 177.447 61.2119ZM199.108 37.5992C199.211 38.4328 197.925 40.4066 197.607 40.4461C197.25 40.4905 195.66 37.4233 194.31 37.591C193.873 37.6453 193.506 38.2553 193.644 39.3668C194.009 42.3042 200.059 47.1952 200.764 52.8715C201.228 56.6028 199.336 59.8611 195.406 60.3497C189.333 61.1047 187.112 58.4786 186.673 54.9458C186.525 53.755 190.822 52.334 190.891 52.8897C190.965 53.4851 191.097 56.1693 192.884 55.9472C193.638 55.8535 193.629 54.8066 193.579 54.4097C193.125 50.7578 186.272 46.2086 185.586 40.691C185.107 36.8407 187.897 33.6722 191.272 33.2528C195.003 32.7889 198.797 35.0985 199.108 37.5992Z" fill="#181818"/>
<defs>
<filter id="filter0_d_36_441" x="1.59814" y="1.59363" width="260.358" height="107.576" filterUnits="userSpaceOnUse" color-interpolation-filters="sRGB">
<feFlood flood-opacity="0" result="BackgroundImageFix"/>
<feColorMatrix in="SourceAlpha" type="matrix" values="0 0 0 0 0 0 0 0 0 0 0 0 0 0 0 0 0 0 127 0" result="hardAlpha"/>
<feOffset dx="1.24168" dy="2.48337"/>
<feComposite in2="hardAlpha" operator="out"/>
<feColorMatrix type="matrix" values="0 0 0 0 0 0 0 0 0 0 0 0 0 0 0 0 0 0 1 0"/>
<feBlend mode="normal" in2="BackgroundImageFix" result="effect1_dropShadow_36_441"/>
<feBlend mode="normal" in="SourceGraphic" in2="effect1_dropShadow_36_441" result="shape"/>
</filter>
</defs>
</svg>
