<svg width="12" height="14" viewBox="0 0 12 14" fill="none" xmlns="http://www.w3.org/2000/svg">
<path fill-rule="evenodd" clip-rule="evenodd" d="M5.99972 0.0523137C6.62372 0.0523137 7.23252 0.124314 7.81652 0.259514C7.90546 0.27556 7.99022 0.309509 8.06564 0.359302C8.14107 0.409095 8.20559 0.473692 8.2553 0.549175C8.305 0.624658 8.33885 0.709453 8.3548 0.798414C8.37074 0.887376 8.36844 0.978649 8.34805 1.0667C8.32765 1.15474 8.28957 1.23773 8.23614 1.31061C8.1827 1.3835 8.11501 1.44477 8.03717 1.49071C7.95934 1.53664 7.87298 1.56629 7.78335 1.57784C7.69371 1.58939 7.60266 1.58261 7.51572 1.55791C7.18694 1.48067 6.85256 1.42958 6.51572 1.40511L6.23572 1.38911L6.46292 1.40271C7.42729 1.47611 8.35937 1.78277 9.17892 2.29631L9.36052 2.41471L9.76452 2.01071C9.88357 1.88715 10.0457 1.81427 10.2171 1.80725C10.3886 1.80022 10.5561 1.85959 10.6849 1.97299C10.8136 2.08639 10.8937 2.24508 10.9084 2.41603C10.9231 2.58698 10.8712 2.75701 10.7637 2.89071L10.7077 2.95311L10.3781 3.28351C11.311 4.27946 11.8765 5.56365 11.9813 6.92422C12.0861 8.28479 11.7241 9.64045 10.9548 10.7676C10.1855 11.8947 9.05503 12.7259 7.74982 13.1241C6.44461 13.5222 5.04265 13.4636 3.77524 12.9579C2.50783 12.4521 1.45068 11.5294 0.778196 10.342C0.105714 9.15461 -0.141925 7.77345 0.0761343 6.42639C0.294194 5.07933 0.964923 3.84683 1.97767 2.93224C2.99041 2.01765 4.28467 1.4756 5.64692 1.39551L5.77972 1.38911L5.73972 1.38991C5.39465 1.40431 5.05759 1.44298 4.72852 1.50591L4.48372 1.55791C4.31154 1.59791 4.13053 1.56787 3.9805 1.4744C3.83047 1.38093 3.72371 1.23169 3.68372 1.05951C3.64373 0.887335 3.67377 0.706321 3.76723 0.556292C3.8607 0.406263 4.00994 0.299508 4.18212 0.259514C4.76612 0.123514 5.37572 0.0515137 5.99972 0.0515137M5.99972 4.05151C5.91214 4.05141 5.8254 4.06857 5.74445 4.10201C5.66351 4.13545 5.58995 4.18452 5.52799 4.24641C5.46602 4.30831 5.41686 4.3818 5.38332 4.46271C5.34978 4.54361 5.33252 4.63033 5.33252 4.71791V7.38431C5.33252 7.56116 5.40277 7.73076 5.52782 7.85581C5.65287 7.98086 5.82247 8.05111 5.99932 8.05111C6.17617 8.05111 6.34577 7.98086 6.47082 7.85581C6.59587 7.73076 6.66612 7.56116 6.66612 7.38431V4.71871C6.66591 4.54204 6.59563 4.37266 6.4707 4.24773C6.34577 4.1228 6.17639 4.05173 5.99972 4.05151Z" fill="black"/>
</svg>
