<svg width="366" height="74" viewBox="0 0 366 74" fill="none" xmlns="http://www.w3.org/2000/svg">
<path d="M159.539 70.4641L159.509 70.4586L159.479 70.4538C130.156 65.7767 106.349 43.3007 101.886 17.4211L101.436 14.811L98.9146 15.6208C86.6521 19.5586 73.6398 20.581 60.9126 18.6066L60.9026 18.6051C48.4142 16.7242 36.6421 11.5852 26.7726 3.70606C5.01405 -14.0173 -3.13841 -45.6819 7.60277 -69.8168C17.2525 -91.4887 42.2583 -105.055 65.3887 -101.365L65.3946 -101.364C67.436 -101.044 69.4525 -100.582 71.4297 -99.9818L73.9555 -99.2147L74.3713 -101.822C74.5013 -102.637 74.6027 -103.237 74.7595 -103.713L74.8976 -104.133L74.8707 -104.573C74.6509 -108.167 74.8547 -111.774 75.4777 -115.32C81.1415 -146.95 118.953 -167.351 162.816 -160.355L164.881 -160.026C189.259 -155.677 210.216 -143.372 222.565 -126.82L224.372 -124.397L226.227 -126.784C234.068 -136.877 248.089 -141.636 264.325 -139.05C274.499 -137.311 284.14 -133.266 292.509 -127.225L292.515 -127.221L292.522 -127.216C312.459 -113.04 322.258 -90.9739 317.849 -73.6837L317.344 -71.704L319.25 -70.9679C325.391 -68.5961 331.181 -65.3986 336.458 -61.4636L336.596 -61.361L336.747 -61.28C340.408 -59.3191 343.539 -56.4992 345.869 -53.0623L345.974 -52.9086L346.101 -52.7737C352.428 -46.0754 357.196 -38.0613 360.063 -29.3051C362.93 -20.5526 363.826 -11.2749 362.689 -2.13578C357.999 32.9786 323.118 57.7229 284.608 52.5896L282.642 52.276L282.63 52.274C269.107 50.1934 256.435 44.3779 246.04 35.483L244.315 34.0072L242.815 35.7114C222.155 59.1906 194.249 72.3623 167.502 71.4454C164.83 71.2828 162.17 70.9551 159.539 70.4641Z" fill="white" stroke="black" stroke-width="4.60318"/>
</svg>
