<svg width="233" height="40" viewBox="0 0 233 40" fill="none" xmlns="http://www.w3.org/2000/svg">
<path d="M39.8456 20.0316V19.9543C39.807 9.02604 31.0042 0.107422 20.2304 0.107422C9.45661 0.107422 0.615234 9.02604 0.615234 20.0316C0.615234 31.0385 9.41661 39.9391 20.2304 39.9391C25.1925 39.9425 29.9649 38.0326 33.5545 34.6067C33.9081 34.2837 34.1189 33.8335 34.1405 33.3551C34.1621 32.8767 33.9927 32.4093 33.6697 32.0557C33.3467 31.7021 32.8965 31.4914 32.4181 31.4698C31.9396 31.4482 31.4722 31.6175 31.1187 31.9405L31.0801 31.9791C29.5312 33.4516 27.7008 34.5958 25.6987 35.3433C23.6966 36.0907 21.5641 36.4258 19.4292 36.3285C17.2944 36.2313 15.2012 35.7036 13.2753 34.7773C11.3495 33.8509 9.63069 32.5449 8.22213 30.9378L16.6014 17.5005V23.7185C16.6014 26.6895 17.7601 27.6564 18.7339 27.9267C19.7076 28.1971 21.1683 28.0012 22.7504 25.4922L27.3476 18.0274C27.4704 17.8095 27.6125 17.6026 27.7697 17.4081V21.1943C27.7697 23.9736 28.8897 26.2136 30.8194 27.2936C31.7101 27.7786 32.7156 28.0133 33.7291 27.9728C34.7425 27.9322 35.7261 27.6179 36.5752 27.0633C38.8042 25.6164 40.0014 23.0826 39.8456 20.0316ZM34.7477 23.9419C34.4381 24.1551 34.0772 24.2818 33.7023 24.3087C33.3274 24.3356 32.9521 24.2618 32.6152 24.095C31.8428 23.6329 31.378 22.5916 31.378 21.1626V16.786C31.378 14.7033 30.567 13.1957 29.178 12.8123C26.8208 12.1005 25.047 15.0122 24.389 16.0936L20.2304 22.7722V14.5488C20.1918 12.6578 19.5725 11.5378 18.4139 11.1888C17.6414 10.9585 16.4828 11.0757 15.3642 12.775L6.05799 27.6785C4.81996 25.3194 4.17115 22.6958 4.16696 20.0316C4.16696 11.0343 11.3863 3.73639 20.2304 3.73639C29.0745 3.73639 36.2939 11.0343 36.2939 20.0316V20.1102C36.3863 21.8454 35.829 23.2385 34.749 23.9309L34.7477 23.9419ZM67.1849 13.2357C67.4407 13.3996 67.6545 13.6213 67.8091 13.8829C67.9636 14.1445 68.0545 14.4387 68.0745 14.7419C68.0719 15.1851 67.8972 15.61 67.5874 15.927C67.2777 16.244 66.8569 16.4284 66.4139 16.4412C66.2037 16.4252 65.996 16.3859 65.7945 16.324C64.7128 15.5125 63.4005 15.067 62.0483 15.0522C58.767 15.0522 56.5283 17.7143 56.5283 21.0343C56.5283 24.3543 58.807 26.9819 62.0483 26.9819C63.6064 26.9797 65.1022 26.3701 66.218 25.2826C66.5021 25.0826 66.8387 24.975 67.1849 24.9736C67.462 24.9705 67.735 25.0411 67.9758 25.1782C68.2167 25.3152 68.4168 25.5138 68.5558 25.7536C68.6947 25.9934 68.7674 26.2658 68.7664 26.543C68.7655 26.8201 68.6909 27.092 68.5504 27.3309C68.4166 27.5654 68.2263 27.7654 67.9959 27.9102C66.8654 28.8501 65.5255 29.5044 64.0891 29.8179C62.6527 30.1313 61.1619 30.0948 59.7426 29.7112C58.3233 29.3277 57.0171 28.6085 55.9341 27.6142C54.851 26.6199 54.023 25.3798 53.5198 23.9984C53.0166 22.617 52.853 21.1348 53.0428 19.6769C53.2326 18.219 53.7702 16.8281 54.6103 15.6215C55.4504 14.415 56.5683 13.4282 57.8698 12.7443C59.1713 12.0605 60.6181 11.6996 62.0883 11.6923C63.9063 11.6647 65.6883 12.2026 67.1849 13.2357ZM76.3739 17.0854C74.6416 17.078 72.9771 17.7577 71.7451 18.9754C70.5132 20.1932 69.8142 21.8497 69.8014 23.5819C69.8121 25.3237 70.506 26.9918 71.7338 28.2273C72.9616 29.4628 74.6252 30.1672 76.367 30.1888C79.7656 30.1888 82.6621 27.1378 82.6621 23.5819C82.6621 20.0288 79.8111 17.0854 76.3739 17.0854ZM76.3352 26.9709C74.7145 26.9709 73.3628 25.5033 73.3628 23.6109C73.3628 21.6426 74.7145 20.444 76.3352 20.444C77.8428 20.444 79.1145 21.6812 79.1145 23.6109C79.1145 25.5419 77.8428 26.9819 76.3352 26.9819V26.9709ZM84.8304 28.1791V19.0647C84.826 18.8283 84.8687 18.5935 84.9561 18.3739C85.0435 18.1543 85.1737 17.9543 85.3392 17.7855C85.5047 17.6168 85.7022 17.4828 85.9201 17.3912C86.138 17.2996 86.372 17.2524 86.6083 17.2523C87.0839 17.2584 87.5378 17.4525 87.8709 17.792C88.2039 18.1315 88.3892 18.589 88.3863 19.0647V28.1791C88.3896 28.655 88.2045 29.1129 87.8714 29.4527C87.5382 29.7925 87.0842 29.9868 86.6083 29.9929C86.135 29.9791 85.6854 29.7824 85.354 29.4442C85.0225 29.1061 84.8348 28.6527 84.8304 28.1791ZM84.5601 13.815C84.5524 13.5399 84.5994 13.266 84.6986 13.0092C84.7977 12.7524 84.9469 12.5179 85.1376 12.3194C85.3282 12.1208 85.5564 11.9621 85.8089 11.8526C86.0614 11.743 86.3331 11.6848 86.6083 11.6812C86.8852 11.6845 87.1588 11.7422 87.4133 11.8512C87.6679 11.9602 87.8985 12.1184 88.0919 12.3165C88.2853 12.5147 88.4378 12.749 88.5406 13.0061C88.6434 13.2633 88.6946 13.5381 88.6911 13.815C88.6911 14.3626 88.4736 14.8878 88.0863 15.2751C87.6991 15.6623 87.1739 15.8798 86.6263 15.8798C86.0786 15.8798 85.5534 15.6623 85.1662 15.2751C84.779 14.8878 84.5601 14.3626 84.5601 13.815ZM95.1794 23.2385V28.1791C95.1794 28.6507 94.9921 29.1029 94.6586 29.4363C94.3252 29.7698 93.873 29.9571 93.4014 29.9571C92.9299 29.9571 92.4777 29.7698 92.1442 29.4363C91.8108 29.1029 91.6235 28.6507 91.6235 28.1791V18.6412C91.6235 18.2776 91.768 17.9289 92.0251 17.6717C92.2822 17.4146 92.6309 17.2702 92.9945 17.2702C93.3582 17.2702 93.7069 17.4146 93.964 17.6717C94.2211 17.9289 94.3656 18.2776 94.3656 18.6412C94.8723 18.1235 95.4824 17.7183 96.1561 17.4521C96.8299 17.1859 97.5522 17.0647 98.2759 17.0964C101.83 17.0964 103.412 19.7612 103.412 22.8123V28.1791C103.412 28.6507 103.225 29.1029 102.892 29.4363C102.558 29.7698 102.106 29.9571 101.635 29.9571C101.163 29.9571 100.711 29.7698 100.377 29.4363C100.044 29.1029 99.8566 28.6507 99.8566 28.1791V23.2385C99.8566 21.6923 99.6649 20.3943 97.4249 20.3943C95.8442 20.3943 95.1863 21.706 95.1863 23.2385H95.1794ZM114.912 25.1295C114.731 25.1299 114.553 25.088 114.392 25.007C114.231 24.926 114.091 24.8083 113.984 24.6633L109.852 20.1847V28.1791C109.859 28.4167 109.818 28.6532 109.732 28.8746C109.645 29.096 109.515 29.2979 109.35 29.4682C109.184 29.6386 108.986 29.774 108.767 29.8665C108.548 29.959 108.313 30.0066 108.075 30.0066C107.838 30.0066 107.602 29.959 107.383 29.8665C107.165 29.774 106.966 29.6386 106.801 29.4682C106.635 29.2979 106.505 29.096 106.419 28.8746C106.332 28.6532 106.291 28.4167 106.298 28.1791V12.346C106.353 12.2147 106.444 12.1016 106.56 12.0199C106.677 11.9381 106.814 11.891 106.956 11.884C107.262 11.9359 107.538 12.1008 107.728 12.346L114.332 19.7612C114.4 19.8568 114.486 19.9376 114.586 19.9988C114.685 20.06 114.796 20.1002 114.912 20.1171C115.142 20.0725 115.347 19.9461 115.491 19.7612L122.092 12.346C122.184 12.2217 122.299 12.1168 122.432 12.0375C122.564 11.9582 122.711 11.906 122.864 11.884C123.008 11.8804 123.15 11.9234 123.269 12.0065C123.387 12.0897 123.476 12.2087 123.521 12.346V28.1805C123.526 28.4168 123.483 28.6517 123.396 28.8713C123.308 29.0909 123.178 29.2909 123.013 29.4597C122.847 29.6284 122.65 29.7624 122.432 29.854C122.214 29.9456 121.98 29.9928 121.744 29.9929C121.268 29.986 120.815 29.7915 120.482 29.4518C120.149 29.1121 119.964 28.6547 119.967 28.1791V20.1847L115.832 24.6633C115.593 24.9293 115.263 25.0957 114.908 25.1295H114.912ZM148.312 20.3805H147.924C145.686 20.4936 145.262 21.7709 145.262 23.2247V28.1654C145.262 28.6368 145.074 29.0888 144.741 29.4221C144.408 29.7555 143.956 29.9429 143.484 29.9433C143.013 29.9426 142.561 29.7548 142.228 29.4212C141.895 29.0876 141.708 28.6354 141.708 28.164V18.6426C141.708 18.2788 141.853 17.9302 142.11 17.673C142.368 17.4157 142.716 17.2709 143.08 17.2702C143.444 17.2709 143.792 17.4158 144.049 17.673C144.306 17.9303 144.451 18.279 144.451 18.6426C145.763 17.4054 146.844 17.135 147.924 17.095H148.28C148.713 17.1065 149.125 17.2864 149.427 17.5965C149.73 17.9066 149.9 18.3224 149.901 18.7557C149.9 19.1791 149.735 19.5856 149.439 19.889C149.144 20.1924 148.742 20.3687 148.319 20.3805H148.312ZM162.019 27.3295C162.182 27.5847 162.276 27.8771 162.29 28.1791C162.27 28.6445 162.077 29.0856 161.748 29.4149C161.418 29.7442 160.977 29.9378 160.512 29.9571C159.897 29.9571 159.353 29.4909 158.93 28.9502L154.839 24.1943V28.1391C154.839 28.6105 154.651 29.0625 154.318 29.3958C153.985 29.7291 153.533 29.9164 153.061 29.9164C152.59 29.9164 152.138 29.7291 151.805 29.3958C151.471 29.0625 151.284 28.6105 151.284 28.1391V13.6633C151.283 13.3115 151.387 12.9675 151.582 12.6747C151.777 12.382 152.055 12.1539 152.38 12.0193C152.705 11.8846 153.063 11.8496 153.408 11.9186C153.752 11.9876 154.069 12.1575 154.317 12.4067C154.651 12.7391 154.839 13.1929 154.839 13.6619V22.6964L158.93 18.1805C159.353 17.7157 159.858 17.215 160.473 17.215C160.924 17.2349 161.351 17.4255 161.666 17.7482C161.982 18.071 162.163 18.5017 162.172 18.9529C162.174 19.2394 162.094 19.5203 161.941 19.7626L158.699 23.3171L162.019 27.335V27.3295ZM183.49 30.1488H182.523C179.821 30.1488 178.236 28.9502 178.236 24.7419V20.3805H177.312C176.876 20.3805 176.458 20.2074 176.15 19.8994C175.842 19.5913 175.669 19.1735 175.669 18.7378C175.669 18.3021 175.842 17.8842 176.15 17.5762C176.458 17.2681 176.876 17.095 177.312 17.095H178.222V13.7364C178.214 13.3801 178.313 13.0296 178.507 12.7308C178.701 12.432 178.981 12.1988 179.31 12.0619C179.528 11.9709 179.763 11.924 179.999 11.924C180.474 11.9319 180.927 12.1265 181.259 12.4657C181.592 12.8048 181.778 13.2613 181.777 13.7364V17.0854H183.241C183.671 17.0983 184.077 17.2797 184.374 17.5902C184.671 17.9007 184.833 18.3154 184.826 18.7447C184.812 19.1642 184.641 19.5633 184.348 19.8638C184.055 20.1643 183.661 20.3447 183.241 20.3695H181.777V24.0385C181.777 26.4702 181.89 26.9709 182.971 26.9709H183.476C183.896 26.9727 184.298 27.1405 184.594 27.4377C184.891 27.7349 185.057 28.1373 185.058 28.5571C185.049 28.9737 184.879 29.3706 184.584 29.6653C184.289 29.9599 183.893 30.1297 183.476 30.1391L183.49 30.1488ZM200.67 13.2357C200.926 13.4 201.139 13.6218 201.293 13.8833C201.448 14.1449 201.538 14.4389 201.559 14.7419C201.556 15.1852 201.382 15.6103 201.072 15.9274C200.762 16.2445 200.341 16.4287 199.898 16.4412C199.688 16.4243 199.481 16.385 199.28 16.324C198.2 15.5119 196.888 15.0664 195.537 15.0522C192.252 15.0522 190.012 17.7143 190.012 21.0343C190.012 24.3543 192.291 26.9819 195.537 26.9819C197.095 26.9797 198.59 26.3701 199.706 25.2826C199.989 25.084 200.326 24.9764 200.67 24.9736C200.879 24.9717 201.086 25.0112 201.279 25.0898C201.472 25.1684 201.648 25.2846 201.796 25.4316C202.041 25.6766 202.198 25.9963 202.242 26.3404C202.286 26.6844 202.215 27.0334 202.039 27.3323C201.903 27.5679 201.711 27.7661 201.48 27.9088C200.35 28.847 199.011 29.4996 197.576 29.8117C196.141 30.1238 194.652 30.0861 193.235 29.7019C191.095 29.1234 189.238 27.7888 188.007 25.9455C186.776 24.1021 186.255 21.8751 186.541 19.6771C186.825 17.4787 187.897 15.4581 189.558 13.9898C191.219 12.5216 193.356 11.7053 195.572 11.6923C197.392 11.6576 199.176 12.1977 200.67 13.2357ZM137.153 17.2136C136.972 17.2136 136.793 17.2497 136.627 17.3199C136.46 17.3901 136.309 17.493 136.183 17.6225C136.057 17.7519 135.958 17.9053 135.892 18.0737C135.826 18.242 135.794 18.4218 135.799 18.6026L135.724 19.0302C135.215 18.4268 134.583 17.9391 133.87 17.5994C133.157 17.2598 132.38 17.0761 131.59 17.0605C128.117 17.0605 125.608 19.9929 125.608 23.5433C125.608 27.095 128.077 30.1488 131.399 30.1488C132.789 30.1488 134.989 29.5295 135.686 28.1791L135.764 28.6026C135.761 28.7844 135.794 28.965 135.863 29.1332C135.932 29.3015 136.035 29.4538 136.165 29.5807C136.295 29.7077 136.45 29.8066 136.62 29.8713C136.79 29.936 136.972 29.9652 137.153 29.9571C137.336 29.9574 137.517 29.9217 137.686 29.852C137.855 29.7822 138.008 29.6798 138.137 29.5507C138.266 29.4215 138.369 29.2681 138.438 29.0992C138.508 28.9304 138.544 28.7494 138.544 28.5667V18.6136C138.538 18.2456 138.39 17.894 138.131 17.6329C137.872 17.3718 137.521 17.2215 137.153 17.2136ZM131.978 26.9819C130.396 26.9819 129.159 25.4785 129.159 23.6219C129.159 21.7667 130.432 20.4219 131.978 20.4219C133.523 20.4219 134.915 21.695 134.915 23.6219C134.915 25.5488 133.561 26.9819 131.978 26.9819ZM174.995 23.3129C174.916 19.335 172.328 17.095 168.894 17.095C164.629 17.095 162.829 20.1847 162.829 23.7391C162.829 28.2578 165.806 30.1874 169.396 30.1874C170.746 30.1874 172.175 29.9929 173.255 29.1819C173.48 29.0505 173.668 28.8653 173.803 28.6431C173.937 28.4208 174.015 28.1685 174.028 27.9088C174.03 27.5266 173.883 27.1586 173.617 26.8842C173.351 26.6097 172.988 26.4506 172.606 26.4412C172.279 26.444 171.959 26.5378 171.681 26.7116C170.949 27.0244 170.159 27.1817 169.363 27.1736C168.475 27.1736 166.428 26.8178 166.428 24.7033H173.6C173.967 24.6963 174.317 24.5476 174.577 24.2885C174.837 24.0294 174.986 23.6798 174.995 23.3129ZM166.419 22.4164C166.419 20.9129 168.006 20.4122 168.968 20.4122C169.932 20.4122 171.517 20.9129 171.556 22.4164H166.419ZM214.836 17.2136C214.655 17.2137 214.476 17.2499 214.31 17.32C214.143 17.3901 213.993 17.4927 213.866 17.6219C213.74 17.7513 213.641 17.9049 213.575 18.0734C213.51 18.2419 213.479 18.4218 213.484 18.6026L213.407 19.0302C212.898 18.4268 212.267 17.9389 211.554 17.5993C210.842 17.2596 210.065 17.0759 209.276 17.0605C205.8 17.0605 203.29 19.9929 203.29 23.5433C203.29 27.095 205.778 30.1488 209.08 30.1488C210.47 30.1488 212.675 29.5295 213.367 28.1791L213.446 28.6026C213.443 28.7841 213.478 28.9643 213.547 29.1321C213.616 29.3 213.719 29.452 213.848 29.5791C213.978 29.7063 214.133 29.8054 214.303 29.8704C214.473 29.9354 214.654 29.9649 214.836 29.9571C215.111 29.9569 215.38 29.8754 215.609 29.7227C215.837 29.5701 216.016 29.3531 216.121 29.0991C216.19 28.9309 216.226 28.7502 216.226 28.5667V18.6136C216.22 18.2458 216.072 17.8946 215.813 17.6337C215.554 17.3727 215.204 17.2221 214.836 17.2136ZM209.659 26.9819C208.117 26.9819 206.841 25.4785 206.841 23.6219C206.841 21.7667 208.079 20.4219 209.659 20.4219C211.241 20.4219 212.596 21.695 212.596 23.6219C212.596 25.5488 211.252 26.9819 209.668 26.9819H209.659ZM226.349 17.0854C225.575 17.0712 224.806 17.2146 224.09 17.5067C223.373 17.7988 222.723 18.2336 222.179 18.7847C222.179 17.8991 221.6 17.2412 220.829 17.2412C220.646 17.2407 220.465 17.2762 220.296 17.3459C220.127 17.4155 219.973 17.5179 219.844 17.6471C219.714 17.7762 219.612 17.9297 219.542 18.0986C219.472 18.2676 219.436 18.4487 219.436 18.6316V33.615C219.437 34.0858 219.625 34.5371 219.957 34.87C220.29 35.2029 220.742 35.3905 221.212 35.3916C221.684 35.3912 222.135 35.2039 222.469 34.8709C222.802 34.5378 222.99 34.0862 222.99 33.615V29.1074C223.953 29.8385 225.499 30.1488 226.545 30.1736C229.905 30.1736 232.339 27.124 232.339 23.5695C232.339 20.0136 229.788 17.0854 226.349 17.0854ZM225.923 26.9709C224.341 26.9709 222.99 25.5502 222.99 23.6123C222.99 21.6743 224.341 20.4122 225.923 20.4122C227.505 20.4122 228.742 21.6854 228.742 23.6123C228.742 25.4771 227.509 26.9819 225.923 26.9819V26.9709Z" fill="black"/>
</svg>
