<svg width="30" height="30" viewBox="0 0 30 30" fill="none" xmlns="http://www.w3.org/2000/svg">
<path d="M5.3999 10.1999C5.3999 8.92686 5.90561 7.70596 6.80579 6.80579C7.70596 5.90561 8.92686 5.3999 10.1999 5.3999H19.7999C21.0729 5.3999 22.2938 5.90561 23.194 6.80579C24.0942 7.70596 24.5999 8.92686 24.5999 10.1999V19.7999C24.5999 21.0729 24.0942 22.2938 23.194 23.194C22.2938 24.0942 21.0729 24.5999 19.7999 24.5999H10.1999C8.92686 24.5999 7.70596 24.0942 6.80579 23.194C5.90561 22.2938 5.3999 21.0729 5.3999 19.7999V10.1999Z" stroke="black" stroke-width="2.4" stroke-linecap="round" stroke-linejoin="round"/>
<path d="M11.3999 14.9999C11.3999 15.9547 11.7792 16.8704 12.4543 17.5455C13.1294 18.2206 14.0451 18.5999 14.9999 18.5999C15.9547 18.5999 16.8704 18.2206 17.5455 17.5455C18.2206 16.8704 18.5999 15.9547 18.5999 14.9999C18.5999 14.0451 18.2206 13.1294 17.5455 12.4543C16.8704 11.7792 15.9547 11.3999 14.9999 11.3999C14.0451 11.3999 13.1294 11.7792 12.4543 12.4543C11.7792 13.1294 11.3999 14.0451 11.3999 14.9999Z" stroke="black" stroke-width="2.4" stroke-linecap="round" stroke-linejoin="round"/>
<path d="M20.3999 9.6001V9.6121" stroke="black" stroke-width="2.4" stroke-linecap="round" stroke-linejoin="round"/>
</svg>
