<svg width="20" height="21" viewBox="0 0 20 21" fill="none" xmlns="http://www.w3.org/2000/svg">
<g clip-path="url(#clip0_36_1354)">
<path fill-rule="evenodd" clip-rule="evenodd" d="M16.0709 8.05484C16.0343 8.05217 15.9943 8.05117 15.9509 8.05184H14.2689C12.8899 8.05184 11.7109 9.13684 11.7109 10.5518C11.7109 11.9668 12.8909 13.0518 14.2689 13.0518H15.9519C15.9953 13.0518 16.0359 13.0508 16.0739 13.0488C16.3571 13.0316 16.6244 12.9121 16.826 12.7125C17.0276 12.5129 17.1498 12.2468 17.1699 11.9638C17.1726 11.9232 17.1736 11.8822 17.1729 11.8408V9.26284C17.1729 9.22217 17.1719 9.18117 17.1699 9.13984C17.1498 8.85684 17.0276 8.59079 16.826 8.3912C16.6244 8.1916 16.3571 8.07207 16.0739 8.05484H16.0709ZM14.1189 11.2188C14.2925 11.2154 14.4576 11.1433 14.578 11.0182C14.6983 10.8931 14.7642 10.7254 14.7609 10.5518C14.7642 10.3783 14.6983 10.2105 14.578 10.0855C14.4576 9.96042 14.2925 9.88825 14.1189 9.88484C13.9454 9.88825 13.7803 9.96042 13.6599 10.0855C13.5395 10.2105 13.4737 10.3783 13.4769 10.5518C13.4769 10.9198 13.7639 11.2188 14.1189 11.2188Z" fill="black"/>
<path fill-rule="evenodd" clip-rule="evenodd" d="M15.947 14.0519C15.97 14.051 15.993 14.0557 16.0139 14.0653C16.0349 14.075 16.0533 14.0895 16.0676 14.1076C16.0819 14.1257 16.0917 14.147 16.0963 14.1696C16.1009 14.1922 16.1001 14.2156 16.094 14.2379C15.961 14.7119 15.748 15.1179 15.408 15.4579C14.908 15.9579 14.276 16.1779 13.494 16.2839C12.734 16.3859 11.764 16.3859 10.539 16.3859H9.13096C7.90596 16.3859 6.93496 16.3859 6.17596 16.2839C5.39396 16.1779 4.76196 15.9569 4.26196 15.4579C3.76396 14.9589 3.54196 14.3259 3.43696 13.5449C3.33496 12.7849 3.33496 11.8149 3.33496 10.5899V10.5149C3.33496 9.28987 3.33496 8.31887 3.43696 7.55887C3.54196 6.77787 3.76396 6.14487 4.26196 5.64587C4.76196 5.14687 5.39396 4.92587 6.17596 4.81987C6.93596 4.71887 7.90596 4.71887 9.13096 4.71887H10.539C11.764 4.71887 12.735 4.71887 13.494 4.82087C14.276 4.92587 14.908 5.14787 15.408 5.64587C15.748 5.98787 15.961 6.39187 16.094 6.86687C16.0999 6.88906 16.1006 6.91234 16.0959 6.93484C16.0912 6.95733 16.0814 6.97842 16.0671 6.99641C16.0528 7.0144 16.0345 7.02878 16.0136 7.03842C15.9927 7.04805 15.9699 7.05266 15.947 7.05187H14.264C12.373 7.05187 10.706 8.54587 10.706 10.5519C10.706 12.5579 12.373 14.0519 14.264 14.0519H15.947ZM6.66796 13.0519C6.53535 13.0519 6.40818 12.9992 6.31441 12.9054C6.22064 12.8117 6.16796 12.6845 6.16796 12.5519V8.55187C6.16796 8.41926 6.22064 8.29209 6.31441 8.19832C6.40818 8.10455 6.53535 8.05187 6.66796 8.05187C6.80057 8.05187 6.92775 8.10455 7.02151 8.19832C7.11528 8.29209 7.16796 8.41926 7.16796 8.55187V12.5519C7.16796 12.6845 7.11528 12.8117 7.02151 12.9054C6.92775 12.9992 6.80057 13.0519 6.66796 13.0519Z" fill="black"/>
</g>
<defs>
<clipPath id="clip0_36_1354">
<rect y="0.718872" width="20" height="20" rx="5.33333" fill="white"/>
</clipPath>
</defs>
</svg>
