<svg width="12" height="11" viewBox="0 0 12 11" fill="none" xmlns="http://www.w3.org/2000/svg">
<path fill-rule="evenodd" clip-rule="evenodd" d="M11.3528 8.71855C11.3735 8.7178 11.3942 8.72195 11.413 8.73067C11.4319 8.73939 11.4484 8.75243 11.4613 8.76873C11.4742 8.78503 11.4831 8.80414 11.4872 8.8245C11.4913 8.84487 11.4906 8.86592 11.4851 8.88595C11.3654 9.31255 11.1737 9.67795 10.8677 9.98395C10.4177 10.4339 9.84885 10.6319 9.14505 10.7273C8.46105 10.8191 7.58805 10.8191 6.48555 10.8191H5.21835C4.11585 10.8191 3.24195 10.8191 2.55885 10.7273C1.85505 10.6319 1.28625 10.433 0.836253 9.98395C0.388053 9.53485 0.188253 8.96515 0.0937531 8.26225C0.00195312 7.57825 0.00195312 6.70525 0.00195312 5.60275V5.53525C0.00195312 4.43275 0.00195312 3.55885 0.0937531 2.87485C0.188253 2.17195 0.388053 1.60225 0.836253 1.15315C1.28625 0.704048 1.85505 0.505148 2.55885 0.409748C3.24285 0.318848 4.11585 0.318848 5.21835 0.318848H6.48555C7.58805 0.318848 8.46195 0.318848 9.14505 0.410648C9.84885 0.505148 10.4177 0.704948 10.8677 1.15315C11.1737 1.46095 11.3654 1.82455 11.4851 2.25205C11.4904 2.27202 11.491 2.29297 11.4868 2.31322C11.4826 2.33346 11.4737 2.35244 11.4609 2.36863C11.448 2.38482 11.4315 2.39777 11.4127 2.40644C11.394 2.41511 11.3734 2.41925 11.3528 2.41855H9.83805C8.13615 2.41855 6.63585 3.76315 6.63585 5.56855C6.63585 7.37395 8.13615 8.71855 9.83805 8.71855H11.3528ZM3.00165 7.81855C2.88231 7.81855 2.76785 7.77114 2.68345 7.68675C2.59906 7.60235 2.55165 7.4879 2.55165 7.36855V3.76855C2.55165 3.6492 2.59906 3.53474 2.68345 3.45035C2.76785 3.36596 2.88231 3.31855 3.00165 3.31855C3.121 3.31855 3.23546 3.36596 3.31985 3.45035C3.40424 3.53474 3.45165 3.6492 3.45165 3.76855V7.36855C3.45165 7.4879 3.40424 7.60235 3.31985 7.68675C3.23546 7.77114 3.121 7.81855 3.00165 7.81855Z" fill="black"/>
</svg>
