<svg width="12" height="13" viewBox="0 0 12 13" fill="none" xmlns="http://www.w3.org/2000/svg">
<path d="M8.032 12.1389C7.43467 12.2882 6.69333 12.3629 5.808 12.3629C4.92267 12.3629 4.176 12.2882 3.568 12.1389C2.97067 11.9789 2.42667 11.6909 1.936 11.2749C0.965333 10.4535 0.48 8.84821 0.48 6.45887C0.48 4.15487 0.986667 2.5922 2 1.77087C2.50133 1.36554 3.05067 1.08287 3.648 0.922872C4.24533 0.762872 4.96 0.682872 5.792 0.682872C6.63467 0.682872 7.35467 0.762872 7.952 0.922872C8.56 1.08287 9.11467 1.36554 9.616 1.77087C10.6293 2.5922 11.136 4.15487 11.136 6.45887C11.136 8.84821 10.6507 10.4535 9.68 11.2749C9.18933 11.6909 8.64 11.9789 8.032 12.1389ZM5.472 9.64287C5.55733 9.78154 5.66933 9.85087 5.808 9.85087C5.95733 9.85087 6.07467 9.78154 6.16 9.64287C6.24533 9.49354 6.31467 9.17354 6.368 8.68287C6.42133 8.19221 6.448 7.49354 6.448 6.58687C6.448 5.68021 6.42133 4.97621 6.368 4.47487C6.31467 3.96287 6.24533 3.62687 6.16 3.46687C6.07467 3.2962 5.95733 3.21087 5.808 3.21087C5.66933 3.21087 5.55733 3.29087 5.472 3.45087C5.25867 3.81354 5.152 4.85887 5.152 6.58687C5.152 8.30421 5.25867 9.32287 5.472 9.64287Z" fill="black"/>
</svg>
