<svg width="273" height="41" viewBox="0 0 273 41" fill="none" xmlns="http://www.w3.org/2000/svg">
<g filter="url(#filter0_d_36_431)">
<path d="M13.0402 1.14491C15.5842 1.14491 21.0082 3.20891 21.3922 5.27291C21.3922 6.13691 21.2962 6.90491 21.2002 7.57691C21.9202 7.62491 22.4962 7.86491 22.7842 8.24891C23.6002 9.73691 24.0322 11.1769 24.0322 15.1609C24.0322 27.6409 20.3362 34.4569 14.5762 34.4569C8.76825 34.4569 1.85625 33.2569 1.85625 19.4329C1.85625 5.65691 4.78425 1.14491 13.0402 1.14491ZM15.6322 17.8009C15.6322 15.7849 15.5842 14.1049 15.4882 12.7129C15.0082 12.6169 14.6242 12.3769 14.4802 11.8969C15.3442 9.59291 14.1442 7.72091 13.5682 7.72091C12.4162 7.72091 11.2642 10.2649 11.2642 17.8009C11.2642 25.3369 11.3602 28.8409 13.5202 28.8409C15.5362 28.8409 15.6322 24.6169 15.6322 17.8009ZM39.4961 33.4489C39.4961 33.0169 39.5921 30.9529 39.6881 28.2649C38.1041 32.3929 35.8001 35.2729 33.0161 35.2729C28.9361 35.2729 26.2481 32.2969 26.2481 25.5769C26.2481 23.5609 26.3441 5.84891 27.1601 4.84091C28.9361 3.01691 36.7121 3.92891 36.7121 4.69691C36.7121 5.51291 34.5521 24.7609 37.0481 24.7609C39.5441 24.7609 39.8321 7.67291 39.8321 7.67291L39.8801 7.72091C39.8321 6.66491 39.7841 5.80091 39.6881 5.27291C41.3681 3.64091 48.6641 3.97691 49.4321 4.84091C49.9121 5.36891 50.0561 15.8329 49.5761 24.2329C49.5281 24.5689 49.9601 25.1449 50.2001 25.3849C50.5841 25.8649 49.4801 32.2009 49.1441 32.5369C48.0401 33.5449 39.4961 34.0249 39.4961 33.4489ZM63.9859 2.20091C71.2339 2.20091 76.5139 7.04891 76.5139 12.9529C76.5139 18.0409 74.0659 21.4009 70.3699 23.3209C72.3859 25.6729 76.3699 30.6649 77.7619 30.6649C77.7619 32.0089 73.6819 35.4649 71.4739 35.4649C69.8899 35.4649 65.7139 30.4249 63.4099 27.2089C63.4579 29.8969 63.5539 32.0569 63.7939 33.0649C62.1139 34.7929 55.4899 34.6969 54.6739 33.8809C54.1459 33.3529 54.0499 21.2569 54.3379 12.5209H54.1939C53.2339 12.5209 52.9459 4.31291 53.3299 3.92891C53.7619 3.49691 59.3299 2.20091 63.9859 2.20091ZM63.6019 10.0249L63.4579 17.8009C65.4259 17.6569 67.3459 16.8889 67.3459 12.4729C67.3459 10.8889 66.1459 10.0249 64.5139 9.97691C64.2259 9.97691 63.9379 9.97691 63.6019 10.0249ZM104.625 2.20091C111.873 2.20091 117.153 7.04891 117.153 12.9529C117.153 20.7769 111.297 24.6649 104.049 25.0969C104.049 28.7449 104.145 31.8169 104.433 33.0649C102.753 34.7929 96.1286 34.6969 95.3126 33.8809C94.7846 33.3529 94.6886 21.2569 94.9766 12.5209H94.8326C93.8726 12.5209 93.5846 4.31291 93.9686 3.92891C94.4006 3.49691 99.9686 2.20091 104.625 2.20091ZM104.241 10.0249L104.097 17.8009C106.065 17.6569 107.985 16.8889 107.985 12.4729C107.985 10.8889 106.785 10.0249 105.153 9.97691C104.865 9.97691 104.577 9.97691 104.241 10.0249ZM126.217 1.96091L135.961 2.77691C136.489 2.82491 136.873 3.20891 136.969 3.73691C137.785 8.53691 141.433 31.2409 141.433 32.3449C141.433 33.0169 136.153 34.4089 134.473 34.5529C134.041 34.6009 133.609 34.3129 133.465 33.8809C132.649 31.3369 131.737 24.4249 131.737 24.4249H129.241C128.809 24.4249 128.521 24.7609 128.473 25.1449C128.473 25.1449 127.945 27.8329 127.849 28.7449C127.705 29.7529 127.513 32.7769 127.513 32.7769C127.513 32.7769 119.545 32.7769 118.729 32.2009C118.297 28.3609 123.001 7.67291 124.969 2.77691C125.161 2.24891 125.641 1.91291 126.217 1.96091ZM129.097 19.6729H130.729C131.017 19.6729 131.209 19.4329 131.161 19.1449L129.961 11.6569L128.713 19.2409C128.665 19.4809 128.857 19.6729 129.097 19.6729ZM154.873 2.20091C162.121 2.20091 167.401 7.04891 167.401 12.9529C167.401 18.0409 164.953 21.4009 161.257 23.3209C163.273 25.6729 167.257 30.6649 168.649 30.6649C168.649 32.0089 164.569 35.4649 162.361 35.4649C160.777 35.4649 156.601 30.4249 154.297 27.2089C154.345 29.8969 154.441 32.0569 154.681 33.0649C153.001 34.7929 146.377 34.6969 145.561 33.8809C145.033 33.3529 144.937 21.2569 145.225 12.5209H145.081C144.121 12.5209 143.833 4.31291 144.217 3.92891C144.649 3.49691 150.217 2.20091 154.873 2.20091ZM154.489 10.0249L154.345 17.8009C156.313 17.6569 158.233 16.8889 158.233 12.4729C158.233 10.8889 157.033 10.0249 155.401 9.97691C155.113 9.97691 154.825 9.97691 154.489 10.0249ZM190.738 2.77691C192.13 2.82491 191.794 7.38491 190.93 7.33691C190.642 7.33691 188.818 7.33691 186.418 7.38491C186.226 13.8169 185.794 29.0329 186.514 32.2969C184.834 33.9289 177.73 34.7449 176.962 33.9289C176.338 33.3529 176.242 15.6409 176.674 7.52891C173.986 7.57691 171.922 7.62491 171.634 7.57691C170.578 6.90491 170.29 3.59291 171.154 3.11291C172.066 2.58491 183.922 2.53691 190.738 2.77691ZM218.823 3.92891C218.823 5.65691 217.959 28.4089 218.823 32.5369C217.143 34.2649 210.039 35.0329 209.271 34.2649C208.551 33.5449 204.711 21.9769 202.647 16.2169C202.503 21.0169 202.359 26.6809 202.407 32.4889C202.407 33.0169 193.287 34.9369 193.287 33.9769C193.287 33.0649 193.959 7.04891 193.959 4.74491C193.959 2.48891 203.127 3.11291 203.127 3.11291V3.16091C203.319 3.88091 207.111 16.6489 208.695 21.1129C208.647 12.8569 208.935 3.68891 209.511 3.11291C210.567 2.05691 218.823 3.35291 218.823 3.92891ZM236.204 16.1689C237.02 16.1689 237.26 20.7289 236.732 20.7289C236.492 20.7289 234.572 20.8729 232.316 21.0649C232.172 24.0409 232.028 26.5849 231.98 28.4089H237.98C238.796 28.4089 239.036 32.9209 238.508 32.9209C237.98 32.9209 223.676 33.3529 223.148 33.3529C222.62 32.7769 222.524 30.3769 222.812 29.3209C222.908 24.5689 223.292 12.1849 223.388 7.43291H222.524C221.948 6.71291 221.804 3.25691 222.38 2.72891C222.908 2.15291 235.34 2.05691 239.372 2.24891C240.188 2.29691 240.188 7.09691 239.66 7.04891C239.42 7.04891 236.396 7.14491 232.94 7.24091L232.556 16.2649C233.9 16.2169 235.148 16.1689 236.204 16.1689ZM253.494 2.20091C260.742 2.20091 266.022 7.04891 266.022 12.9529C266.022 18.0409 263.574 21.4009 259.878 23.3209C261.894 25.6729 265.878 30.6649 267.27 30.6649C267.27 32.0089 263.19 35.4649 260.982 35.4649C259.398 35.4649 255.222 30.4249 252.918 27.2089C252.966 29.8969 253.062 32.0569 253.302 33.0649C251.622 34.7929 244.998 34.6969 244.182 33.8809C243.654 33.3529 243.558 21.2569 243.846 12.5209H243.702C242.742 12.5209 242.454 4.31291 242.838 3.92891C243.27 3.49691 248.838 2.20091 253.494 2.20091ZM253.11 10.0249L252.966 17.8009C254.934 17.6569 256.854 16.8889 256.854 12.4729C256.854 10.8889 255.654 10.0249 254.022 9.97691C253.734 9.97691 253.446 9.97691 253.11 10.0249Z" fill="#FCCB06"/>
<path d="M21.3922 5.27291H22.3922V5.18068L22.3754 5.09L21.3922 5.27291ZM21.2002 7.57691L20.2103 7.43549L20.0578 8.50297L21.1337 8.5747L21.2002 7.57691ZM22.7842 8.24891L23.6611 7.76808L23.6269 7.70577L23.5842 7.64891L22.7842 8.24891ZM15.4882 12.7129L16.4859 12.6441L16.4333 11.8821L15.6844 11.7323L15.4882 12.7129ZM14.4802 11.8969L13.5439 11.5458L13.4256 11.8614L13.5224 12.1843L14.4802 11.8969ZM13.0402 2.14491C14.1192 2.14491 15.9658 2.60515 17.6163 3.34701C18.4304 3.71293 19.1425 4.12372 19.6568 4.5368C20.2029 4.97543 20.38 5.29914 20.4091 5.45582L22.3754 5.09C22.2125 4.21468 21.5676 3.50639 20.9092 2.97752C20.219 2.42311 19.3441 1.93089 18.4362 1.52281C16.6427 0.716674 14.5053 0.144912 13.0402 0.144912V2.14491ZM20.3922 5.27291C20.3922 6.06425 20.3045 6.7758 20.2103 7.43549L22.1902 7.71833C22.288 7.03402 22.3922 6.20957 22.3922 5.27291H20.3922ZM21.1337 8.5747C21.7205 8.61381 21.9476 8.80008 21.9842 8.84891L23.5842 7.64891C23.0449 6.92974 22.12 6.63601 21.2668 6.57913L21.1337 8.5747ZM21.9074 8.72974C22.6115 10.0137 23.0322 11.2657 23.0322 15.1609H25.0322C25.0322 11.0881 24.5889 9.4601 23.6611 7.76808L21.9074 8.72974ZM23.0322 15.1609C23.0322 21.3253 22.1159 25.9722 20.5711 29.0391C19.0429 32.0733 16.9715 33.4569 14.5762 33.4569V35.4569C17.941 35.4569 20.5976 33.4326 22.3574 29.9388C24.1006 26.4777 25.0322 21.4765 25.0322 15.1609H23.0322ZM14.5762 33.4569C11.698 33.4569 8.83776 33.1452 6.67527 31.3581C4.54822 29.6003 2.85625 26.201 2.85625 19.4329H0.856247C0.856247 26.4888 2.62027 30.6016 5.40122 32.8998C8.14674 35.1687 11.6465 35.4569 14.5762 35.4569V33.4569ZM2.85625 19.4329C2.85625 12.5534 3.60001 8.23834 5.20255 5.6492C6.71797 3.20082 9.11048 2.14491 13.0402 2.14491V0.144912C8.71402 0.144912 5.51452 1.345 3.50194 4.59662C1.57648 7.70748 0.856247 12.5364 0.856247 19.4329H2.85625ZM16.6322 17.8009C16.6322 15.7708 16.584 14.0664 16.4859 12.6441L14.4906 12.7817C14.5845 14.1434 14.6322 15.7991 14.6322 17.8009H16.6322ZM15.6844 11.7323C15.5452 11.7045 15.4829 11.6676 15.4626 11.6522C15.4542 11.6458 15.452 11.6425 15.4515 11.6418C15.451 11.6411 15.445 11.6328 15.4381 11.6096L13.5224 12.1843C13.8096 13.1415 14.5959 13.5542 15.2921 13.6935L15.6844 11.7323ZM15.4166 12.248C15.9363 10.8621 15.8441 9.57658 15.5083 8.61523C15.3423 8.13987 15.1089 7.72106 14.8368 7.40129C14.7012 7.24197 14.5391 7.08739 14.3507 6.96574C14.1721 6.85043 13.9012 6.72091 13.5682 6.72091V8.72091C13.3792 8.72091 13.2719 8.64989 13.2658 8.64596C13.2499 8.63568 13.2693 8.64535 13.3137 8.69753C13.4016 8.80076 13.5222 8.99395 13.6202 9.27459C13.8124 9.82524 13.8882 10.6277 13.5439 11.5458L15.4166 12.248ZM13.5682 6.72091C12.8638 6.72091 12.3116 7.12247 11.9253 7.63214C11.5465 8.13196 11.2519 8.82265 11.0197 9.67086C10.5529 11.3762 10.2642 14.0001 10.2642 17.8009H12.2642C12.2642 14.0657 12.5516 11.6497 12.9488 10.199C13.1485 9.46917 13.358 9.05287 13.5192 8.84018C13.6729 8.63735 13.6967 8.72091 13.5682 8.72091V6.72091ZM10.2642 17.8009C10.2642 21.5361 10.2852 24.3906 10.5951 26.3066C10.7491 27.2591 10.9927 28.1148 11.4376 28.7496C11.9323 29.4554 12.6451 29.8409 13.5202 29.8409V27.8409C13.3154 27.8409 13.2062 27.7884 13.0754 27.6017C12.8948 27.344 12.7094 26.8527 12.5694 25.9873C12.2913 24.2672 12.2642 21.6018 12.2642 17.8009H10.2642ZM13.5202 29.8409C14.4685 29.8409 15.1428 29.3029 15.565 28.5775C15.9563 27.9052 16.1789 27.0091 16.3219 26.0201C16.6105 24.0254 16.6322 21.1844 16.6322 17.8009H14.6322C14.6322 21.2334 14.606 23.9125 14.3425 25.7337C14.2096 26.6527 14.0302 27.2386 13.8365 27.5713C13.6737 27.851 13.58 27.8409 13.5202 27.8409V29.8409ZM39.6881 28.2649L40.6875 28.3006L38.7545 27.9067L39.6881 28.2649ZM27.1601 4.84091L26.4436 4.14329L26.4117 4.17611L26.3829 4.21171L27.1601 4.84091ZM39.8321 7.67291L40.5392 6.9658L38.872 5.29857L38.8323 7.65606L39.8321 7.67291ZM39.8801 7.72091L39.173 8.42802L40.9962 10.2512L40.8791 7.6755L39.8801 7.72091ZM39.6881 5.27291L38.9913 4.55563L38.6089 4.92717L38.7043 5.4518L39.6881 5.27291ZM49.4321 4.84091L48.6847 5.50532L48.6922 5.51358L49.4321 4.84091ZM49.5761 24.2329L50.5661 24.3743L50.5721 24.3323L50.5745 24.29L49.5761 24.2329ZM50.2001 25.3849L50.981 24.7602L50.9464 24.717L50.9072 24.6778L50.2001 25.3849ZM49.1441 32.5369L49.8184 33.2754L49.8352 33.2601L49.8512 33.244L49.1441 32.5369ZM40.4961 33.4489C40.4961 33.0401 40.5902 31.0237 40.6875 28.3006L38.6888 28.2292C38.594 30.8821 38.4961 32.9937 38.4961 33.4489H40.4961ZM38.7545 27.9067C37.9878 29.9048 37.0708 31.5332 36.0617 32.6448C35.0555 33.7532 34.0325 34.2729 33.0161 34.2729V36.2729C34.7838 36.2729 36.3047 35.3526 37.5425 33.989C38.7775 32.6287 39.8045 30.753 40.6217 28.6232L38.7545 27.9067ZM33.0161 34.2729C31.2463 34.2729 29.8712 33.6436 28.9036 32.3469C27.9018 31.0043 27.2481 28.8267 27.2481 25.5769H25.2481C25.2481 29.0471 25.9385 31.7175 27.3007 33.543C28.697 35.4142 30.7059 36.2729 33.0161 36.2729V34.2729ZM27.2481 25.5769C27.2481 24.5748 27.2721 19.6519 27.3978 14.8571C27.4607 12.4581 27.5488 10.1029 27.6711 8.28999C27.7324 7.38122 27.8013 6.62578 27.8773 6.07538C27.9155 5.79839 27.9528 5.59371 27.9866 5.456C28.0035 5.387 28.0156 5.35145 28.0199 5.34014C28.0293 5.31552 28.0092 5.38137 27.9374 5.47011L26.3829 4.21171C26.26 4.36345 26.1903 4.52493 26.1515 4.62658C26.1076 4.74154 26.0728 4.86291 26.0442 4.9795C25.9869 5.21297 25.9385 5.49415 25.896 5.80188C25.8106 6.42091 25.7381 7.23035 25.6756 8.15533C25.5505 10.0099 25.4616 12.3977 25.3985 14.8047C25.2722 19.6219 25.2481 24.5631 25.2481 25.5769H27.2481ZM27.8766 5.53853C28.0811 5.32847 28.6166 5.08158 29.5622 4.92797C30.4521 4.78342 31.5177 4.74983 32.5578 4.79593C33.5969 4.84198 34.5664 4.96553 35.2563 5.11596C35.6084 5.19271 35.845 5.26744 35.9725 5.32342C36.041 5.3535 36.027 5.35629 35.9795 5.31621C35.9539 5.29461 35.7121 5.08921 35.7121 4.69691H37.7121C37.7121 4.20862 37.4096 3.90609 37.2692 3.78765C37.107 3.65072 36.9241 3.55694 36.7765 3.49215C36.4719 3.35838 36.0871 3.25011 35.6824 3.16187C34.8588 2.98229 33.7733 2.84784 32.6464 2.79789C31.5205 2.74799 30.3092 2.7804 29.2415 2.95385C28.2296 3.11824 27.1271 3.44135 26.4436 4.14329L27.8766 5.53853ZM35.7121 4.69691C35.7121 4.68525 35.7123 4.69836 35.7082 4.75995C35.7047 4.81287 35.6992 4.88427 35.6918 4.97512C35.677 5.15652 35.6553 5.40145 35.6282 5.70402C35.5741 6.30691 35.4992 7.12881 35.4172 8.09128C35.2533 10.0158 35.0601 12.5129 34.9452 14.9886C34.8308 17.4543 34.792 19.9384 34.9459 21.8221C35.022 22.7532 35.15 23.6074 35.3705 24.2547C35.4797 24.5753 35.6351 24.9176 35.8745 25.1962C36.1303 25.494 36.5251 25.7609 37.0481 25.7609V23.7609C37.2591 23.7609 37.3783 23.8775 37.3915 23.8929C37.394 23.8957 37.379 23.8786 37.3529 23.8277C37.3273 23.7778 37.2966 23.7067 37.2637 23.6098C37.1245 23.2013 37.0117 22.5454 36.9393 21.6592C36.7962 19.9085 36.8295 17.5295 36.943 15.0813C37.0562 12.6429 37.247 10.175 37.41 8.26104C37.4915 7.30426 37.5659 6.48853 37.6202 5.88261C37.6708 5.31797 37.7121 4.85767 37.7121 4.69691H35.7121ZM37.0481 25.7609C37.9782 25.7609 38.5076 24.988 38.7686 24.4936C39.0749 23.9137 39.314 23.1487 39.5094 22.3206C39.9042 20.6474 40.1791 18.4541 40.3721 16.3064C40.5661 14.1486 40.6809 11.9952 40.7473 10.3841C40.7805 9.57776 40.8016 8.90558 40.8145 8.43444C40.8209 8.19883 40.8253 8.01341 40.828 7.88653C40.8294 7.82309 40.8304 7.77428 40.831 7.74114C40.8314 7.72457 40.8316 7.71191 40.8317 7.70331C40.8318 7.699 40.8319 7.69571 40.8319 7.69345C40.8319 7.69232 40.832 7.69144 40.832 7.69083C40.832 7.69052 40.832 7.69025 40.832 7.6901C40.832 7.6899 40.832 7.68976 39.8321 7.67291C38.8323 7.65606 38.8323 7.65605 38.8323 7.65611C38.8323 7.65622 38.8323 7.65634 38.8323 7.65655C38.8322 7.65698 38.8322 7.65766 38.8322 7.6586C38.8322 7.66047 38.8321 7.66337 38.8321 7.66729C38.8319 7.67511 38.8317 7.68696 38.8314 7.70272C38.8308 7.73425 38.8299 7.78139 38.8285 7.8431C38.8258 7.96653 38.8216 8.14824 38.8152 8.37988C38.8026 8.84324 38.7817 9.50606 38.749 10.3017C38.6833 11.8947 38.5702 14.0132 38.3801 16.1274C38.1892 18.2517 37.9241 20.3304 37.5628 21.8613C37.3802 22.6352 37.1874 23.2051 37.0001 23.5597C36.7677 23.9998 36.742 23.7609 37.0481 23.7609V25.7609ZM39.125 8.38002L39.173 8.42802L40.5872 7.0138L40.5392 6.9658L39.125 8.38002ZM40.8791 7.6755C40.8322 6.64461 40.7828 5.70324 40.672 5.09403L38.7043 5.4518C38.7855 5.89858 38.832 6.68521 38.8812 7.76632L40.8791 7.6755ZM40.3849 5.99019C40.5828 5.79793 41.1014 5.55532 42.0055 5.37638C42.8575 5.20777 43.8843 5.12666 44.9078 5.12089C45.9298 5.11514 46.9119 5.18468 47.6679 5.30249C48.048 5.36172 48.3472 5.42952 48.5562 5.49662C48.8199 5.58125 48.7832 5.61607 48.6847 5.50527L50.1795 4.17655C49.889 3.84975 49.4564 3.68507 49.1675 3.59233C48.8239 3.48205 48.414 3.3946 47.9758 3.32633C47.0954 3.18914 46.0045 3.11468 44.8965 3.12093C43.7899 3.12716 42.6298 3.21405 41.6172 3.41444C40.6569 3.6045 39.6334 3.93189 38.9913 4.55563L40.3849 5.99019ZM48.6922 5.51358C48.5892 5.40025 48.5507 5.298 48.5487 5.29322C48.5404 5.27247 48.5415 5.27061 48.5488 5.29918C48.5631 5.35568 48.5831 5.45827 48.6053 5.61852C48.6491 5.93476 48.6904 6.39065 48.7265 6.97424C48.7985 8.13633 48.8463 9.73709 48.8642 11.5946C48.9 15.3075 48.8163 20.001 48.5778 24.1759L50.5745 24.29C50.8159 20.0648 50.9003 15.3263 50.8641 11.5753C50.846 9.70073 50.7977 8.0615 50.7227 6.85058C50.6854 6.24768 50.6404 5.73381 50.5863 5.34393C50.5596 5.15111 50.5277 4.96655 50.4874 4.80766C50.4674 4.72853 50.4406 4.63692 50.4035 4.54509C50.3729 4.46923 50.3051 4.31457 50.1721 4.16824L48.6922 5.51358ZM48.5862 24.0915C48.5414 24.4049 48.6151 24.6815 48.6779 24.8572C48.7458 25.0474 48.8386 25.222 48.9268 25.3664C49.1013 25.6519 49.3189 25.9179 49.493 26.092L50.9072 24.6778C50.8414 24.6119 50.7229 24.4699 50.6334 24.3235C50.5896 24.2518 50.5684 24.2044 50.5614 24.1846C50.5583 24.1761 50.5628 24.1861 50.5669 24.2121C50.5709 24.2372 50.5774 24.2948 50.5661 24.3743L48.5862 24.0915ZM49.4193 26.0096C49.3358 25.9052 49.3003 25.8121 49.2884 25.7782C49.2809 25.7568 49.2764 25.7405 49.2741 25.7312C49.2717 25.7216 49.2707 25.716 49.2706 25.7153C49.2705 25.7148 49.2723 25.725 49.2743 25.7489C49.2763 25.7722 49.2781 25.8033 49.2791 25.8431C49.2836 26.0101 49.2739 26.257 49.2477 26.5758C49.1959 27.2071 49.0876 28.0269 48.9547 28.8568C48.8221 29.6849 48.6682 30.5028 48.5289 31.1274C48.4587 31.4417 48.3954 31.6928 48.3435 31.8668C48.3171 31.9553 48.2986 32.0067 48.2894 32.0295C48.2595 32.1027 48.2985 31.9683 48.437 31.8298L49.8512 33.244C50.0317 33.0635 50.1187 32.8402 50.1418 32.7835C50.1854 32.6764 50.2248 32.5566 50.2599 32.4388C50.3312 32.2001 50.4062 31.8974 50.4809 31.5629C50.631 30.89 50.7921 30.031 50.9295 29.173C51.0666 28.3169 51.1834 27.4417 51.241 26.7395C51.2696 26.3916 51.2857 26.0621 51.2784 25.7894C51.2748 25.6548 51.2649 25.5072 51.2399 25.366C51.2223 25.2667 51.1716 24.9984 50.981 24.7602L49.4193 26.0096ZM48.4699 31.7984C48.5039 31.7673 48.4327 31.8328 48.1081 31.9366C47.8239 32.0275 47.4445 32.1177 46.9881 32.2025C46.0784 32.3716 44.9448 32.5045 43.8298 32.5898C42.7146 32.6752 41.6476 32.7106 40.8731 32.6915C40.4789 32.6817 40.1974 32.6585 40.0328 32.6306C39.9411 32.615 39.9461 32.6076 39.9978 32.6306C40.0222 32.6414 40.1187 32.6853 40.2223 32.7873C40.3372 32.9004 40.4961 33.1253 40.4961 33.4489H38.4961C38.4961 33.8085 38.6718 34.0674 38.819 34.2123C38.955 34.3463 39.0996 34.4201 39.1869 34.4588C39.3643 34.5375 39.554 34.5779 39.698 34.6023C40.005 34.6545 40.3996 34.6804 40.8236 34.6909C41.6857 34.7122 42.8237 34.6727 43.9824 34.584C45.1414 34.4953 46.3508 34.3552 47.3536 34.1688C47.8535 34.0759 48.3227 33.9677 48.7171 33.8416C49.071 33.7285 49.5083 33.5585 49.8184 33.2754L48.4699 31.7984ZM70.3699 23.3209L69.9089 22.4335L68.7903 23.0146L69.6106 23.9717L70.3699 23.3209ZM77.7619 30.6649H78.7619V29.6649H77.7619V30.6649ZM63.4099 27.2089L64.2228 26.6265L62.3527 24.0162L62.41 27.2268L63.4099 27.2089ZM63.7939 33.0649L64.5109 33.762L64.894 33.3679L64.7667 32.8333L63.7939 33.0649ZM54.6739 33.8809L53.9668 34.588L54.6739 33.8809ZM54.3379 12.5209L55.3373 12.5539L55.3714 11.5209H54.3379V12.5209ZM53.3299 3.92891L52.6228 3.2218L52.6228 3.2218L53.3299 3.92891ZM63.6019 10.0249L63.4605 9.03496L62.6178 9.15534L62.602 10.0064L63.6019 10.0249ZM63.4579 17.8009L62.458 17.7824L62.4377 18.8782L63.5308 18.7982L63.4579 17.8009ZM64.5139 9.97691L64.5433 8.97734L64.5286 8.97691H64.5139V9.97691ZM63.9859 3.20091C70.81 3.20091 75.5139 7.72144 75.5139 12.9529H77.5139C77.5139 6.37638 71.6577 1.20091 63.9859 1.20091V3.20091ZM75.5139 12.9529C75.5139 17.6471 73.2924 20.6758 69.9089 22.4335L70.8309 24.2083C74.8393 22.126 77.5139 18.4348 77.5139 12.9529H75.5139ZM69.6106 23.9717C70.595 25.1202 72.1268 26.9935 73.5647 28.5528C74.2852 29.334 75.0104 30.0681 75.6598 30.6138C75.9837 30.8859 76.3121 31.1312 76.6299 31.3133C76.9231 31.4814 77.3233 31.6649 77.7619 31.6649V29.6649C77.8525 29.6649 77.8237 29.6924 77.6247 29.5783C77.4502 29.4783 77.2233 29.3152 76.9464 29.0825C76.3943 28.6187 75.7366 27.9578 75.035 27.197C73.629 25.6723 72.1607 23.8736 71.1291 22.6701L69.6106 23.9717ZM76.7619 30.6649C76.7619 30.6021 76.7779 30.636 76.6948 30.7962C76.6198 30.9406 76.495 31.1283 76.3139 31.3511C75.9525 31.7957 75.4289 32.3041 74.8229 32.7866C74.2183 33.2681 73.5603 33.701 72.9422 34.0087C72.3028 34.327 71.7983 34.4649 71.4739 34.4649V36.4649C72.2534 36.4649 73.0869 36.1708 73.8335 35.7991C74.6014 35.4168 75.3774 34.9017 76.0688 34.3512C76.7589 33.8017 77.3932 33.1941 77.8658 32.6127C78.1017 32.3225 78.313 32.0197 78.4697 31.7179C78.6183 31.4318 78.7619 31.0637 78.7619 30.6649H76.7619ZM71.4739 34.4649C71.5165 34.4649 71.4504 34.4731 71.2375 34.3596C71.0422 34.2555 70.794 34.0872 70.4962 33.8478C69.9017 33.3699 69.1976 32.6804 68.4476 31.8656C66.9519 30.2409 65.3575 28.2104 64.2228 26.6265L62.597 27.7913C63.7663 29.4234 65.4119 31.521 66.9762 33.2202C67.7561 34.0674 68.537 34.8389 69.2431 35.4065C69.5955 35.6899 69.9514 35.9404 70.2966 36.1245C70.6243 36.2992 71.0352 36.4649 71.4739 36.4649V34.4649ZM62.41 27.2268C62.4341 28.5754 62.4704 29.8037 62.5317 30.8267C62.5918 31.8312 62.679 32.7 62.8211 33.2965L64.7667 32.8333C64.6687 32.4219 64.5879 31.7067 64.5281 30.7071C64.4693 29.7261 64.4336 28.5305 64.4097 27.1911L62.41 27.2268ZM63.0769 32.3678C62.8556 32.5954 62.3516 32.8577 61.5284 33.067C60.7424 33.2669 59.8023 33.3851 58.8642 33.428C57.9273 33.4708 57.0286 33.437 56.3328 33.3486C55.9832 33.3042 55.7076 33.2489 55.5138 33.1918C55.2764 33.1218 55.2943 33.0872 55.381 33.1738L53.9668 34.588C54.2574 34.8786 54.6609 35.0255 54.9485 35.1102C55.2796 35.2078 55.6685 35.2803 56.0809 35.3327C56.9091 35.4379 57.9244 35.473 58.9556 35.4259C59.9854 35.3788 61.0673 35.2479 62.0213 35.0053C62.9381 34.7722 63.8921 34.3984 64.5109 33.762L63.0769 32.3678ZM55.381 33.1738C55.5077 33.3005 55.5523 33.4221 55.5524 33.4224C55.5611 33.4438 55.5591 33.4441 55.5506 33.4097C55.5339 33.3422 55.5117 33.2227 55.4874 33.0389C55.4396 32.6764 55.3953 32.1547 55.3564 31.4907C55.279 30.1681 55.2267 28.3509 55.1998 26.266C55.146 22.099 55.1938 16.9063 55.3373 12.5539L53.3384 12.488C53.1939 16.8715 53.1458 22.0948 53.2 26.2918C53.227 28.3889 53.2798 30.2407 53.3598 31.6076C53.3997 32.2884 53.4473 32.8665 53.5046 33.3007C53.533 33.5153 53.5667 33.7183 53.6092 33.8903C53.6303 33.9756 53.6588 34.0748 53.6988 34.1735C53.7303 34.2511 53.8071 34.4283 53.9668 34.588L55.381 33.1738ZM54.3379 11.5209H54.1939V13.5209H54.3379V11.5209ZM54.1939 11.5209C54.5216 11.5209 54.7124 11.7018 54.7616 11.7559C54.8103 11.8094 54.81 11.8314 54.7808 11.765C54.7254 11.6391 54.6537 11.4005 54.5802 11.0352C54.4367 10.3217 54.3263 9.33309 54.2555 8.3005C54.1851 7.27389 54.1562 6.23987 54.1678 5.44798C54.1736 5.04937 54.1894 4.73034 54.2121 4.51117C54.2237 4.39897 54.2347 4.33723 54.2401 4.31365C54.243 4.30134 54.2395 4.32066 54.2247 4.35786C54.2171 4.37673 54.1675 4.50548 54.037 4.63602L52.6228 3.2218C52.4682 3.37634 52.3959 3.54437 52.367 3.61683C52.3308 3.70761 52.3073 3.79482 52.2914 3.86372C52.2593 4.00256 52.2381 4.15653 52.2227 4.30552C52.1913 4.60873 52.1742 4.99395 52.168 5.41884C52.1555 6.27396 52.1866 7.36393 52.2602 8.43732C52.3334 9.50473 52.451 10.5921 52.6195 11.4296C52.702 11.8398 52.8073 12.2455 52.9499 12.5699C53.0198 12.7288 53.1237 12.9275 53.2819 13.1014C53.4406 13.2759 53.7461 13.5209 54.1939 13.5209V11.5209ZM54.037 4.63602C53.9475 4.72554 53.8768 4.75299 53.9211 4.73056C53.9439 4.71904 53.9926 4.69703 54.0751 4.66578C54.2386 4.60383 54.4779 4.52695 54.7902 4.44011C55.4113 4.26743 56.2641 4.07107 57.2571 3.88598C59.2473 3.51503 61.7387 3.20091 63.9859 3.20091V1.20091C61.577 1.20091 58.9565 1.53479 56.8906 1.91984C55.8557 2.11275 54.9444 2.32139 54.2545 2.51321C53.9113 2.60862 53.6084 2.70387 53.3666 2.79548C53.2464 2.84101 53.1266 2.89114 53.018 2.94606C52.9311 2.99008 52.7663 3.07828 52.6228 3.2218L54.037 4.63602ZM62.602 10.0064L62.458 17.7824L64.4577 17.8194L64.6017 10.0434L62.602 10.0064ZM63.5308 18.7982C64.5983 18.7201 65.8795 18.4619 66.8639 17.4287C67.8432 16.4008 68.3459 14.8007 68.3459 12.4729H66.3459C66.3459 14.5612 65.8885 15.553 65.4159 16.0491C64.9482 16.54 64.2854 16.7377 63.3849 16.8036L63.5308 18.7982ZM68.3459 12.4729C68.3459 11.4028 67.928 10.5023 67.1821 9.88069C66.4612 9.27998 65.5166 9.00597 64.5433 8.97734L64.4845 10.9765C65.1431 10.9959 65.6145 11.1778 65.9017 11.4171C66.1637 11.6355 66.3459 11.959 66.3459 12.4729H68.3459ZM64.5139 8.97691C64.229 8.97691 63.8753 8.97569 63.4605 9.03496L63.7433 11.0149C64.0004 10.9781 64.2228 10.9769 64.5139 10.9769V8.97691ZM104.049 25.0969L103.989 24.0987L103.049 24.1547V25.0969H104.049ZM104.433 33.0649L105.15 33.762L105.53 33.3712L105.407 32.8401L104.433 33.0649ZM95.3126 33.8809L94.6055 34.588L95.3126 33.8809ZM94.9766 12.5209L95.9761 12.5539L96.0101 11.5209H94.9766V12.5209ZM93.9686 3.92891L93.2615 3.2218V3.2218L93.9686 3.92891ZM104.241 10.0249L104.099 9.03496L103.257 9.15534L103.241 10.0064L104.241 10.0249ZM104.097 17.8009L103.097 17.7824L103.076 18.8782L104.17 18.7982L104.097 17.8009ZM105.153 9.97691L105.182 8.97734L105.167 8.97691H105.153V9.97691ZM104.625 3.20091C111.449 3.20091 116.153 7.72144 116.153 12.9529H118.153C118.153 6.37638 112.296 1.20091 104.625 1.20091V3.20091ZM116.153 12.9529C116.153 16.5878 114.805 19.2301 112.673 21.0333C110.513 22.8599 107.465 23.8915 103.989 24.0987L104.108 26.0951C107.881 25.8703 111.385 24.7419 113.964 22.5605C116.572 20.3557 118.153 17.142 118.153 12.9529H116.153ZM103.049 25.0969C103.049 26.9275 103.073 28.6237 103.134 30.0243C103.193 31.3997 103.291 32.5651 103.458 33.2898L105.407 32.8401C105.286 32.3167 105.192 31.3221 105.132 29.9375C105.073 28.5781 105.049 26.9143 105.049 25.0969H103.049ZM103.716 32.3678C103.494 32.5954 102.99 32.8577 102.167 33.067C101.381 33.2669 100.441 33.3851 99.5029 33.428C98.566 33.4708 97.6674 33.437 96.9716 33.3486C96.622 33.3042 96.3464 33.2489 96.1525 33.1918C95.9151 33.1218 95.9331 33.0872 96.0197 33.1738L94.6055 34.588C94.8961 34.8786 95.2996 35.0255 95.5872 35.1102C95.9184 35.2078 96.3073 35.2803 96.7197 35.3327C97.5479 35.4379 98.5632 35.473 99.5943 35.4259C100.624 35.3788 101.706 35.2479 102.66 35.0053C103.577 34.7722 104.531 34.3984 105.15 33.762L103.716 32.3678ZM96.0197 33.1738C96.1464 33.3005 96.1911 33.4221 96.1912 33.4224C96.1999 33.4438 96.1979 33.4441 96.1894 33.4097C96.1727 33.3422 96.1504 33.2227 96.1262 33.0389C96.0783 32.6764 96.034 32.1547 95.9952 31.4907C95.9177 30.1681 95.8655 28.3509 95.8385 26.266C95.7847 22.099 95.8326 16.9063 95.9761 12.5539L93.9772 12.488C93.8326 16.8715 93.7845 22.0948 93.8387 26.2918C93.8658 28.3889 93.9185 30.2407 93.9986 31.6076C94.0384 32.2884 94.0861 32.8665 94.1434 33.3007C94.1717 33.5153 94.2054 33.7183 94.248 33.8903C94.2691 33.9756 94.2976 34.0748 94.3376 34.1735C94.369 34.2511 94.4458 34.4283 94.6055 34.588L96.0197 33.1738ZM94.9766 11.5209H94.8326V13.5209H94.9766V11.5209ZM94.8326 11.5209C95.1604 11.5209 95.3511 11.7018 95.4004 11.7559C95.449 11.8094 95.4487 11.8314 95.4196 11.765C95.3642 11.6391 95.2925 11.4005 95.219 11.0352C95.0755 10.3217 94.9651 9.33309 94.8943 8.3005C94.8239 7.27389 94.795 6.23987 94.8065 5.44798C94.8123 5.04937 94.8282 4.73034 94.8508 4.51117C94.8624 4.39897 94.8734 4.33723 94.8789 4.31365C94.8817 4.30134 94.8783 4.32066 94.8634 4.35786C94.8559 4.37673 94.8063 4.50548 94.6757 4.63602L93.2615 3.2218C93.107 3.37634 93.0347 3.54437 93.0058 3.61683C92.9695 3.70761 92.946 3.79482 92.9301 3.86372C92.8981 4.00256 92.8768 4.15653 92.8614 4.30552C92.8301 4.60873 92.8129 4.99395 92.8067 5.41884C92.7943 6.27396 92.8254 7.36393 92.899 8.43732C92.9722 9.50473 93.0898 10.5921 93.2583 11.4296C93.3408 11.8398 93.446 12.2455 93.5887 12.5699C93.6585 12.7288 93.7625 12.9275 93.9206 13.1014C94.0793 13.2759 94.3849 13.5209 94.8326 13.5209V11.5209ZM94.6757 4.63602C94.5862 4.72554 94.5156 4.75299 94.5599 4.73056C94.5826 4.71904 94.6313 4.69703 94.7138 4.66578C94.8773 4.60383 95.1167 4.52695 95.429 4.44011C96.0501 4.26743 96.9028 4.07107 97.8959 3.88598C99.886 3.51503 102.377 3.20091 104.625 3.20091V1.20091C102.216 1.20091 99.5952 1.53479 97.5294 1.91984C96.4944 2.11275 95.5832 2.32139 94.8932 2.51321C94.5501 2.60862 94.2471 2.70387 94.0053 2.79548C93.8851 2.84101 93.7653 2.89114 93.6568 2.94606C93.5698 2.99008 93.405 3.07828 93.2615 3.2218L94.6757 4.63602ZM103.241 10.0064L103.097 17.7824L105.096 17.8194L105.24 10.0434L103.241 10.0064ZM104.17 18.7982C105.237 18.7201 106.518 18.4619 107.503 17.4287C108.482 16.4008 108.985 14.8007 108.985 12.4729H106.985C106.985 14.5612 106.527 15.553 106.055 16.0491C105.587 16.54 104.924 16.7377 104.024 16.8036L104.17 18.7982ZM108.985 12.4729C108.985 11.4028 108.567 10.5023 107.821 9.88069C107.1 9.27998 106.155 9.00597 105.182 8.97734L105.123 10.9765C105.782 10.9959 106.253 11.1778 106.54 11.4171C106.802 11.6355 106.985 11.959 106.985 12.4729H108.985ZM105.153 8.97691C104.868 8.97691 104.514 8.97569 104.099 9.03496L104.382 11.0149C104.639 10.9781 104.862 10.9769 105.153 10.9769V8.97691ZM126.217 1.96091L126.3 0.964398L126.3 0.964364L126.217 1.96091ZM135.961 2.77691L136.051 1.78099L136.044 1.7804L135.961 2.77691ZM136.969 3.73691L137.955 3.5693L137.953 3.55802L136.969 3.73691ZM134.473 34.5529L134.387 33.5566L134.375 33.5576L134.362 33.559L134.473 34.5529ZM133.465 33.8809L132.512 34.1864L132.516 34.1971L133.465 33.8809ZM131.737 24.4249L132.728 24.2941L132.613 23.4249H131.737V24.4249ZM128.473 25.1449L129.454 25.3377L129.461 25.3035L129.465 25.2689L128.473 25.1449ZM127.849 28.7449L128.839 28.8863L128.841 28.868L128.843 28.8496L127.849 28.7449ZM127.513 32.7769V33.7769H128.451L128.511 32.8403L127.513 32.7769ZM118.729 32.2009L117.735 32.3127L117.785 32.7589L118.152 33.0179L118.729 32.2009ZM124.969 2.77691L125.897 3.14987L125.903 3.13436L125.909 3.11865L124.969 2.77691ZM131.161 19.1449L130.173 19.3032L130.174 19.3093L131.161 19.1449ZM129.961 11.6569L130.948 11.4987L128.974 11.4945L129.961 11.6569ZM128.713 19.2409L129.693 19.437L129.697 19.4202L129.699 19.4033L128.713 19.2409ZM126.133 2.95742L135.877 3.77342L136.044 1.7804L126.3 0.964398L126.133 2.95742ZM135.87 3.7728C135.892 3.77482 135.905 3.7795 135.912 3.78265C135.919 3.78586 135.926 3.79005 135.932 3.79631C135.944 3.80773 135.971 3.84144 135.985 3.9158L137.953 3.55802C137.784 2.63328 137.071 1.87373 136.051 1.78102L135.87 3.7728ZM135.983 3.90451C136.39 6.29847 137.505 13.1697 138.519 19.5831C139.026 22.7892 139.507 25.8778 139.861 28.2329C140.038 29.4109 140.183 30.4023 140.284 31.132C140.334 31.4973 140.373 31.7929 140.398 32.0116C140.427 32.2564 140.433 32.3467 140.433 32.3449H142.433C142.433 32.2052 142.41 31.9886 142.385 31.7772C142.357 31.5398 142.316 31.2296 142.265 30.8591C142.163 30.1172 142.016 29.1162 141.839 27.9354C141.484 25.573 141.002 22.4787 140.494 19.2708C139.48 12.8561 138.364 5.97535 137.955 3.56931L135.983 3.90451ZM140.433 32.3449C140.433 32.0573 140.57 31.881 140.603 31.8407C140.644 31.791 140.667 31.7811 140.632 31.8058C140.564 31.8531 140.42 31.9325 140.182 32.0365C139.716 32.2395 139.049 32.4673 138.301 32.6875C136.788 33.1323 135.125 33.4933 134.387 33.5566L134.558 35.5493C135.5 35.4685 137.317 35.0615 138.865 34.6063C139.646 34.3765 140.404 34.1214 140.981 33.8698C141.264 33.7466 141.546 33.6059 141.773 33.4479C141.886 33.3699 142.024 33.2611 142.143 33.1171C142.255 32.9824 142.433 32.7165 142.433 32.3449H140.433ZM134.362 33.559C134.382 33.5568 134.397 33.5591 134.406 33.5613C134.414 33.5634 134.416 33.5655 134.415 33.5649C134.415 33.5643 134.413 33.5631 134.412 33.5619C134.412 33.561 134.412 33.5618 134.413 33.5647L132.516 34.1971C132.799 35.0455 133.651 35.6504 134.583 35.5468L134.362 33.559ZM134.417 33.5755C134.036 32.3878 133.614 30.1002 133.282 28.0397C133.118 27.0242 132.98 26.0869 132.882 25.4032C132.833 25.0616 132.795 24.7836 132.768 24.5914C132.755 24.4952 132.745 24.4206 132.738 24.3701C132.735 24.3449 132.732 24.3257 132.731 24.3129C132.73 24.3065 132.729 24.3017 132.729 24.2986C132.729 24.297 132.728 24.2958 132.728 24.2951C132.728 24.2947 132.728 24.2945 132.728 24.2943C132.728 24.2942 132.728 24.2942 132.728 24.2941C132.728 24.2941 132.728 24.2941 131.737 24.4249C130.745 24.5557 130.745 24.5558 130.745 24.5559C130.745 24.5559 130.745 24.556 130.745 24.5562C130.745 24.5564 130.745 24.5568 130.746 24.5572C130.746 24.5582 130.746 24.5595 130.746 24.5613C130.747 24.5648 130.747 24.57 130.748 24.5767C130.75 24.5902 130.753 24.6102 130.756 24.6362C130.763 24.6882 130.773 24.7645 130.787 24.8624C130.814 25.0581 130.853 25.34 130.902 25.6861C131.001 26.3779 131.141 27.3276 131.308 28.3581C131.635 30.3897 132.077 32.83 132.513 34.1863L134.417 33.5755ZM131.737 23.4249H129.241V25.4249H131.737V23.4249ZM129.241 23.4249C128.198 23.4249 127.577 24.25 127.48 25.0209L129.465 25.2689C129.464 25.2798 129.457 25.3105 129.42 25.348C129.4 25.3682 129.371 25.3889 129.335 25.4042C129.299 25.4198 129.265 25.4249 129.241 25.4249V23.4249ZM128.473 25.1449C127.492 24.9522 127.492 24.9522 127.491 24.9522C127.491 24.9523 127.491 24.9523 127.491 24.9523C127.491 24.9524 127.491 24.9526 127.491 24.9528C127.491 24.9531 127.491 24.9537 127.491 24.9543C127.491 24.9557 127.49 24.9577 127.49 24.9604C127.489 24.9656 127.487 24.9734 127.485 24.9835C127.481 25.0038 127.476 25.0335 127.468 25.0715C127.453 25.1475 127.432 25.2569 127.407 25.391C127.355 25.6591 127.286 26.0263 127.213 26.4227C127.071 27.1983 126.907 28.1386 126.854 28.6402L128.843 28.8496C128.886 28.4392 129.034 27.5795 129.18 26.7831C129.252 26.3935 129.32 26.0318 129.371 25.7673C129.396 25.6351 129.417 25.5274 129.432 25.4529C129.439 25.4156 129.444 25.3867 129.448 25.3671C129.45 25.3573 129.452 25.3499 129.453 25.3449C129.453 25.3425 129.453 25.3406 129.454 25.3394C129.454 25.3388 129.454 25.3383 129.454 25.338C129.454 25.3379 129.454 25.3378 129.454 25.3377C129.454 25.3377 129.454 25.3377 129.454 25.3377C129.454 25.3377 129.454 25.3377 128.473 25.1449ZM126.859 28.6035C126.781 29.1474 126.695 30.1915 126.63 31.0643C126.596 31.5083 126.568 31.9203 126.547 32.2211C126.537 32.3716 126.529 32.4945 126.523 32.5798C126.521 32.6225 126.518 32.6558 126.517 32.6785C126.516 32.6898 126.516 32.6985 126.515 32.7044C126.515 32.7074 126.515 32.7096 126.515 32.7111C126.515 32.7119 126.515 32.7125 126.515 32.7129C126.515 32.7131 126.515 32.7132 126.515 32.7134C126.515 32.7134 126.515 32.7135 126.515 32.7135C126.515 32.7135 126.515 32.7135 127.513 32.7769C128.511 32.8403 128.511 32.8403 128.511 32.8403C128.511 32.8402 128.511 32.8402 128.511 32.8402C128.511 32.8401 128.511 32.84 128.511 32.8398C128.511 32.8395 128.511 32.839 128.511 32.8383C128.511 32.8369 128.511 32.8348 128.511 32.832C128.512 32.8264 128.512 32.818 128.513 32.8069C128.514 32.7848 128.516 32.7522 128.519 32.7102C128.525 32.6262 128.533 32.5049 128.543 32.3562C128.563 32.0585 128.591 31.6515 128.624 31.2135C128.691 30.3223 128.772 29.3504 128.839 28.8863L126.859 28.6035ZM127.513 32.7769C127.513 31.7769 127.513 31.7769 127.513 31.7769C127.513 31.7769 127.513 31.7769 127.513 31.7769C127.512 31.7769 127.512 31.7769 127.512 31.7769C127.511 31.7769 127.509 31.7769 127.508 31.7769C127.504 31.7769 127.498 31.7769 127.491 31.7769C127.476 31.7769 127.454 31.7768 127.425 31.7768C127.368 31.7766 127.283 31.7764 127.174 31.7758C126.956 31.7747 126.644 31.7725 126.267 31.768C125.512 31.759 124.498 31.7412 123.461 31.7055C122.421 31.6697 121.371 31.6165 120.539 31.5383C120.121 31.499 119.777 31.4551 119.524 31.4079C119.397 31.3843 119.309 31.3628 119.255 31.3462C119.183 31.3241 119.225 31.3274 119.305 31.3839L118.152 33.0179C118.334 33.1464 118.535 33.2172 118.669 33.2584C118.821 33.3051 118.988 33.3427 119.157 33.3741C119.496 33.4372 119.908 33.4878 120.352 33.5295C121.243 33.6133 122.339 33.6681 123.392 33.7043C124.449 33.7407 125.479 33.7588 126.243 33.7678C126.626 33.7724 126.942 33.7746 127.164 33.7758C127.274 33.7763 127.361 33.7766 127.421 33.7768C127.45 33.7768 127.473 33.7769 127.489 33.7769C127.496 33.7769 127.502 33.7769 127.506 33.7769C127.508 33.7769 127.51 33.7769 127.511 33.7769C127.512 33.7769 127.512 33.7769 127.512 33.7769C127.512 33.7769 127.513 33.7769 127.513 33.7769C127.513 33.7769 127.513 33.7769 127.513 32.7769ZM119.722 32.0891C119.681 31.7202 119.697 31.0657 119.787 30.1311C119.876 29.2169 120.028 28.0972 120.232 26.8307C120.639 24.2989 121.244 21.2192 121.926 18.0983C123.296 11.824 124.949 5.50833 125.897 3.14987L124.041 2.40395C123.021 4.94149 121.338 11.4179 119.972 17.6715C119.285 20.8146 118.672 23.9329 118.257 26.5132C118.05 27.8027 117.891 28.9674 117.797 29.9387C117.705 30.8896 117.669 31.7217 117.735 32.3127L119.722 32.0891ZM125.909 3.11865C125.936 3.04332 125.975 3.00405 126.003 2.98496C126.029 2.96778 126.068 2.95198 126.134 2.95746L126.3 0.964364C125.244 0.876341 124.364 1.51278 124.029 2.43517L125.909 3.11865ZM129.097 20.6729H130.729V18.6729H129.097V20.6729ZM130.729 20.6729C131.677 20.6729 132.29 19.836 132.147 18.9805L130.174 19.3093C130.155 19.1903 130.179 19.0281 130.295 18.8863C130.413 18.7408 130.582 18.6729 130.729 18.6729V20.6729ZM132.148 18.9867L130.948 11.4987L128.973 11.8151L130.173 19.3031L132.148 18.9867ZM128.974 11.4945L127.726 19.0785L129.699 19.4033L130.947 11.8193L128.974 11.4945ZM127.732 19.0448C127.537 20.0217 128.352 20.6729 129.097 20.6729V18.6729C129.242 18.6729 129.405 18.7314 129.532 18.8686C129.668 19.0169 129.734 19.2312 129.693 19.437L127.732 19.0448ZM161.257 23.3209L160.796 22.4335L159.677 23.0146L160.497 23.9717L161.257 23.3209ZM168.649 30.6649H169.649V29.6649H168.649V30.6649ZM154.297 27.2089L155.11 26.6265L153.24 24.0162L153.297 27.2268L154.297 27.2089ZM154.681 33.0649L155.398 33.762L155.781 33.3679L155.654 32.8333L154.681 33.0649ZM145.561 33.8809L144.854 34.588L145.561 33.8809ZM145.225 12.5209L146.224 12.5539L146.258 11.5209H145.225V12.5209ZM144.217 3.92891L143.51 3.2218V3.2218L144.217 3.92891ZM154.489 10.0249L154.347 9.03496L153.505 9.15534L153.489 10.0064L154.489 10.0249ZM154.345 17.8009L153.345 17.7824L153.325 18.8782L154.418 18.7982L154.345 17.8009ZM155.401 9.97691L155.43 8.97734L155.415 8.97691H155.401V9.97691ZM154.873 3.20091C161.697 3.20091 166.401 7.72144 166.401 12.9529H168.401C168.401 6.37638 162.545 1.20091 154.873 1.20091V3.20091ZM166.401 12.9529C166.401 17.6471 164.179 20.6758 160.796 22.4335L161.718 24.2083C165.726 22.126 168.401 18.4348 168.401 12.9529H166.401ZM160.497 23.9717C161.482 25.1202 163.014 26.9935 164.452 28.5528C165.172 29.334 165.897 30.0681 166.547 30.6138C166.871 30.8859 167.199 31.1312 167.517 31.3133C167.81 31.4814 168.21 31.6649 168.649 31.6649V29.6649C168.739 29.6649 168.711 29.6924 168.512 29.5783C168.337 29.4783 168.11 29.3152 167.833 29.0825C167.281 28.6187 166.623 27.9578 165.922 27.197C164.516 25.6723 163.048 23.8736 162.016 22.6701L160.497 23.9717ZM167.649 30.6649C167.649 30.6021 167.665 30.636 167.582 30.7962C167.507 30.9406 167.382 31.1283 167.201 31.3511C166.839 31.7957 166.316 32.3041 165.71 32.7866C165.105 33.2681 164.447 33.701 163.829 34.0087C163.19 34.327 162.685 34.4649 162.361 34.4649V36.4649C163.14 36.4649 163.974 36.1708 164.72 35.7991C165.488 35.4168 166.264 34.9017 166.956 34.3512C167.646 33.8017 168.28 33.1941 168.753 32.6127C168.989 32.3225 169.2 32.0197 169.357 31.7179C169.505 31.4318 169.649 31.0637 169.649 30.6649H167.649ZM162.361 34.4649C162.403 34.4649 162.337 34.4731 162.124 34.3596C161.929 34.2555 161.681 34.0872 161.383 33.8478C160.789 33.3699 160.085 32.6804 159.334 31.8656C157.839 30.2409 156.244 28.2104 155.11 26.6265L153.484 27.7913C154.653 29.4234 156.299 31.521 157.863 33.2202C158.643 34.0674 159.424 34.8389 160.13 35.4065C160.482 35.6899 160.838 35.9404 161.184 36.1245C161.511 36.2992 161.922 36.4649 162.361 36.4649V34.4649ZM153.297 27.2268C153.321 28.5754 153.357 29.8037 153.419 30.8267C153.479 31.8312 153.566 32.7 153.708 33.2965L155.654 32.8333C155.556 32.4219 155.475 31.7067 155.415 30.7071C155.356 29.7261 155.32 28.5305 155.297 27.1911L153.297 27.2268ZM153.964 32.3678C153.743 32.5954 153.239 32.8577 152.415 33.067C151.629 33.2669 150.689 33.3851 149.751 33.428C148.814 33.4708 147.915 33.437 147.22 33.3486C146.87 33.3042 146.594 33.2489 146.401 33.1918C146.163 33.1218 146.181 33.0872 146.268 33.1738L144.854 34.588C145.144 34.8786 145.548 35.0255 145.835 35.1102C146.166 35.2078 146.555 35.2803 146.968 35.3327C147.796 35.4379 148.811 35.473 149.842 35.4259C150.872 35.3788 151.954 35.2479 152.908 35.0053C153.825 34.7722 154.779 34.3984 155.398 33.762L153.964 32.3678ZM146.268 33.1738C146.395 33.3005 146.439 33.4221 146.439 33.4224C146.448 33.4438 146.446 33.4441 146.438 33.4097C146.421 33.3422 146.399 33.2227 146.374 33.0389C146.326 32.6764 146.282 32.1547 146.243 31.4907C146.166 30.1681 146.114 28.3509 146.087 26.266C146.033 22.099 146.081 16.9063 146.224 12.5539L144.225 12.488C144.081 16.8715 144.033 22.0948 144.087 26.2918C144.114 28.3889 144.167 30.2407 144.247 31.6076C144.287 32.2884 144.334 32.8665 144.391 33.3007C144.42 33.5153 144.454 33.7183 144.496 33.8903C144.517 33.9756 144.546 34.0748 144.586 34.1735C144.617 34.2511 144.694 34.4283 144.854 34.588L146.268 33.1738ZM145.225 11.5209H145.081V13.5209H145.225V11.5209ZM145.081 11.5209C145.408 11.5209 145.599 11.7018 145.648 11.7559C145.697 11.8094 145.697 11.8314 145.668 11.765C145.612 11.6391 145.541 11.4005 145.467 11.0352C145.324 10.3217 145.213 9.33309 145.142 8.3005C145.072 7.27389 145.043 6.23987 145.055 5.44798C145.06 5.04937 145.076 4.73034 145.099 4.51117C145.111 4.39897 145.122 4.33723 145.127 4.31365C145.13 4.30134 145.126 4.32066 145.112 4.35786C145.104 4.37673 145.054 4.50548 144.924 4.63602L143.51 3.2218C143.355 3.37634 143.283 3.54437 143.254 3.61683C143.218 3.70761 143.194 3.79482 143.178 3.86372C143.146 4.00256 143.125 4.15653 143.11 4.30552C143.078 4.60873 143.061 4.99395 143.055 5.41884C143.042 6.27396 143.073 7.36393 143.147 8.43732C143.22 9.50473 143.338 10.5921 143.506 11.4296C143.589 11.8398 143.694 12.2455 143.837 12.5699C143.907 12.7288 144.011 12.9275 144.169 13.1014C144.327 13.2759 144.633 13.5209 145.081 13.5209V11.5209ZM144.924 4.63602C144.834 4.72554 144.764 4.75299 144.808 4.73056C144.831 4.71904 144.879 4.69703 144.962 4.66578C145.125 4.60383 145.365 4.52695 145.677 4.44011C146.298 4.26743 147.151 4.07107 148.144 3.88598C150.134 3.51503 152.626 3.20091 154.873 3.20091V1.20091C152.464 1.20091 149.843 1.53479 147.778 1.91984C146.743 2.11275 145.831 2.32139 145.141 2.51321C144.798 2.60862 144.495 2.70387 144.253 2.79548C144.133 2.84101 144.013 2.89114 143.905 2.94606C143.818 2.99008 143.653 3.07828 143.51 3.2218L144.924 4.63602ZM153.489 10.0064L153.345 17.7824L155.345 17.8194L155.489 10.0434L153.489 10.0064ZM154.418 18.7982C155.485 18.7201 156.766 18.4619 157.751 17.4287C158.73 16.4008 159.233 14.8007 159.233 12.4729H157.233C157.233 14.5612 156.775 15.553 156.303 16.0491C155.835 16.54 155.172 16.7377 154.272 16.8036L154.418 18.7982ZM159.233 12.4729C159.233 11.4028 158.815 10.5023 158.069 9.88069C157.348 9.27998 156.403 9.00597 155.43 8.97734L155.371 10.9765C156.03 10.9959 156.501 11.1778 156.789 11.4171C157.051 11.6355 157.233 11.959 157.233 12.4729H159.233ZM155.401 8.97691C155.116 8.97691 154.762 8.97569 154.347 9.03496L154.63 11.0149C154.887 10.9781 155.11 10.9769 155.401 10.9769V8.97691ZM190.738 2.77691L190.703 3.77629L190.704 3.77632L190.738 2.77691ZM190.93 7.33691L190.986 6.33845L190.958 6.33691H190.93V7.33691ZM186.419 7.38491L186.398 6.38511L185.447 6.40413L185.419 7.35507L186.419 7.38491ZM186.514 32.2969L187.211 33.0142L187.611 32.6258L187.491 32.0815L186.514 32.2969ZM176.962 33.9289L177.691 33.2435L177.667 33.2179L177.641 33.1941L176.962 33.9289ZM176.674 7.52891L177.673 7.58209L177.73 6.5099L176.657 6.52907L176.674 7.52891ZM171.634 7.57691L171.098 8.42057L171.269 8.52985L171.47 8.56331L171.634 7.57691ZM171.154 3.11291L171.64 3.98707L171.648 3.98277L171.656 3.97834L171.154 3.11291ZM190.704 3.77632C190.391 3.76553 190.412 3.4973 190.533 3.84487C190.63 4.12549 190.689 4.56909 190.681 5.07712C190.673 5.57883 190.602 6.04659 190.506 6.3541C190.456 6.51499 190.418 6.56919 190.424 6.56094C190.43 6.55367 190.47 6.49931 190.559 6.44449C190.657 6.3835 190.806 6.32845 190.986 6.33845L190.875 8.33537C191.476 8.36876 191.858 7.98539 192.031 7.75251C192.215 7.50388 192.334 7.20933 192.416 6.94872C192.582 6.41324 192.67 5.747 192.68 5.1087C192.69 4.47673 192.626 3.77433 192.422 3.18795C192.241 2.66852 191.782 1.81229 190.773 1.7775L190.704 3.77632ZM190.93 6.33691C190.639 6.33691 188.808 6.33692 186.398 6.38511L186.438 8.38471C188.829 8.3369 190.646 8.33691 190.93 8.33691V6.33691ZM185.419 7.35507C185.323 10.571 185.167 15.9926 185.125 21.0205C185.103 23.5338 185.111 25.9569 185.169 27.961C185.226 29.9317 185.334 31.5891 185.538 32.5123L187.491 32.0815C187.335 31.3727 187.227 29.9041 187.168 27.9028C187.111 25.9349 187.104 23.54 187.124 21.0373C187.166 16.0332 187.322 10.6309 187.418 7.41475L185.419 7.35507ZM185.818 31.5796C185.573 31.8169 185.005 32.1176 184.116 32.4029C183.266 32.6754 182.253 32.8943 181.251 33.0415C180.248 33.1889 179.292 33.2595 178.559 33.2478C178.189 33.2419 177.906 33.2155 177.715 33.1783C177.619 33.1598 177.57 33.1429 177.554 33.1365C177.529 33.1263 177.602 33.1492 177.691 33.2435L176.234 34.6143C176.419 34.8106 176.637 34.9228 176.801 34.9894C176.975 35.0599 177.159 35.1076 177.334 35.1417C177.685 35.2097 178.096 35.2407 178.527 35.2475C179.394 35.2614 180.463 35.1789 181.542 35.0203C182.622 34.8615 183.748 34.6214 184.727 34.3074C185.666 34.0062 186.616 33.5929 187.211 33.0142L185.818 31.5796ZM177.641 33.1941C177.739 33.2852 177.791 33.373 177.81 33.4077C177.832 33.4485 177.843 33.4771 177.845 33.483C177.849 33.4935 177.842 33.4771 177.83 33.4178C177.805 33.3025 177.777 33.1169 177.747 32.8518C177.689 32.3274 177.637 31.5808 177.592 30.6535C177.503 28.8041 177.446 26.2973 177.422 23.5462C177.375 18.0419 177.459 11.6089 177.673 7.58209L175.676 7.47573C175.458 11.5609 175.374 18.0399 175.423 23.5636C175.447 26.3265 175.504 28.8627 175.595 30.7498C175.64 31.6908 175.694 32.4858 175.759 33.072C175.791 33.3621 175.829 33.6241 175.874 33.8354C175.896 33.9395 175.925 34.0562 175.966 34.1681C175.992 34.2401 176.077 34.4726 176.284 34.6637L177.641 33.1941ZM176.657 6.52907C175.309 6.55314 174.126 6.57704 173.241 6.589C172.798 6.59498 172.437 6.59787 172.171 6.59643C171.861 6.59474 171.773 6.58624 171.799 6.59052L171.47 8.56331C171.64 8.59159 171.918 8.59508 172.16 8.5964C172.446 8.59795 172.823 8.59484 173.268 8.58882C174.159 8.57678 175.352 8.55268 176.692 8.52875L176.657 6.52907ZM172.171 6.73325C172.174 6.7352 172.058 6.64072 171.923 6.29786C171.801 5.98748 171.711 5.58839 171.67 5.17462C171.628 4.75792 171.643 4.38151 171.697 4.11525C171.766 3.77296 171.837 3.87776 171.64 3.98707L170.669 2.23875C170.04 2.58806 169.823 3.28686 169.736 3.72157C169.634 4.23231 169.624 4.8159 169.679 5.3712C169.734 5.92944 169.86 6.51434 170.062 7.02896C170.251 7.5111 170.567 8.08263 171.098 8.42057L172.171 6.73325ZM171.656 3.97834C171.563 4.03174 171.525 4.02565 171.657 3.99787C171.755 3.97705 171.901 3.95372 172.098 3.9298C172.492 3.8822 173.032 3.83938 173.696 3.80236C175.022 3.72853 176.786 3.68076 178.745 3.65684C182.661 3.60901 187.313 3.65691 190.703 3.77629L190.774 1.77753C187.348 1.65691 182.664 1.60882 178.72 1.65699C176.749 1.68106 174.952 1.72929 173.585 1.80546C172.903 1.84344 172.314 1.88912 171.858 1.94427C171.631 1.97172 171.422 2.00333 171.243 2.04111C171.097 2.07192 170.86 2.12808 170.653 2.24748L171.656 3.97834ZM218.823 32.5369L219.54 33.234L219.911 32.8526L219.802 32.332L218.823 32.5369ZM209.271 34.2649L209.978 33.5578L209.271 34.2649ZM202.647 16.2169L203.589 15.8796L201.648 16.1869L202.647 16.2169ZM202.407 32.4889H203.407L203.407 32.4806L202.407 32.4889ZM203.127 3.11291H204.127V2.17866L203.195 2.11522L203.127 3.11291ZM203.127 3.16091H202.127V3.29196L202.161 3.41857L203.127 3.16091ZM208.695 21.1129L207.753 21.4473L209.695 21.1071L208.695 21.1129ZM209.511 3.11291L208.804 2.4058V2.4058L209.511 3.11291ZM217.823 3.92891C217.823 4.79099 217.608 10.8467 217.5 17.3161C217.445 20.53 217.418 23.8271 217.459 26.5832C217.499 29.2976 217.605 31.5971 217.845 32.7418L219.802 32.332C219.61 31.4127 219.5 29.3202 219.459 26.5536C219.418 23.8287 219.445 20.5558 219.499 17.3497C219.606 10.9791 219.823 4.79483 219.823 3.92891H217.823ZM218.106 31.8398C217.863 32.09 217.301 32.4013 216.416 32.6947C215.569 32.9751 214.558 33.1979 213.557 33.348C212.556 33.498 211.598 33.5702 210.863 33.562C210.493 33.5578 210.207 33.5334 210.012 33.4981C209.914 33.4804 209.862 33.4639 209.844 33.4569C209.814 33.4456 209.887 33.4661 209.978 33.5578L208.564 34.972C208.752 35.1597 208.97 35.2642 209.13 35.3252C209.301 35.3904 209.482 35.4346 209.655 35.466C210.002 35.5289 210.41 35.557 210.84 35.5618C211.706 35.5716 212.773 35.4878 213.854 35.3259C214.934 35.1639 216.062 34.9187 217.045 34.5931C217.988 34.2806 218.944 33.8478 219.54 33.234L218.106 31.8398ZM209.978 33.5578C210.046 33.6255 210.048 33.6546 209.98 33.53C209.929 33.4354 209.861 33.2967 209.777 33.1095C209.61 32.7368 209.4 32.2224 209.156 31.5904C208.668 30.3291 208.06 28.6472 207.406 26.7978C206.107 23.1212 204.619 18.7537 203.589 15.8796L201.706 16.5542C202.74 19.4401 204.204 23.7367 205.52 27.4641C206.175 29.3166 206.791 31.0217 207.29 32.3119C207.539 32.9557 207.764 33.5081 207.952 33.9284C208.046 34.1377 208.137 34.3269 208.222 34.4837C208.291 34.6104 208.407 34.8143 208.564 34.972L209.978 33.5578ZM201.648 16.1869C201.504 20.9893 201.359 26.6691 201.407 32.4972L203.407 32.4806C203.359 26.6927 203.503 21.0445 203.647 16.2469L201.648 16.1869ZM201.407 32.4889C201.407 32.1447 201.586 31.9307 201.639 31.8718C201.706 31.7982 201.762 31.7633 201.765 31.7614C201.776 31.7546 201.744 31.7747 201.64 31.8172C201.442 31.8973 201.128 32.0001 200.713 32.1162C199.893 32.3457 198.782 32.5989 197.664 32.8079C196.54 33.0178 195.446 33.176 194.65 33.2256C194.241 33.2511 193.972 33.2434 193.831 33.2219C193.752 33.2096 193.797 33.2049 193.89 33.2581C194.003 33.3237 194.287 33.5522 194.287 33.9769H192.287C192.287 34.5216 192.643 34.8476 192.89 34.9904C193.116 35.1206 193.357 35.1725 193.527 35.1986C193.886 35.2538 194.329 35.2495 194.775 35.2217C195.689 35.1648 196.874 34.99 198.031 34.7739C199.192 34.5569 200.362 34.2912 201.252 34.0422C201.692 33.919 202.09 33.7926 202.391 33.6705C202.536 33.6118 202.701 33.5374 202.845 33.445C202.914 33.4003 203.022 33.3247 203.123 33.213C203.211 33.1159 203.407 32.8661 203.407 32.4889H201.407ZM194.287 33.9769C194.287 33.5371 194.455 26.8291 194.623 19.9072C194.791 13.0132 194.959 5.91298 194.959 4.74491H192.959C192.959 5.88084 192.792 12.9406 192.624 19.8586C192.456 26.7487 192.287 33.5047 192.287 33.9769H194.287ZM194.959 4.74491C194.959 4.85447 194.886 4.88072 194.975 4.81053C195.083 4.72449 195.304 4.60888 195.68 4.49571C196.423 4.27204 197.473 4.14325 198.598 4.0814C199.707 4.02044 200.824 4.02746 201.668 4.05029C202.089 4.06168 202.439 4.07691 202.683 4.08923C202.805 4.09539 202.9 4.10082 202.965 4.10467C202.997 4.10659 203.021 4.10812 203.037 4.10914C203.045 4.10965 203.051 4.11004 203.055 4.11029C203.057 4.11041 203.058 4.1105 203.059 4.11055C203.059 4.11058 203.059 4.1106 203.06 4.11061C203.06 4.11061 203.06 4.11061 203.06 4.11061C203.06 4.11061 203.059 4.1106 203.127 3.11291C203.195 2.11522 203.195 2.11521 203.195 2.11519C203.195 2.11519 203.195 2.11517 203.194 2.11516C203.194 2.11513 203.193 2.11509 203.193 2.11504C203.191 2.11494 203.189 2.11481 203.187 2.11464C203.182 2.11431 203.174 2.11384 203.165 2.11324C203.146 2.11204 203.119 2.11034 203.084 2.10824C203.014 2.10405 202.913 2.09827 202.784 2.09178C202.527 2.07879 202.161 2.06289 201.722 2.05103C200.847 2.02736 199.672 2.01938 198.488 2.08442C197.322 2.14857 196.08 2.28678 195.104 2.58061C194.62 2.7262 194.125 2.93196 193.732 3.2436C193.319 3.5711 192.959 4.07135 192.959 4.74491H194.959ZM202.127 3.11291V3.16091H204.127V3.11291H202.127ZM202.161 3.41857C202.358 4.15756 206.158 16.9521 207.753 21.4473L209.638 20.7785C208.065 16.3457 204.281 3.60426 204.094 2.90325L202.161 3.41857ZM209.695 21.1071C209.671 16.9903 209.731 12.6503 209.869 9.27351C209.937 7.58283 210.025 6.14762 210.129 5.10719C210.182 4.58423 210.236 4.18206 210.29 3.90487C210.318 3.76465 210.341 3.67963 210.355 3.63666C210.384 3.55049 210.36 3.67846 210.218 3.82002L208.804 2.4058C208.591 2.61936 208.497 2.88645 208.458 3.00189C208.405 3.16053 208.363 3.3396 208.328 3.52133C208.256 3.88801 208.194 4.36109 208.139 4.90763C208.029 6.0062 207.939 7.487 207.87 9.19231C207.731 12.6075 207.671 16.9795 207.695 21.1187L209.695 21.1071ZM210.218 3.82002C210.126 3.91204 210.113 3.8606 210.408 3.80224C210.655 3.75358 210.999 3.72215 211.431 3.71372C212.29 3.69696 213.371 3.77279 214.444 3.90176C215.515 4.03047 216.542 4.20778 217.288 4.38333C217.667 4.47243 217.941 4.55371 218.104 4.6173C218.193 4.65153 218.202 4.66295 218.172 4.6428C218.158 4.63315 218.093 4.58908 218.023 4.50257C217.954 4.41726 217.823 4.21965 217.823 3.92891H219.823C219.823 3.60217 219.677 3.36715 219.577 3.24322C219.475 3.11808 219.364 3.03417 219.289 2.98364C219.137 2.88174 218.968 2.80729 218.829 2.75303C218.537 2.63961 218.158 2.53339 217.746 2.43649C216.911 2.24004 215.808 2.05135 214.683 1.91606C213.56 1.78104 212.378 1.69486 211.392 1.7141C210.902 1.72367 210.428 1.75974 210.021 1.84008C209.663 1.91072 209.16 2.04978 208.804 2.4058L210.218 3.82002ZM232.316 21.0649L232.231 20.0685L231.36 20.1427L231.317 21.0166L232.316 21.0649ZM231.98 28.4089L230.981 28.3826L230.954 29.4089H231.98V28.4089ZM223.148 33.3529L222.411 34.0286L222.708 34.3529H223.148V33.3529ZM222.812 29.3209L223.777 29.584L223.81 29.4647L223.812 29.3411L222.812 29.3209ZM223.388 7.43291L224.388 7.45311L224.409 6.43291H223.388V7.43291ZM222.524 7.43291L221.743 8.05761L222.044 8.43291H222.524V7.43291ZM222.38 2.72891L223.056 3.46607L223.088 3.43669L223.117 3.40464L222.38 2.72891ZM239.372 2.24891L239.431 1.25058L239.42 1.25004L239.372 2.24891ZM239.66 7.04891L239.751 6.05302L239.706 6.04891H239.66V7.04891ZM232.94 7.24091L232.912 6.2413L231.981 6.26718L231.941 7.1984L232.94 7.24091ZM232.556 16.2649L231.557 16.2224L231.511 17.3029L232.592 17.2643L232.556 16.2649ZM236.204 17.1689C236.007 17.1689 235.856 17.0965 235.767 17.0321C235.686 16.9741 235.652 16.922 235.652 16.9219C235.65 16.9182 235.661 16.935 235.682 16.9824C235.701 17.0281 235.724 17.0901 235.748 17.1703C235.849 17.5047 235.931 17.9982 235.976 18.5328C236.02 19.0638 236.024 19.5726 235.991 19.9256C235.984 20.0113 235.974 20.0804 235.965 20.1332C235.955 20.1886 235.948 20.2117 235.948 20.2112C235.948 20.21 235.953 20.1949 235.965 20.1706C235.977 20.1475 236.002 20.1022 236.045 20.0484C236.131 19.9424 236.359 19.7289 236.732 19.7289V21.7289C237.171 21.7289 237.46 21.4798 237.599 21.307C237.733 21.1427 237.803 20.9682 237.841 20.8547C237.922 20.6187 237.961 20.3485 237.983 20.1073C238.029 19.6052 238.02 18.9741 237.969 18.365C237.918 17.7597 237.82 17.1131 237.663 16.5925C237.586 16.3394 237.478 16.0526 237.313 15.8078C237.17 15.594 236.815 15.1689 236.204 15.1689V17.1689ZM236.732 19.7289C236.437 19.7289 234.454 19.8793 232.231 20.0685L232.401 22.0613C233.527 21.9655 234.567 21.8818 235.356 21.8221C235.75 21.7922 236.08 21.7684 236.324 21.7522C236.447 21.7441 236.546 21.738 236.62 21.734C236.703 21.7296 236.733 21.7289 236.732 21.7289V19.7289ZM231.317 21.0166C231.174 23.9775 231.029 26.5439 230.981 28.3826L232.98 28.4352C233.028 26.6259 233.17 24.1043 233.315 21.1132L231.317 21.0166ZM231.98 29.4089H237.98V27.4089H231.98V29.4089ZM237.98 29.4089C237.786 29.4089 237.637 29.3383 237.547 29.2744C237.466 29.217 237.432 29.1649 237.431 29.1639C237.428 29.1595 237.439 29.1752 237.459 29.2215C237.478 29.266 237.501 29.3268 237.525 29.4056C237.625 29.7347 237.707 30.2214 237.752 30.7497C237.796 31.2742 237.8 31.7764 237.767 32.1241C237.76 32.2085 237.751 32.2763 237.741 32.3279C237.732 32.382 237.724 32.4039 237.725 32.4022C237.725 32.4004 237.731 32.3848 237.743 32.36C237.755 32.3364 237.78 32.2908 237.824 32.2369C237.912 32.1299 238.14 31.9209 238.508 31.9209V33.9209C238.943 33.9209 239.231 33.6767 239.372 33.5036C239.506 33.3396 239.577 33.1653 239.616 33.0519C239.697 32.8162 239.737 32.5471 239.759 32.3077C239.805 31.8094 239.796 31.1836 239.745 30.5801C239.694 29.9804 239.595 29.3391 239.438 28.8222C239.361 28.5709 239.252 28.2854 239.087 28.0417C238.941 27.8269 238.586 27.4089 237.98 27.4089V29.4089ZM238.508 31.9209C238.225 31.9209 234.49 32.0299 230.799 32.1373C228.945 32.1913 227.091 32.2453 225.668 32.2858C224.957 32.3061 224.353 32.3229 223.912 32.3347C223.691 32.3406 223.511 32.3452 223.378 32.3483C223.312 32.3499 223.259 32.3511 223.218 32.3519C223.198 32.3522 223.182 32.3525 223.169 32.3527C223.163 32.3528 223.158 32.3528 223.154 32.3529C223.152 32.3529 223.151 32.3529 223.15 32.3529C223.149 32.3529 223.148 32.3529 223.148 32.3529V34.3529C223.432 34.3529 227.167 34.244 230.857 34.1365C232.711 34.0825 234.565 34.0285 235.988 33.988C236.7 33.9678 237.303 33.9509 237.745 33.9391C237.966 33.9332 238.146 33.9286 238.278 33.9255C238.344 33.9239 238.398 33.9227 238.438 33.922C238.459 33.9216 238.475 33.9213 238.487 33.9211C238.494 33.921 238.499 33.921 238.502 33.921C238.504 33.9209 238.506 33.9209 238.507 33.9209C238.508 33.9209 238.508 33.9209 238.508 33.9209V31.9209ZM223.885 32.6772C223.934 32.7299 223.876 32.6844 223.804 32.3912C223.743 32.1408 223.696 31.814 223.672 31.4499C223.622 30.6985 223.675 29.9597 223.777 29.584L221.847 29.0578C221.662 29.7381 221.619 30.7273 221.676 31.5839C221.706 32.0238 221.765 32.471 221.861 32.8656C221.947 33.2174 222.099 33.6879 222.411 34.0286L223.885 32.6772ZM223.812 29.3411C223.86 26.9701 223.98 22.6911 224.1 18.4049C224.22 14.1231 224.34 9.83406 224.388 7.45311L222.388 7.41271C222.341 9.78376 222.221 14.0627 222.101 18.3489C221.981 22.6307 221.861 26.9198 221.812 29.3007L223.812 29.3411ZM223.388 6.43291H222.524V8.43291H223.388V6.43291ZM223.305 6.80822C223.335 6.84503 223.314 6.83276 223.272 6.71341C223.235 6.60746 223.195 6.4606 223.159 6.27491C223.086 5.90397 223.036 5.44224 223.02 4.97364C223.003 4.50305 223.021 4.06114 223.069 3.72683C223.093 3.55845 223.121 3.44359 223.144 3.37659C223.175 3.28555 223.168 3.36313 223.056 3.46607L221.705 1.99176C221.448 2.22669 221.32 2.52777 221.251 2.72961C221.174 2.95548 221.123 3.20287 221.089 3.44399C221.02 3.92868 221.001 4.49477 221.021 5.04418C221.04 5.59558 221.099 6.16586 221.197 6.66192C221.246 6.90972 221.307 7.15511 221.386 7.37804C221.46 7.58756 221.57 7.8408 221.743 8.05761L223.305 6.80822ZM223.117 3.40464C222.992 3.54143 222.867 3.59154 222.864 3.59291C222.84 3.60324 222.838 3.60167 222.872 3.59269C222.938 3.57506 223.056 3.55118 223.239 3.52482C223.6 3.47287 224.115 3.42461 224.758 3.38169C226.037 3.29622 227.749 3.2366 229.582 3.20072C233.251 3.1289 237.341 3.15333 239.325 3.24778L239.42 1.25004C237.371 1.15249 233.23 1.12893 229.543 1.2011C227.698 1.23722 225.95 1.2976 224.624 1.38613C223.964 1.43021 223.39 1.48245 222.954 1.54525C222.739 1.57627 222.532 1.61332 222.356 1.66029C222.269 1.6836 222.166 1.71525 222.064 1.75971C221.983 1.79522 221.801 1.88039 221.643 2.05319L223.117 3.40464ZM239.314 3.24719C239.105 3.2349 238.953 3.14529 238.87 3.07496C238.831 3.04156 238.805 3.01192 238.791 2.99421C238.778 2.9763 238.771 2.96512 238.771 2.96459C238.77 2.96378 238.774 2.96953 238.78 2.98359C238.786 2.99746 238.794 3.01697 238.803 3.0429C238.821 3.09556 238.841 3.16529 238.862 3.25334C238.947 3.61896 239.004 4.14863 239.021 4.7149C239.038 5.27768 239.014 5.81594 238.962 6.18871C238.95 6.2795 238.936 6.35314 238.924 6.40995C238.917 6.43802 238.912 6.45966 238.907 6.4755C238.903 6.49167 238.9 6.49866 238.9 6.49823C238.9 6.49778 238.902 6.4944 238.904 6.48857C238.907 6.48279 238.911 6.47339 238.918 6.46116C238.93 6.43928 238.957 6.39398 239.004 6.34052C239.097 6.23543 239.354 6.01691 239.751 6.05302L239.57 8.0448C240.033 8.08691 240.351 7.83651 240.502 7.66636C240.644 7.50521 240.723 7.33 240.766 7.21859C240.856 6.98423 240.909 6.71069 240.943 6.46311C241.015 5.94788 241.039 5.29214 241.02 4.65492C241.001 4.02119 240.937 3.34487 240.81 2.79848C240.747 2.53285 240.656 2.23455 240.51 1.97723C240.389 1.76314 240.061 1.28771 239.431 1.25064L239.314 3.24719ZM239.66 6.04891C239.402 6.04891 236.345 6.14595 232.912 6.2413L232.968 8.24052C234.697 8.1925 236.318 8.14447 237.536 8.10847C238.145 8.09047 238.653 8.07549 239.023 8.06501C239.209 8.05977 239.359 8.05568 239.469 8.05291C239.525 8.05152 239.569 8.05049 239.603 8.04981C239.62 8.04947 239.634 8.04923 239.644 8.04909C239.649 8.04901 239.653 8.04897 239.656 8.04894C239.659 8.04891 239.66 8.04891 239.66 8.04891V6.04891ZM231.941 7.1984L231.557 16.2224L233.555 16.3074L233.939 7.28343L231.941 7.1984ZM232.592 17.2643C233.944 17.216 235.171 17.1689 236.204 17.1689V15.1689C235.126 15.1689 233.856 15.2179 232.521 15.2655L232.592 17.2643ZM259.878 23.3209L259.417 22.4335L258.298 23.0146L259.119 23.9717L259.878 23.3209ZM267.27 30.6649H268.27V29.6649H267.27V30.6649ZM252.918 27.2089L253.731 26.6265L251.861 24.0162L251.918 27.2268L252.918 27.2089ZM253.302 33.0649L254.019 33.762L254.402 33.3679L254.275 32.8333L253.302 33.0649ZM244.182 33.8809L243.475 34.588L244.182 33.8809ZM243.846 12.5209L244.845 12.5539L244.88 11.5209H243.846V12.5209ZM242.838 3.92891L242.131 3.2218V3.2218L242.838 3.92891ZM253.11 10.0249L252.969 9.03496L252.126 9.15534L252.11 10.0064L253.11 10.0249ZM252.966 17.8009L251.966 17.7824L251.946 18.8782L253.039 18.7982L252.966 17.8009ZM254.022 9.97691L254.051 8.97734L254.037 8.97691H254.022V9.97691ZM253.494 3.20091C260.318 3.20091 265.022 7.72144 265.022 12.9529H267.022C267.022 6.37638 261.166 1.20091 253.494 1.20091V3.20091ZM265.022 12.9529C265.022 17.6471 262.801 20.6758 259.417 22.4335L260.339 24.2083C264.347 22.126 267.022 18.4348 267.022 12.9529H265.022ZM259.119 23.9717C260.103 25.1202 261.635 26.9935 263.073 28.5528C263.793 29.334 264.519 30.0681 265.168 30.6138C265.492 30.8859 265.82 31.1312 266.138 31.3133C266.431 31.4814 266.831 31.6649 267.27 31.6649V29.6649C267.361 29.6649 267.332 29.6924 267.133 29.5783C266.958 29.4783 266.731 29.3152 266.455 29.0825C265.902 28.6187 265.245 27.9578 264.543 27.197C263.137 25.6723 261.669 23.8736 260.637 22.6701L259.119 23.9717ZM266.27 30.6649C266.27 30.6021 266.286 30.636 266.203 30.7962C266.128 30.9406 266.003 31.1283 265.822 31.3511C265.461 31.7957 264.937 32.3041 264.331 32.7866C263.726 33.2681 263.068 33.701 262.45 34.0087C261.811 34.327 261.306 34.4649 260.982 34.4649V36.4649C261.762 36.4649 262.595 36.1708 263.342 35.7991C264.11 35.4168 264.886 34.9017 265.577 34.3512C266.267 33.8017 266.901 33.1941 267.374 32.6127C267.61 32.3225 267.821 32.0197 267.978 31.7179C268.126 31.4318 268.27 31.0637 268.27 30.6649H266.27ZM260.982 34.4649C261.025 34.4649 260.959 34.4731 260.746 34.3596C260.55 34.2555 260.302 34.0872 260.004 33.8478C259.41 33.3699 258.706 32.6804 257.956 31.8656C256.46 30.2409 254.866 28.2104 253.731 26.6265L252.105 27.7913C253.274 29.4234 254.92 31.521 256.484 33.2202C257.264 34.0674 258.045 34.8389 258.751 35.4065C259.104 35.6899 259.46 35.9404 259.805 36.1245C260.132 36.2992 260.543 36.4649 260.982 36.4649V34.4649ZM251.918 27.2268C251.942 28.5754 251.979 29.8037 252.04 30.8267C252.1 31.8312 252.187 32.7 252.329 33.2965L254.275 32.8333C254.177 32.4219 254.096 31.7067 254.036 30.7071C253.977 29.7261 253.942 28.5305 253.918 27.1911L251.918 27.2268ZM252.585 32.3678C252.364 32.5954 251.86 32.8577 251.037 33.067C250.251 33.2669 249.31 33.3851 248.372 33.428C247.435 33.4708 246.537 33.437 245.841 33.3486C245.491 33.3042 245.216 33.2489 245.022 33.1918C244.785 33.1218 244.802 33.0872 244.889 33.1738L243.475 34.588C243.766 34.8786 244.169 35.0255 244.457 35.1102C244.788 35.2078 245.177 35.2803 245.589 35.3327C246.417 35.4379 247.433 35.473 248.464 35.4259C249.494 35.3788 250.575 35.2479 251.529 35.0053C252.446 34.7722 253.4 34.3984 254.019 33.762L252.585 32.3678ZM244.889 33.1738C245.016 33.3005 245.06 33.4221 245.061 33.4224C245.069 33.4438 245.067 33.4441 245.059 33.4097C245.042 33.3422 245.02 33.2227 244.996 33.0389C244.948 32.6764 244.903 32.1547 244.865 31.4907C244.787 30.1681 244.735 28.3509 244.708 26.266C244.654 22.099 244.702 16.9063 244.845 12.5539L242.847 12.488C242.702 16.8715 242.654 22.0948 242.708 26.2918C242.735 28.3889 242.788 30.2407 242.868 31.6076C242.908 32.2884 242.955 32.8665 243.013 33.3007C243.041 33.5153 243.075 33.7183 243.117 33.8903C243.138 33.9756 243.167 34.0748 243.207 34.1735C243.238 34.2511 243.315 34.4283 243.475 34.588L244.889 33.1738ZM243.846 11.5209H243.702V13.5209H243.846V11.5209ZM243.702 11.5209C244.03 11.5209 244.221 11.7018 244.27 11.7559C244.318 11.8094 244.318 11.8314 244.289 11.765C244.234 11.6391 244.162 11.4005 244.088 11.0352C243.945 10.3217 243.834 9.33309 243.764 8.3005C243.693 7.27389 243.664 6.23987 243.676 5.44798C243.682 5.04937 243.698 4.73034 243.72 4.51117C243.732 4.39897 243.743 4.33723 243.748 4.31365C243.751 4.30134 243.748 4.32066 243.733 4.35786C243.725 4.37673 243.676 4.50548 243.545 4.63602L242.131 3.2218C241.976 3.37634 241.904 3.54437 241.875 3.61683C241.839 3.70761 241.815 3.79482 241.8 3.86372C241.767 4.00256 241.746 4.15653 241.731 4.30552C241.699 4.60873 241.682 4.99395 241.676 5.41884C241.664 6.27396 241.695 7.36393 241.768 8.43732C241.842 9.50473 241.959 10.5921 242.128 11.4296C242.21 11.8398 242.315 12.2455 242.458 12.5699C242.528 12.7288 242.632 12.9275 242.79 13.1014C242.949 13.2759 243.254 13.5209 243.702 13.5209V11.5209ZM243.545 4.63602C243.456 4.72554 243.385 4.75299 243.429 4.73056C243.452 4.71904 243.501 4.69703 243.583 4.66578C243.747 4.60383 243.986 4.52695 244.298 4.44011C244.919 4.26743 245.772 4.07107 246.765 3.88598C248.755 3.51503 251.247 3.20091 253.494 3.20091V1.20091C251.085 1.20091 248.465 1.53479 246.399 1.91984C245.364 2.11275 244.453 2.32139 243.763 2.51321C243.419 2.60862 243.117 2.70387 242.875 2.79548C242.755 2.84101 242.635 2.89114 242.526 2.94606C242.439 2.99008 242.274 3.07828 242.131 3.2218L243.545 4.63602ZM252.11 10.0064L251.966 17.7824L253.966 17.8194L254.11 10.0434L252.11 10.0064ZM253.039 18.7982C254.106 18.7201 255.388 18.4619 256.372 17.4287C257.351 16.4008 257.854 14.8007 257.854 12.4729H255.854C255.854 14.5612 255.397 15.553 254.924 16.0491C254.456 16.54 253.794 16.7377 252.893 16.8036L253.039 18.7982ZM257.854 12.4729C257.854 11.4028 257.436 10.5023 256.69 9.88069C255.969 9.27998 255.025 9.00597 254.051 8.97734L253.993 10.9765C254.651 10.9959 255.123 11.1778 255.41 11.4171C255.672 11.6355 255.854 11.959 255.854 12.4729H257.854ZM254.022 8.97691C253.737 8.97691 253.383 8.97569 252.969 9.03496L253.251 11.0149C253.509 10.9781 253.731 10.9769 254.022 10.9769V8.97691Z" fill="black"/>
</g>
<defs>
<filter id="filter0_d_36_431" x="0.856445" y="0.144913" width="271.414" height="40.32" filterUnits="userSpaceOnUse" color-interpolation-filters="sRGB">
<feFlood flood-opacity="0" result="BackgroundImageFix"/>
<feColorMatrix in="SourceAlpha" type="matrix" values="0 0 0 0 0 0 0 0 0 0 0 0 0 0 0 0 0 0 127 0" result="hardAlpha"/>
<feOffset dx="4" dy="4"/>
<feComposite in2="hardAlpha" operator="out"/>
<feColorMatrix type="matrix" values="0 0 0 0 0 0 0 0 0 0 0 0 0 0 0 0 0 0 1 0"/>
<feBlend mode="normal" in2="BackgroundImageFix" result="effect1_dropShadow_36_431"/>
<feBlend mode="normal" in="SourceGraphic" in2="effect1_dropShadow_36_431" result="shape"/>
</filter>
</defs>
</svg>
