<svg width="16" height="17" viewBox="0 0 16 17" fill="none" xmlns="http://www.w3.org/2000/svg">
<g clip-path="url(#clip0_36_1310)">
<path fill-rule="evenodd" clip-rule="evenodd" d="M2.97287 7.68143V5.9401C2.97287 4.78611 3.43129 3.67939 4.24728 2.8634C5.06327 2.04741 6.16999 1.58899 7.32398 1.58899C8.47796 1.58899 9.58469 2.04741 10.4007 2.8634C11.2167 3.67939 11.6751 4.78611 11.6751 5.9401V7.68143C12.6369 7.68143 13.4164 8.4601 13.4164 9.42188V13.773C13.416 14.2344 13.2324 14.6769 12.9061 15.0031C12.5798 15.3294 12.1374 15.513 11.676 15.5134H2.97287C2.51142 15.513 2.069 15.3294 1.74271 15.0031C1.41641 14.6769 1.23289 14.2344 1.23242 13.773V9.42188C1.23242 8.4601 2.01109 7.68143 2.97287 7.68143ZM9.93464 5.9401V7.68143H4.71331V5.9401C4.71331 5.24771 4.98836 4.58368 5.47796 4.09408C5.96755 3.60449 6.63159 3.32943 7.32398 3.32943C8.01637 3.32943 8.6804 3.60449 9.17 4.09408C9.65959 4.58368 9.93464 5.24771 9.93464 5.9401Z" fill="black"/>
<path fill-rule="evenodd" clip-rule="evenodd" d="M0.613194 1.33383C0.953638 0.994273 1.70119 1.19161 2.2843 1.77383L14.9421 14.4334C15.5252 15.0156 15.7216 15.7632 15.3821 16.1036C15.0416 16.4432 14.2941 16.2458 13.711 15.6636L1.05408 3.00405C0.470971 2.42183 0.272749 1.67427 0.613194 1.33383Z" fill="black"/>
</g>
<defs>
<clipPath id="clip0_36_1310">
<rect width="16" height="16" fill="white" transform="translate(0 0.71875)"/>
</clipPath>
</defs>
</svg>
