<svg width="16" height="17" viewBox="0 0 16 17" fill="none" xmlns="http://www.w3.org/2000/svg">
<path fill-rule="evenodd" clip-rule="evenodd" d="M4.00137 7.91873V6.31873C4.00137 5.25786 4.42279 4.24044 5.17294 3.4903C5.92309 2.74015 6.9405 2.31873 8.00137 2.31873C9.06223 2.31873 10.0796 2.74015 10.8298 3.4903C11.5799 4.24044 12.0014 5.25786 12.0014 6.31873V7.91873C12.4257 7.91873 12.8327 8.0873 13.1327 8.38735C13.4328 8.68741 13.6014 9.09438 13.6014 9.51873V13.5187C13.6014 13.9431 13.4328 14.35 13.1327 14.6501C12.8327 14.9502 12.4257 15.1187 12.0014 15.1187H4.00137C3.57702 15.1187 3.17005 14.9502 2.87 14.6501C2.56994 14.35 2.40137 13.9431 2.40137 13.5187V9.51873C2.40137 9.09438 2.56994 8.68741 2.87 8.38735C3.17005 8.0873 3.57702 7.91873 4.00137 7.91873ZM10.4014 6.31873V7.91873H5.60137V6.31873C5.60137 6.00355 5.66345 5.69147 5.78406 5.40029C5.90467 5.1091 6.08145 4.84453 6.30431 4.62167C6.52717 4.39881 6.79175 4.22203 7.08293 4.10141C7.37411 3.9808 7.68619 3.91873 8.00137 3.91873C8.31654 3.91873 8.62863 3.9808 8.91981 4.10141C9.21099 4.22203 9.47556 4.39881 9.69842 4.62167C9.92128 4.84453 10.0981 5.1091 10.2187 5.40029C10.3393 5.69147 10.4014 6.00355 10.4014 6.31873Z" fill="black"/>
</svg>
