<svg width="67" height="1311" viewBox="0 0 67 1311" fill="none" xmlns="http://www.w3.org/2000/svg">
<path d="M32 8.07416L32.0001 1302.07" stroke="black" stroke-width="16" stroke-linecap="round"/>
<path d="M32 8.07416L32.0001 1302.07" stroke="#FCCB06" stroke-width="8" stroke-linecap="round"/>
<g filter="url(#filter0_d_36_128)">
<circle cx="32" cy="190.053" r="32" fill="#FFFCF3"/>
<circle cx="32" cy="190.053" r="31.4286" stroke="black" stroke-width="1.14274"/>
</g>
<path d="M30.7793 196.63C30.7793 196.511 30.809 196.363 30.809 196.244C31.0467 193.718 31.1358 191.134 31.1358 188.549C31.1358 187.33 31.1061 186.112 31.0764 184.894C30.7199 185.132 30.1851 185.34 29.5611 185.34C28.5212 185.34 27.5111 184.656 27.5111 183.527C27.5111 183.112 27.6893 182.606 28.1647 182.22C28.343 182.072 28.551 181.982 28.6698 181.893C28.7292 181.864 28.8184 181.834 28.8778 181.834C28.9372 181.804 28.9966 181.774 29.0263 181.745C29.5611 181.388 30.809 180.111 30.9873 179.665C31.1061 179.249 31.3735 178.655 32.0866 178.239C32.562 178.001 33.2156 177.793 33.9584 177.793C35.7411 177.793 37.1672 178.952 37.1672 180.794C37.1672 180.943 37.1375 181.091 37.1375 181.269C36.8998 183.795 36.6918 186.32 36.6918 188.875C36.6918 191.341 36.8701 193.748 37.1375 196.214C37.1672 196.422 37.1672 196.63 37.1672 196.838C37.1672 198.561 35.6222 199.631 34.0178 199.631C32.2649 199.631 30.7793 198.502 30.7793 196.63Z" fill="black"/>
<g filter="url(#filter1_d_36_128)">
<circle cx="32" cy="416.057" r="32" fill="#FFFCF3"/>
<circle cx="32" cy="416.057" r="31.4286" stroke="black" stroke-width="1.14274"/>
</g>
<path d="M24.133 423.194C24.133 422.154 24.8164 421.204 25.5295 420.342C26.5694 419.213 27.8172 418.173 29.0651 417.103C30.2833 416.064 31.5014 415.053 32.4225 413.954C33.0761 413.152 33.908 411.904 33.908 410.834C33.908 409.884 33.0761 409.289 32.1848 409.289C31.5014 409.289 30.5804 409.854 30.5804 410.597C30.5507 410.686 30.5507 410.834 30.5209 410.983C30.3724 412.35 29.3325 412.914 27.9955 412.914C25.6483 412.914 24.9947 411.25 24.9947 410.418C24.9947 408.844 26.7773 406.615 29.2136 405.813C30.0456 405.546 30.9963 405.397 31.9471 405.397C35.1856 405.397 39.1075 406.853 39.1075 410.656C39.1075 414.459 36.6117 417.252 32.5116 419.985C32.0956 420.253 31.4123 420.669 30.8775 421.114C30.313 421.53 29.9861 421.917 29.9861 422.214C29.9861 422.63 30.4021 422.838 31.2637 422.838C32.6899 422.838 34.5914 422.184 35.7501 421.53C35.9581 421.441 36.1958 421.322 36.4929 421.204C36.79 421.085 37.1465 420.996 37.5625 420.996C38.8995 420.996 39.7017 421.976 39.7017 423.254C39.7017 424.175 39.256 425.363 38.2161 426.136C36.8791 427.116 34.5319 427.235 32.8681 427.235C29.0057 427.235 24.133 426.195 24.133 423.194Z" fill="black"/>
<g filter="url(#filter2_d_36_128)">
<circle cx="32" cy="880.008" r="32" fill="#FFFCF3"/>
<circle cx="32" cy="880.008" r="31.4286" stroke="black" stroke-width="1.14274"/>
</g>
<path d="M24.8043 886.388C24.8043 885.998 24.8943 885.398 25.2243 884.918C25.5243 884.408 26.1843 883.898 27.3543 883.898C28.6143 883.898 29.7543 884.228 30.3243 885.398C30.3843 885.608 30.4743 885.818 30.5643 886.028C30.6543 886.208 30.7443 886.418 30.8343 886.538C30.9243 886.688 31.0143 886.778 31.0443 886.778C31.1043 886.838 31.1343 886.838 31.2843 886.838C32.8443 886.838 34.1343 885.338 34.1343 883.808C34.1343 882.578 33.2943 881.258 31.4343 881.258C30.8043 881.258 30.2643 881.408 29.5743 881.558C29.4243 881.618 29.2143 881.618 28.9743 881.618C27.9843 881.618 26.9943 880.928 26.9943 879.848C26.9943 879.578 27.0843 879.278 27.2043 879.068C27.3843 878.678 27.6843 878.378 28.1643 878.138C29.6643 877.418 32.7843 874.598 32.7843 873.098C32.7843 872.888 32.7243 872.828 32.2443 872.828C31.5843 872.828 31.1643 873.068 30.8043 873.578C30.6243 873.848 30.5043 874.118 30.3543 874.388C30.2643 874.658 30.1143 874.958 29.9043 875.198C29.6943 875.468 29.0643 876.068 28.0743 876.068C27.2943 876.068 26.5143 875.498 26.2143 874.808C25.9743 874.358 25.8843 873.848 25.8843 873.488C25.8843 872.978 26.0043 872.438 26.3943 871.958C27.3243 870.698 29.3643 869.198 32.1843 869.198C34.7343 869.198 37.0143 870.698 37.0143 873.458C37.0143 875.048 36.3543 876.788 35.0943 878.168C38.3043 879.278 39.1743 881.348 39.1743 883.358C39.1743 885.848 37.0143 891.098 31.0143 891.098C26.6943 891.098 24.8043 888.398 24.8043 886.388Z" fill="black"/>
<g filter="url(#filter3_d_36_128)">
<circle cx="32" cy="1151.52" r="32" fill="#FFFCF3"/>
<circle cx="32" cy="1151.52" r="31.4286" stroke="black" stroke-width="1.14274"/>
</g>
<path d="M22.1117 1155.98C22.1117 1155.32 22.5017 1154.63 23.0717 1154.3C23.2217 1154.15 23.4017 1154 23.5817 1153.79C25.2317 1152.32 26.5517 1150.73 27.8117 1149.17C29.0417 1147.55 30.1517 1145.9 31.2917 1144.25C31.5917 1143.83 31.8917 1143.32 32.2517 1142.78C32.5817 1142.27 32.9717 1141.73 33.3917 1141.31C33.8117 1140.95 34.5317 1140.62 35.4617 1140.62C36.8717 1140.62 37.6817 1141.31 38.0717 1141.97C38.6417 1142.81 38.6717 1143.32 38.6717 1144.25C38.4017 1146.74 38.2217 1149.26 38.2217 1151.75C38.2217 1152.47 38.2517 1153.19 38.2517 1153.94H38.5817C40.7117 1153.94 41.7017 1155.14 41.7017 1156.1C41.7017 1157.18 40.6517 1158.35 38.5817 1158.44C38.6417 1158.89 38.7017 1159.28 38.7017 1159.73C38.7017 1161.59 37.3817 1162.67 35.5517 1162.67C33.6017 1162.67 32.2817 1161.5 32.2817 1159.58C32.2817 1159.16 32.3417 1158.71 32.4017 1158.29C32.3117 1158.26 32.2217 1158.26 32.1317 1158.26C30.6017 1158.26 29.0717 1158.41 27.5417 1158.41C25.0517 1158.41 22.1117 1158.17 22.1117 1155.98ZM29.4017 1154.36C30.4817 1154.33 31.5317 1154.27 32.6117 1154.21C32.6717 1153.1 32.6717 1151.93 32.6717 1150.82V1149.68C31.8017 1151.3 30.6917 1152.98 29.4017 1154.36Z" fill="black"/>
<defs>
<filter id="filter0_d_36_128" x="0" y="158.053" width="66.2855" height="66.2855" filterUnits="userSpaceOnUse" color-interpolation-filters="sRGB">
<feFlood flood-opacity="0" result="BackgroundImageFix"/>
<feColorMatrix in="SourceAlpha" type="matrix" values="0 0 0 0 0 0 0 0 0 0 0 0 0 0 0 0 0 0 127 0" result="hardAlpha"/>
<feOffset dx="2.28548" dy="2.28548"/>
<feComposite in2="hardAlpha" operator="out"/>
<feColorMatrix type="matrix" values="0 0 0 0 0 0 0 0 0 0 0 0 0 0 0 0 0 0 1 0"/>
<feBlend mode="normal" in2="BackgroundImageFix" result="effect1_dropShadow_36_128"/>
<feBlend mode="normal" in="SourceGraphic" in2="effect1_dropShadow_36_128" result="shape"/>
</filter>
<filter id="filter1_d_36_128" x="0" y="384.057" width="66.2855" height="66.2855" filterUnits="userSpaceOnUse" color-interpolation-filters="sRGB">
<feFlood flood-opacity="0" result="BackgroundImageFix"/>
<feColorMatrix in="SourceAlpha" type="matrix" values="0 0 0 0 0 0 0 0 0 0 0 0 0 0 0 0 0 0 127 0" result="hardAlpha"/>
<feOffset dx="2.28548" dy="2.28548"/>
<feComposite in2="hardAlpha" operator="out"/>
<feColorMatrix type="matrix" values="0 0 0 0 0 0 0 0 0 0 0 0 0 0 0 0 0 0 1 0"/>
<feBlend mode="normal" in2="BackgroundImageFix" result="effect1_dropShadow_36_128"/>
<feBlend mode="normal" in="SourceGraphic" in2="effect1_dropShadow_36_128" result="shape"/>
</filter>
<filter id="filter2_d_36_128" x="0" y="848.008" width="66.2855" height="66.2855" filterUnits="userSpaceOnUse" color-interpolation-filters="sRGB">
<feFlood flood-opacity="0" result="BackgroundImageFix"/>
<feColorMatrix in="SourceAlpha" type="matrix" values="0 0 0 0 0 0 0 0 0 0 0 0 0 0 0 0 0 0 127 0" result="hardAlpha"/>
<feOffset dx="2.28548" dy="2.28548"/>
<feComposite in2="hardAlpha" operator="out"/>
<feColorMatrix type="matrix" values="0 0 0 0 0 0 0 0 0 0 0 0 0 0 0 0 0 0 1 0"/>
<feBlend mode="normal" in2="BackgroundImageFix" result="effect1_dropShadow_36_128"/>
<feBlend mode="normal" in="SourceGraphic" in2="effect1_dropShadow_36_128" result="shape"/>
</filter>
<filter id="filter3_d_36_128" x="0" y="1119.52" width="66.2855" height="66.2855" filterUnits="userSpaceOnUse" color-interpolation-filters="sRGB">
<feFlood flood-opacity="0" result="BackgroundImageFix"/>
<feColorMatrix in="SourceAlpha" type="matrix" values="0 0 0 0 0 0 0 0 0 0 0 0 0 0 0 0 0 0 127 0" result="hardAlpha"/>
<feOffset dx="2.28548" dy="2.28548"/>
<feComposite in2="hardAlpha" operator="out"/>
<feColorMatrix type="matrix" values="0 0 0 0 0 0 0 0 0 0 0 0 0 0 0 0 0 0 1 0"/>
<feBlend mode="normal" in2="BackgroundImageFix" result="effect1_dropShadow_36_128"/>
<feBlend mode="normal" in="SourceGraphic" in2="effect1_dropShadow_36_128" result="shape"/>
</filter>
</defs>
</svg>
