<svg width="418" height="154" viewBox="0 0 418 154" fill="none" xmlns="http://www.w3.org/2000/svg">
<g filter="url(#filter0_d_36_395)">
<rect x="0.552246" y="23.7632" width="409" height="127" rx="16" transform="rotate(-3.33081 0.552246 23.7632)" fill="#FCCB06"/>
<rect x="3.72148" y="26.5838" width="403" height="121" rx="13" transform="rotate(-3.33081 3.72148 26.5838)" stroke="black" stroke-width="6"/>
</g>
<path d="M77.3242 71.8461C76.5264 71.9041 75.9889 71.9031 75.7118 71.8431C75.4335 71.7671 75.2869 71.6254 75.2718 71.4179L74.1882 56.5293C74.1627 56.1782 74.6005 55.8014 75.5017 55.399C76.4017 54.9805 77.4261 54.7295 78.5751 54.6459C79.5964 54.5716 80.2823 54.7382 80.6328 55.1459C80.7561 55.2973 80.8236 55.4528 80.8352 55.6124L81.6069 66.2164C83.5445 65.947 85.008 65.7763 85.9973 65.7043C86.3325 65.68 86.5389 66.2023 86.6167 67.2715C86.6934 68.3247 86.6878 69.2396 86.5999 70.016C86.512 70.7924 86.3484 71.1893 86.109 71.2067L77.3242 71.8461ZM94.8515 69.3433C94.8533 69.8084 94.6291 70.1455 94.1791 70.3547C93.7451 70.5628 92.9376 70.7098 91.7568 70.7957C90.5759 70.8817 89.579 70.8499 88.766 70.7006C87.9678 70.5341 87.5565 70.2832 87.5321 69.9481C87.5042 69.5651 88.0367 67.0719 89.1294 62.4685C90.221 57.8491 90.8456 55.1887 91.0031 54.4874C91.0678 54.2742 91.6939 54.0602 92.8814 53.8454C94.0838 53.6135 95.3711 53.4476 96.7435 53.3478C98.1318 53.2467 98.9152 53.4303 99.0937 53.8986C102.839 63.7006 104.717 68.6814 104.729 68.841C104.741 69.0006 104.657 69.1671 104.477 69.3406C104.055 69.7242 103.183 69.9642 101.858 70.0606C99.0335 70.2662 97.565 70.0362 97.4523 69.3706L97.1716 67.8269L94.8736 67.9941L94.8515 69.3433ZM96.3379 63.3155L95.6653 59.033L95.1387 59.0713L95.0453 63.4096L96.3379 63.3155ZM117.649 67.9008C117.196 68.2867 116.547 68.6307 115.703 68.9328C114.873 69.2177 113.78 69.4095 112.424 69.5083C111.083 69.6058 109.799 69.587 108.57 69.4519C107.341 69.3167 106.453 69.1327 105.906 68.8997C105.36 68.6667 105.078 68.4226 105.059 68.1673C104.994 67.2736 105.054 66.3388 105.24 65.3628C105.424 64.3707 105.692 63.862 106.043 63.8364C106.107 63.8318 106.785 63.999 108.077 64.3381C109.369 64.6772 110.334 64.8236 110.973 64.7771C111.611 64.7307 112.021 64.6366 112.203 64.495C112.384 64.3375 112.466 64.131 112.447 63.8757C112.428 63.6204 112.237 63.4098 111.872 63.2438C111.506 63.0619 111.054 62.9183 110.517 62.813C109.979 62.6918 109.388 62.5102 108.745 62.2682C108.117 62.0251 107.528 61.7472 106.975 61.4344C106.423 61.1217 105.948 60.6589 105.551 60.0462C105.152 59.4174 104.923 58.6882 104.862 57.8584C104.604 54.3157 106.59 52.3905 110.819 52.0828C112.399 51.9678 113.771 51.9723 114.935 52.0961C116.098 52.204 116.92 52.3687 117.401 52.5904C117.897 52.7949 118.154 53.0169 118.171 53.2562C118.232 54.086 118.097 54.9942 117.768 55.9807C117.455 56.966 117.115 57.472 116.748 57.4988C116.684 57.5034 116.471 57.4467 116.11 57.3286C115.023 56.9425 114.128 56.775 113.426 56.8261C112.74 56.876 112.274 56.9741 112.028 57.1203C111.798 57.2654 111.692 57.4736 111.712 57.7449C111.731 58.0002 111.922 58.2029 112.286 58.3529C112.648 58.4869 113.09 58.6071 113.611 58.7136C114.147 58.8029 114.729 58.9692 115.356 59.2123C115.998 59.4383 116.597 59.7236 117.151 60.0682C117.704 60.3969 118.182 60.8916 118.583 61.5523C118.984 62.2129 119.217 62.998 119.283 63.9076C119.353 64.8651 119.169 65.7528 118.731 66.5707C118.463 67.0715 118.102 67.5149 117.649 67.9008ZM131.331 67.3382C131.344 67.5137 130.86 67.6933 129.879 67.877C128.912 68.0436 127.934 68.1629 126.945 68.2349C125.971 68.3058 125.346 68.3112 125.069 68.2511C124.807 68.174 124.668 68.0316 124.653 67.8242L123.904 57.5314L120.577 57.7735C120.401 57.7863 120.233 57.5739 120.073 57.1364C119.913 56.6989 119.801 56.0413 119.737 55.1636C119.672 54.27 119.71 53.4651 119.85 52.749C119.989 52.017 120.219 51.6394 120.538 51.6161L133.487 50.6737C133.727 50.6563 133.903 50.8681 134.015 51.3091C134.143 51.749 134.238 52.3918 134.3 53.2375C134.361 54.0833 134.332 54.8876 134.211 55.6504C134.09 56.4132 133.878 56.8056 133.574 56.8276L130.582 57.0454L131.331 67.3382ZM154.148 66.0868C153.52 66.2768 152.873 66.4202 152.206 66.5169C151.557 66.6283 150.913 66.7072 150.274 66.7537C149.652 66.799 149.164 66.8185 148.811 66.8121C148.473 66.8046 148.021 66.7573 147.453 66.6703C146.885 66.5833 146.362 66.4449 145.883 66.2552C145.403 66.0654 144.885 65.7743 144.327 65.3818C143.785 64.9881 143.317 64.5088 142.923 63.9439C142.009 62.6307 141.473 60.889 141.315 58.7188C141.21 57.2666 141.34 55.9657 141.705 54.8162C142.087 53.6655 142.575 52.7637 143.169 52.1108C143.779 51.4568 144.485 50.9161 145.289 50.4887C146.585 49.7847 147.911 49.3834 149.268 49.2847C151.215 49.143 152.622 49.201 153.491 49.4586C153.885 49.5743 154.244 49.7728 154.57 50.0539C154.895 50.335 155.078 50.7628 155.12 51.3373C155.162 51.9118 155.071 52.6483 154.848 53.5469C154.64 54.4443 154.273 54.9122 153.747 54.9505C153.587 54.9621 152.987 54.8774 151.948 54.6964C150.908 54.5154 150.204 54.4383 149.837 54.465C149.279 54.5057 148.823 54.8517 148.469 55.5031C148.131 56.1533 148.004 57.0529 148.088 58.2018C148.171 59.3508 148.404 60.2323 148.786 60.8462C149.183 61.4589 149.661 61.745 150.22 61.7043C150.619 61.6753 151.325 61.4635 152.339 61.0688C153.368 60.6571 153.97 60.4448 154.146 60.432C154.64 60.396 155.056 60.823 155.394 61.7128C155.747 62.6015 155.944 63.3251 155.985 63.8836C156.026 64.4422 155.883 64.9017 155.556 65.2624C155.244 65.606 154.775 65.8807 154.148 66.0868ZM164.504 64.8037C164.519 65.0112 164.045 65.2141 163.081 65.4126C162.133 65.61 161.164 65.7447 160.174 65.8167C159.201 65.8875 158.567 65.8775 158.271 65.7867C157.992 65.6948 157.843 65.5291 157.826 65.2897L156.755 50.5686C156.726 50.1697 157.162 49.777 158.065 49.3905C158.966 48.988 159.959 48.7473 161.044 48.6683C162.56 48.558 163.344 48.8619 163.396 49.58L163.78 54.846L165.91 54.691L165.563 49.9276C165.534 49.5287 165.971 49.1359 166.873 48.7494C167.79 48.3458 168.792 48.1045 169.877 48.0255C171.377 47.9163 172.153 48.2208 172.205 48.9389L173.313 64.1627C173.328 64.3701 172.854 64.5731 171.889 64.7716C170.925 64.9701 169.957 65.1048 168.983 65.1756C168.01 65.2464 167.375 65.2365 167.08 65.1457C166.8 65.0537 166.652 64.888 166.635 64.6487L166.236 59.1672L164.105 59.3222L164.504 64.8037ZM181.786 63.0167C181.787 63.4818 181.563 63.8189 181.113 64.0281C180.679 64.2362 179.872 64.3832 178.691 64.4691C177.51 64.5551 176.513 64.5233 175.7 64.3739C174.902 64.2074 174.491 63.9566 174.466 63.6215C174.438 63.2385 174.971 60.7453 176.064 56.1419C177.155 51.5224 177.78 48.8621 177.937 48.1608C178.002 47.9475 178.628 47.7335 179.816 47.5188C181.018 47.2869 182.305 47.121 183.678 47.0211C185.066 46.9201 185.849 47.1037 186.028 47.572C189.773 57.374 191.652 62.3548 191.663 62.5144C191.675 62.674 191.591 62.8405 191.411 63.014C190.99 63.3976 190.117 63.6376 188.792 63.734C185.968 63.9396 184.499 63.7095 184.387 63.044L184.106 61.5003L181.808 61.6675L181.786 63.0167ZM183.272 56.9889L182.599 52.7064L182.073 52.7447L181.979 57.0829L183.272 56.9889ZM199.568 62.252C199.583 62.4594 199.1 62.663 198.12 62.8626C197.156 63.0611 196.187 63.1958 195.214 63.2667C194.241 63.3375 193.614 63.3269 193.335 63.235C193.055 63.143 192.907 62.9773 192.889 62.738L191.82 48.0408C191.791 47.6419 192.219 47.2418 193.104 46.8405C194.005 46.438 195.038 46.1944 196.203 46.1096C196.618 46.0794 196.931 46.0727 197.14 46.0895C197.689 46.1298 198.097 46.4451 198.364 47.0352L201.112 53.0436L201.207 53.0367L200.796 47.3876C200.767 46.9887 201.195 46.5885 202.08 46.1872C202.966 45.7859 203.991 45.5429 205.156 45.4581C206.161 45.3849 206.813 45.53 207.112 45.8932C207.324 46.1506 207.437 46.3909 207.454 46.6143L208.544 61.5987C208.559 61.8062 208.077 62.0097 207.097 62.2094C206.132 62.4079 205.06 62.5501 203.879 62.6361C202.714 62.7208 202.065 62.6157 201.931 62.3206L199.276 56.5942L199.157 56.6029L199.568 62.252ZM222.499 61.1126C221.871 61.3026 221.223 61.446 220.557 61.5427C219.907 61.6541 219.263 61.7331 218.625 61.7795C218.002 61.8248 217.515 61.8443 217.161 61.8379C216.824 61.8304 216.371 61.7831 215.803 61.6961C215.235 61.6091 214.712 61.4707 214.233 61.281C213.754 61.0912 213.235 60.8001 212.678 60.4076C212.136 60.0139 211.667 59.5346 211.273 58.9697C210.36 57.6565 209.824 55.9148 209.666 53.7446C209.56 52.2924 209.69 50.9916 210.056 49.842C210.437 48.6913 210.925 47.7895 211.519 47.1366C212.129 46.4826 212.836 45.9419 213.639 45.5145C214.935 44.8105 216.262 44.4092 217.618 44.3105C219.565 44.1688 220.973 44.2268 221.842 44.4844C222.235 44.6001 222.595 44.7986 222.92 45.0797C223.245 45.3608 223.429 45.7886 223.471 46.3631C223.512 46.9376 223.422 47.6741 223.198 48.5727C222.991 49.4701 222.624 49.938 222.097 49.9763C221.938 49.9879 221.338 49.9033 220.298 49.7223C219.258 49.5413 218.555 49.4641 218.188 49.4908C217.629 49.5315 217.173 49.8775 216.819 50.5289C216.482 51.1791 216.355 52.0787 216.438 53.2277C216.522 54.3766 216.755 55.2581 217.136 55.872C217.534 56.4847 218.012 56.7708 218.57 56.7302C218.969 56.7011 219.676 56.4893 220.69 56.0946C221.718 55.6829 222.321 55.4706 222.496 55.4578C222.991 55.4218 223.407 55.8488 223.744 56.7386C224.098 57.6273 224.295 58.3509 224.336 58.9094C224.376 59.468 224.233 59.9276 223.906 60.2882C223.595 60.6318 223.125 60.9065 222.499 61.1126ZM238.363 60.1265L228.214 60.8651C227.432 60.922 226.901 60.9045 226.622 60.8125C226.342 60.7206 226.194 60.5549 226.176 60.3155L225.074 45.1636C225.044 44.7487 225.206 44.4401 225.56 44.2379C225.93 44.0345 226.602 43.8973 227.575 43.8265L237.198 43.1262C237.533 43.1018 237.741 43.6482 237.822 44.7652C237.903 45.8663 237.892 46.7173 237.792 47.3182C237.69 47.9031 237.519 48.2043 237.28 48.2217C236.243 48.2972 234.488 48.3206 232.015 48.292L232.132 49.8958C234.487 49.6282 236.023 49.4682 236.741 49.416C237.172 49.3846 237.424 49.8716 237.497 50.8769C237.57 51.8823 237.538 52.6546 237.401 53.194C237.279 53.7163 237.074 53.9879 236.787 54.0088L232.447 54.2283L232.559 55.7603C235.32 55.3507 237.228 55.1077 238.281 55.031C238.616 55.0066 238.824 55.553 238.905 56.67C238.987 57.7871 238.976 58.638 238.875 59.223C238.773 59.8079 238.602 60.1091 238.363 60.1265ZM256.344 58.2404C256.357 58.4159 255.873 58.5955 254.892 58.7792C253.925 58.9458 252.947 59.0651 251.958 59.1371C250.985 59.208 250.359 59.2134 250.082 59.1533C249.82 59.0761 249.681 58.9338 249.666 58.7264L248.917 48.4336L245.59 48.6757C245.414 48.6885 245.246 48.4761 245.086 48.0386C244.926 47.6011 244.814 46.9435 244.75 46.0658C244.685 45.1722 244.723 44.3673 244.863 43.6512C245.002 42.9192 245.232 42.5416 245.551 42.5183L258.501 41.5759C258.74 41.5585 258.916 41.7703 259.028 42.2113C259.156 42.6512 259.251 43.294 259.313 44.1397C259.374 44.9855 259.345 45.7898 259.224 46.5526C259.103 47.3153 258.891 47.7078 258.587 47.7298L255.595 47.9476L256.344 58.2404ZM269.911 58.0472C268.587 58.1436 267.437 58.1069 266.462 57.9372C265.502 57.7504 264.6 57.3669 263.755 56.7866C262.052 55.6433 261.07 53.2843 260.81 49.7098C260.701 48.2097 260.821 46.8855 261.17 45.7371C261.536 44.5875 262.086 43.6572 262.82 42.946C264.259 41.5579 266.2 40.775 268.641 40.5973C269.902 40.5056 271.003 40.5377 271.945 40.6938C272.903 40.8487 273.818 41.1911 274.691 41.7212C276.454 42.812 277.461 45.0649 277.709 48.4799C277.932 51.5438 277.338 53.857 275.928 55.4195C274.518 56.982 272.512 57.8579 269.911 58.0472ZM268.823 54.0115C269.031 54.2209 269.302 54.3135 269.638 54.2891C269.973 54.2647 270.228 54.1338 270.403 53.8965C270.577 53.6432 270.701 53.1369 270.774 52.3776C270.846 51.6023 270.832 50.5365 270.734 49.1801C270.635 47.8237 270.495 46.7831 270.314 46.0583C270.133 45.3335 269.938 44.8664 269.731 44.6569C269.523 44.4475 269.251 44.3549 268.916 44.3793C268.581 44.4037 268.326 44.5346 268.151 44.7719C267.976 45.0092 267.851 45.4996 267.777 46.2429C267.702 46.9863 267.715 48.0362 267.813 49.3926C267.912 50.749 268.053 51.8056 268.237 52.5622C268.419 53.303 268.614 53.786 268.823 54.0115ZM292.527 56.1847L287.285 56.5662C286.487 56.6243 285.948 56.6073 285.669 56.5154C285.389 56.4234 285.241 56.2578 285.223 56.0184L284.103 40.6271C284.048 39.8611 286.326 39.3103 290.937 38.9747C293.586 38.7819 295.432 38.9043 296.475 39.3418C297.534 39.794 298.237 40.4167 298.584 41.2096C298.778 41.6767 298.899 42.2294 298.945 42.8677C299.036 44.1125 298.888 45.0617 298.503 45.7154C298.133 46.3679 297.704 46.7521 297.215 46.8679C297.977 46.9729 298.626 47.2946 299.162 47.8331C299.699 48.3716 300.017 49.327 300.117 50.6994C300.233 52.2952 299.832 53.5114 298.914 54.3483C298.117 55.08 296.856 55.597 295.129 55.8991C294.399 56.0164 293.532 56.1116 292.527 56.1847ZM291.791 45.7466C292.605 45.6874 292.972 45.1152 292.894 44.0301C292.854 43.4875 292.713 43.0967 292.471 42.8576C292.244 42.6014 291.995 42.4832 291.724 42.5029L290.958 42.5587L291.193 45.7901L291.791 45.7466ZM291.693 52.66L292.291 52.6164C293.105 52.5572 293.472 51.985 293.393 50.8999C293.354 50.3573 293.213 49.9665 292.971 49.7274C292.744 49.4713 292.495 49.353 292.224 49.3728L291.458 49.4285L291.693 52.66ZM317.128 47.6807C317.296 49.9786 316.759 51.7502 315.518 52.9956C314.292 54.2238 312.426 54.9291 309.921 55.1114C307.431 55.2926 305.475 54.8654 304.052 53.83C302.628 52.7786 301.832 51.1039 301.665 48.806L301.026 40.0212C300.997 39.6223 301.418 39.2307 302.288 38.8465C303.174 38.4612 304.216 38.2249 305.413 38.1378C306.37 38.0682 307.006 38.2064 307.32 38.5525C307.548 38.8246 307.67 39.0644 307.685 39.2719L308.204 46.405C308.335 48.2083 308.486 49.4005 308.657 49.9816C308.842 50.5456 309.158 50.8114 309.605 50.7789C310.052 50.7463 310.311 50.4468 310.382 49.8801C310.468 49.2963 310.444 48.0789 310.309 46.2278L309.811 39.3819C309.782 38.983 310.202 38.5914 311.073 38.2072C311.959 37.8218 312.993 37.5862 314.174 37.5003C315.179 37.4271 315.831 37.5642 316.129 37.9114C316.341 38.1848 316.455 38.4251 316.47 38.6326L317.128 47.6807ZM330.169 52.7475C330.184 52.955 329.709 53.158 328.745 53.3565C327.781 53.555 326.812 53.6896 325.839 53.7605C324.881 53.8302 324.255 53.8276 323.961 53.7527C323.666 53.6619 323.509 53.4889 323.49 53.2335L323.187 49.0686C319.557 42.8356 317.722 39.4398 317.681 38.8813C317.657 38.5462 318.166 38.1562 319.208 37.7114C320.251 37.2666 321.362 37.0012 322.543 36.9152C324.059 36.8049 324.898 37.1931 325.058 38.0797L326.173 44.4717L326.437 44.4525L326.435 38.148C326.434 37.6989 326.975 37.2986 328.056 36.9472C329.136 36.5798 330.171 36.3601 331.16 36.2881C332.15 36.2161 332.846 36.3098 333.25 36.5692C333.654 36.8285 333.868 37.1178 333.891 37.4369C333.913 37.7401 332.571 41.4553 329.865 48.5825L330.169 52.7475ZM45.7569 87.9959C45.7302 87.6289 46.0084 87.2637 46.5916 86.9004C47.1736 86.5212 47.9593 86.2956 48.9486 86.2236C49.7146 86.1678 50.2209 86.2914 50.4676 86.5943C50.6434 86.8061 50.7383 87.0077 50.7522 87.1992L50.8045 87.9173C52.6216 87.9776 53.8987 88.2215 54.6357 88.6492C54.9369 88.8198 55.0939 88.9928 55.1066 89.1684C55.167 89.9982 55.0326 90.9063 54.7033 91.8928C54.39 92.8782 54.0498 93.3842 53.6828 93.4109C53.619 93.4155 53.4063 93.3588 53.0448 93.2408C51.9579 92.8546 51.0634 92.6871 50.3612 92.7382C49.675 92.7882 49.2089 92.8862 48.9629 93.0325C48.7328 93.1776 48.6277 93.3858 48.6474 93.657C48.666 93.9124 48.856 94.0991 49.2176 94.2171C49.5791 94.3352 50.0192 94.4315 50.538 94.506C51.0716 94.5635 51.6503 94.6898 52.2741 94.885C52.9139 95.0791 53.5093 95.3245 54.0602 95.6213C54.6112 95.9181 55.0867 96.3889 55.4865 97.0335C55.8852 97.6623 56.1095 98.3197 56.1594 99.0059C56.2094 99.6921 56.1868 100.263 56.0916 100.719C55.9965 101.175 55.8068 101.654 55.5224 102.156C55.2541 102.657 54.8147 103.122 54.2042 103.552C53.6086 103.964 52.8783 104.29 52.0134 104.529L52.0413 104.912C52.068 105.279 51.7898 105.645 51.2066 106.008C50.6246 106.387 49.8389 106.613 48.8495 106.685C48.0835 106.74 47.5772 106.617 47.3306 106.314C47.1548 106.102 47.0599 105.901 47.0459 105.709L46.9937 104.991C45.9495 104.971 45.0368 104.885 44.2557 104.733C42.7586 104.441 41.9932 104.063 41.9595 103.601C41.8945 102.707 41.9548 101.772 42.1404 100.796C42.3249 99.8042 42.5927 99.2954 42.9437 99.2698C43.0076 99.2652 43.6855 99.4324 44.9775 99.7715C46.2695 100.111 47.2347 100.257 47.873 100.211C48.5113 100.164 48.9216 100.07 49.1038 99.9284C49.2848 99.7709 49.3661 99.5645 49.3475 99.3091C49.3289 99.0538 49.1377 98.8511 48.7738 98.7012C48.4088 98.5352 47.959 98.4156 47.4242 98.3422C46.8895 98.2688 46.3022 98.1351 45.6625 97.941C45.0386 97.7458 44.4518 97.5077 43.902 97.2269C43.3522 96.9461 42.8791 96.5072 42.4827 95.9104C42.0863 95.3136 41.858 94.6003 41.7976 93.7705C41.5839 90.8343 42.9112 89.0131 45.7795 88.3071L45.7569 87.9959ZM65.4848 103.79L60.2426 104.171C59.4447 104.229 58.9061 104.212 58.6267 104.12C58.3473 104.028 58.1988 103.863 58.1814 103.623L57.0613 88.232C57.0056 87.466 59.2836 86.9152 63.8954 86.5796C66.5444 86.3868 68.3902 86.5092 69.4327 86.9467C70.4923 87.399 71.1953 88.0216 71.5418 88.8145C71.7362 89.2816 71.8567 89.8344 71.9031 90.4727C71.9937 91.7174 71.8462 92.6666 71.4606 93.3203C71.091 93.9728 70.6618 94.357 70.1729 94.4728C70.9345 94.5778 71.5836 94.8995 72.1201 95.438C72.6566 95.9765 72.9748 96.9319 73.0746 98.3043C73.1908 99.9001 72.79 101.116 71.8723 101.953C71.0753 102.685 69.8135 103.202 68.0869 103.504C67.3575 103.621 66.4901 103.716 65.4848 103.79ZM64.7492 93.3515C65.563 93.2923 65.9305 92.7201 65.8515 91.635C65.812 91.0924 65.6713 90.7016 65.4293 90.4625C65.2021 90.2063 64.9529 90.0881 64.6816 90.1079L63.9156 90.1636L64.1508 93.3951L64.7492 93.3515ZM64.6507 100.265L65.2491 100.221C66.063 100.162 66.4304 99.5899 66.3515 98.5048C66.312 97.9622 66.1712 97.5714 65.9292 97.3324C65.7021 97.0762 65.4528 96.958 65.1815 96.9777L64.4156 97.0334L64.6507 100.265ZM81.7609 101.907C81.776 102.115 81.3015 102.318 80.3374 102.516C79.3733 102.715 78.3965 102.85 77.4071 102.922C76.4337 102.993 75.7993 102.983 75.5039 102.892C75.2245 102.8 75.0761 102.634 75.0587 102.395L73.9386 87.0038C73.9084 86.5889 74.4055 86.2559 75.43 86.0049C76.4704 85.7527 77.7886 85.5686 79.3843 85.4524C80.9801 85.3363 82.01 85.2694 82.4739 85.2516C82.9526 85.2168 83.5129 85.2001 84.1547 85.2015C84.7965 85.2029 85.305 85.2461 85.6801 85.3311C86.0713 85.415 86.4966 85.5284 86.9562 85.6714C87.4317 85.8133 87.8076 86.0185 88.0839 86.2872C88.3589 86.5399 88.6301 86.849 88.8973 87.2146C89.3781 87.8694 89.665 88.8351 89.7579 90.1118C89.8496 91.3724 89.712 92.4573 89.345 93.3663C88.9928 94.2582 88.4819 94.9531 87.8123 95.4511C89.8576 98.2059 90.9088 99.9742 90.9657 100.756C91.0226 101.538 89.4792 102.043 86.3355 102.272C85.4259 102.338 84.7927 102.344 84.4358 102.29C84.0789 102.236 83.8427 102.077 83.7272 101.812L81.8125 96.9946L81.4038 97.0003L81.7609 101.907ZM81.1356 93.314L81.7579 93.2688C82.6835 93.2014 83.094 92.4496 82.9895 91.0134C82.9361 90.2794 82.7706 89.77 82.4933 89.4854C82.2318 89.1996 81.9415 89.0683 81.6224 89.0916L80.8325 89.1491L81.1356 93.314ZM98.7612 100.141C98.763 100.606 98.5389 100.943 98.0889 101.152C97.6548 101.36 96.8474 101.507 95.6665 101.593C94.4856 101.679 93.4887 101.647 92.6757 101.498C91.8775 101.332 91.4662 101.081 91.4418 100.746C91.414 100.363 91.9464 97.8694 93.0392 93.2659C94.1308 88.6465 94.7553 85.9862 94.9128 85.2849C94.9775 85.0716 95.6036 84.8576 96.7912 84.6428C97.9935 84.411 99.2809 84.2451 100.653 84.1452C102.042 84.0442 102.825 84.2278 103.003 84.6961C106.749 94.4981 108.627 99.4789 108.639 99.6385C108.65 99.798 108.566 99.9646 108.386 100.138C107.965 100.522 107.092 100.762 105.768 100.858C102.943 101.064 101.475 100.834 101.362 100.168L101.081 98.6243L98.7834 98.7916L98.7612 100.141ZM100.248 94.1129L99.575 89.8305L99.0484 89.8688L98.9551 94.207L100.248 94.1129ZM116.552 99.4957C116.565 99.6713 116.089 99.8503 115.123 100.033C114.157 100.199 113.179 100.319 112.19 100.391C111.216 100.462 110.591 100.467 110.314 100.407C110.036 100.331 109.889 100.189 109.874 99.9817L108.79 85.0931C108.765 84.742 109.203 84.3653 110.104 83.9628C111.004 83.5444 112.028 83.2933 113.177 83.2097C114.198 83.1354 114.884 83.3021 115.235 83.7097C115.358 83.8611 115.426 84.0167 115.437 84.1762L116.552 99.4957ZM125.146 98.75C125.161 98.9575 124.678 99.161 123.698 99.3607C122.734 99.5592 121.765 99.6939 120.792 99.7647C119.818 99.8355 119.192 99.825 118.913 99.733C118.633 99.6411 118.485 99.4754 118.467 99.236L117.398 84.5389C117.369 84.1399 117.797 83.7398 118.682 83.3385C119.583 82.936 120.616 82.6924 121.781 82.6076C122.196 82.5774 122.508 82.5708 122.718 82.5876C123.267 82.6279 123.674 82.9431 123.942 83.5332L126.689 89.5417L126.785 89.5347L126.374 83.8856C126.345 83.4867 126.773 83.0866 127.658 82.6853C128.543 82.284 129.569 82.0409 130.733 81.9561C131.739 81.883 132.391 82.028 132.69 82.3913C132.901 82.6486 133.015 82.889 133.031 83.1124L134.122 98.0968C134.137 98.3042 133.655 98.5078 132.674 98.7074C131.71 98.9059 130.638 99.0482 129.457 99.1341C128.292 99.2189 127.643 99.1137 127.509 98.8187L124.854 93.0922L124.735 93.1009L125.146 98.75ZM143.732 98.0952L138.083 98.5063C137.301 98.5632 136.77 98.5457 136.491 98.4537C136.212 98.3618 136.063 98.1881 136.044 97.9328L134.945 82.8288C134.915 82.4139 135.069 82.1059 135.407 81.9048C135.744 81.6877 136.344 81.5479 137.205 81.4851L142.591 81.0932C145.655 80.8702 147.814 81.3227 149.067 82.4508C150.319 83.5628 151.06 85.7066 151.291 88.8822C151.522 92.0578 151.079 94.3361 149.96 95.7169C148.84 97.0818 146.764 97.8746 143.732 98.0952ZM142.563 84.6807C142.18 84.7085 141.927 84.759 141.804 84.8322L142.508 94.5026L143.425 94.5321C143.903 94.4973 144.235 94.0882 144.418 93.3048C144.618 92.5202 144.649 91.1864 144.512 89.3034C144.375 87.4204 144.156 86.169 143.854 85.5493C143.552 84.9296 143.122 84.64 142.563 84.6807ZM166.234 96.4577L160.992 96.8391C160.194 96.8972 159.655 96.8803 159.376 96.7883C159.096 96.6963 158.948 96.5307 158.931 96.2913L157.811 80.9C157.755 80.134 160.033 79.5832 164.645 79.2476C167.294 79.0548 169.139 79.1772 170.182 79.6147C171.241 80.067 171.945 80.6896 172.291 81.4825C172.485 81.9496 172.606 82.5024 172.652 83.1407C172.743 84.3854 172.595 85.3346 172.21 85.9883C171.84 86.6408 171.411 87.025 170.922 87.1408C171.684 87.2458 172.333 87.5675 172.869 88.106C173.406 88.6445 173.724 89.5999 173.824 90.9723C173.94 92.5681 173.539 93.7844 172.622 94.6212C171.825 95.353 170.563 95.8699 168.836 96.172C168.107 96.2893 167.239 96.3845 166.234 96.4577ZM165.498 86.0195C166.312 85.9603 166.68 85.3881 166.601 84.303C166.561 83.7604 166.42 83.3696 166.178 83.1305C165.951 82.8743 165.702 82.7561 165.431 82.7759L164.665 82.8316L164.9 86.0631L165.498 86.0195ZM165.4 92.9329L165.998 92.8893C166.812 92.8301 167.18 92.2579 167.101 91.1728C167.061 90.6302 166.92 90.2394 166.678 90.0004C166.451 89.7442 166.202 89.626 165.931 89.6457L165.165 89.7014L165.4 92.9329ZM187.994 94.874L177.845 95.6127C177.063 95.6696 176.533 95.652 176.253 95.5601C175.974 95.4681 175.825 95.3024 175.808 95.0631L174.705 79.9111C174.675 79.4962 174.837 79.1877 175.191 78.9854C175.561 78.782 176.233 78.6449 177.207 78.574L186.829 77.8738C187.164 77.8494 187.373 78.3957 187.454 79.5128C187.534 80.6138 187.524 81.4648 187.423 82.0657C187.321 82.6507 187.151 82.9518 186.911 82.9693C185.874 83.0447 184.119 83.0682 181.647 83.0396L181.763 84.6433C184.118 84.3757 185.655 84.2158 186.373 84.1635C186.803 84.1321 187.055 84.6191 187.129 85.6245C187.202 86.6298 187.17 87.4022 187.033 87.9416C186.91 88.4638 186.705 88.7354 186.418 88.7563L182.079 88.9759L182.19 90.5078C184.952 90.0983 186.859 89.8552 187.912 89.7786C188.247 89.7542 188.456 90.3005 188.537 91.4176C188.618 92.5346 188.608 93.3856 188.506 93.9705C188.404 94.5555 188.234 94.8566 187.994 94.874ZM196.986 92.9925C196.988 93.4576 196.764 93.7947 196.314 94.0039C195.879 94.212 195.072 94.359 193.891 94.4449C192.71 94.5308 191.713 94.4991 190.9 94.3497C190.102 94.1832 189.691 93.9324 189.666 93.5973C189.639 93.2143 190.171 90.7211 191.264 86.1176C192.355 81.4982 192.98 78.8379 193.137 78.1366C193.202 77.9233 193.828 77.7093 195.016 77.4946C196.218 77.2627 197.505 77.0968 198.878 76.9969C200.266 76.8959 201.05 77.0795 201.228 77.5478C204.973 87.3498 206.852 92.3306 206.863 92.4902C206.875 92.6498 206.791 92.8163 206.611 92.9898C206.19 93.3734 205.317 93.6134 203.992 93.7098C201.168 93.9153 199.699 93.6853 199.587 93.0197L199.306 91.4761L197.008 91.6433L196.986 92.9925ZM198.472 86.9647L197.8 82.6822L197.273 82.7205L197.18 87.0587L198.472 86.9647ZM214.792 92.226C214.807 92.4335 214.333 92.6364 213.368 92.8349C212.404 93.0334 211.427 93.1687 210.438 93.2407C209.465 93.3115 208.83 93.3016 208.535 93.2108C208.256 93.1188 208.107 92.9531 208.09 92.7138L206.97 77.3225C206.939 76.9076 207.437 76.5746 208.461 76.3236C209.501 76.0714 210.82 75.8872 212.415 75.7711C214.011 75.655 215.041 75.5881 215.505 75.5703C215.984 75.5355 216.544 75.5188 217.186 75.5202C217.828 75.5216 218.336 75.5648 218.711 75.6498C219.102 75.7337 219.528 75.8471 219.987 75.9901C220.463 76.132 220.839 76.3372 221.115 76.6059C221.39 76.8586 221.661 77.1677 221.928 77.5333C222.409 78.1881 222.696 79.1538 222.789 80.4305C222.881 81.6911 222.743 82.776 222.376 83.685C222.024 84.5769 221.513 85.2718 220.843 85.7698C222.889 88.5246 223.94 90.2929 223.997 91.0749C224.054 91.8568 222.51 92.3622 219.367 92.5909C218.457 92.6571 217.824 92.6631 217.467 92.6089C217.11 92.5546 216.874 92.3954 216.758 92.131L214.844 87.3133L214.435 87.319L214.792 92.226ZM214.167 83.6327L214.789 83.5874C215.714 83.5201 216.125 82.7683 216.02 81.3321C215.967 80.598 215.802 80.0887 215.524 79.8041C215.263 79.5183 214.973 79.387 214.653 79.4103L213.863 79.4678L214.167 83.6327ZM237.385 90.269C236.932 90.6549 236.283 90.9989 235.439 91.301C234.609 91.5859 233.516 91.7778 232.16 91.8765C230.82 91.974 229.535 91.9552 228.306 91.8201C227.077 91.6849 226.189 91.5009 225.643 91.2679C225.096 91.0349 224.814 90.7908 224.795 90.5355C224.73 89.6418 224.791 88.707 224.976 87.731C225.161 86.7389 225.428 86.2302 225.78 86.2046C225.843 86.2 226.521 86.3672 227.813 86.7063C229.105 87.0454 230.071 87.1918 230.709 87.1453C231.347 87.0989 231.757 87.0048 231.94 86.8632C232.121 86.7057 232.202 86.4992 232.183 86.2439C232.165 85.9886 231.973 85.778 231.608 85.612C231.242 85.4301 230.79 85.2865 230.253 85.1812C229.715 85.06 229.124 84.8784 228.481 84.6364C227.854 84.3933 227.264 84.1154 226.712 83.8026C226.16 83.4899 225.685 83.0271 225.287 82.4144C224.888 81.7856 224.659 81.0564 224.599 80.2266C224.341 76.6839 226.326 74.7587 230.555 74.451C232.135 74.336 233.507 74.3405 234.671 74.4643C235.834 74.5722 236.656 74.7369 237.137 74.9586C237.633 75.1631 237.89 75.3851 237.908 75.6244C237.968 76.4542 237.834 77.3624 237.504 78.3489C237.191 79.3342 236.851 79.8402 236.484 79.867C236.42 79.8716 236.207 79.8149 235.846 79.6968C234.759 79.3107 233.864 79.1432 233.162 79.1943C232.476 79.2442 232.01 79.3423 231.764 79.4885C231.534 79.6336 231.429 79.8418 231.448 80.1131C231.467 80.3684 231.658 80.5711 232.022 80.7211C232.385 80.8551 232.827 80.9753 233.348 81.0818C233.884 81.1711 234.465 81.3374 235.092 81.5805C235.735 81.8065 236.333 82.0918 236.887 82.4364C237.441 82.7651 237.918 83.2598 238.319 83.9205C238.72 84.5811 238.953 85.3662 239.02 86.2758C239.089 87.2333 238.905 88.121 238.467 88.9389C238.199 89.4397 237.838 89.8831 237.385 90.269ZM252.917 89.4515C252.932 89.659 252.457 89.8619 251.493 90.0604C250.529 90.2589 249.56 90.3936 248.587 90.4645C247.613 90.5353 246.987 90.5247 246.707 90.4328C246.428 90.3408 246.28 90.1751 246.262 89.9358L245.142 74.5445C245.086 73.7785 247.356 73.2283 251.952 72.8938C254.729 72.6918 256.578 72.7497 257.499 73.0676C258.617 73.4355 259.395 73.9885 259.834 74.7266C260.417 75.6788 260.764 76.9289 260.877 78.4768C261.031 80.5992 260.776 82.1658 260.112 83.1767C259.637 83.9171 259.143 84.4103 258.632 84.656C258.12 84.9018 257.692 85.0854 257.348 85.2066C257.019 85.3108 256.601 85.4054 256.093 85.4905C255.396 85.6054 254.441 85.707 253.228 85.7953L252.652 85.8131L252.917 89.4515ZM252.387 81.8379L252.961 81.7961C253.264 81.774 253.501 81.7167 253.67 81.6241C253.839 81.5156 253.973 81.2652 254.073 80.8729C254.188 80.4635 254.219 79.9078 254.168 79.2056C254.116 78.4875 253.997 77.9508 253.81 77.5954C253.639 77.2228 253.471 77.0104 253.307 76.9582C253.157 76.8889 252.979 76.8618 252.771 76.8769L252.029 76.9309L252.387 81.8379ZM269.888 88.2164C269.904 88.4238 269.429 88.6268 268.465 88.8253C267.501 89.0238 266.524 89.1591 265.535 89.2311C264.561 89.3019 263.927 89.2919 263.631 89.2011C263.352 89.1092 263.204 88.9435 263.186 88.7041L262.066 73.3128C262.036 72.8979 262.533 72.565 263.557 72.3139C264.598 72.0618 265.916 71.8776 267.512 71.7615C269.108 71.6453 270.137 71.5784 270.601 71.5607C271.08 71.5259 271.64 71.5091 272.282 71.5106C272.924 71.512 273.432 71.5552 273.808 71.6402C274.199 71.724 274.624 71.8374 275.084 71.9805C275.559 72.1223 275.935 72.3276 276.211 72.5962C276.486 72.8489 276.758 73.1581 277.025 73.5236C277.506 74.1785 277.792 75.1442 277.885 76.4208C277.977 77.6815 277.839 78.7663 277.473 79.6754C277.12 80.5673 276.609 81.2622 275.94 81.7601C277.985 84.5149 279.036 86.2833 279.093 87.0652C279.15 87.8472 277.607 88.3525 274.463 88.5813C273.553 88.6475 272.92 88.6535 272.563 88.5992C272.206 88.545 271.97 88.3857 271.855 88.1214L269.94 83.3037L269.531 83.3094L269.888 88.2164ZM269.263 79.6231L269.885 79.5778C270.811 79.5105 271.221 78.7587 271.117 77.3225C271.064 76.5884 270.898 76.0791 270.621 75.7945C270.359 75.5087 270.069 75.3774 269.75 75.4006L268.96 75.4581L269.263 79.6231ZM292.507 87.2682L282.358 88.0068C281.576 88.0637 281.045 88.0461 280.766 87.9542C280.486 87.8622 280.338 87.6966 280.321 87.4572L279.218 72.3053C279.188 71.8903 279.35 71.5818 279.704 71.3795C280.074 71.1761 280.746 71.039 281.719 70.9682L291.342 70.2679C291.677 70.2435 291.885 70.7898 291.967 71.9069C292.047 73.008 292.036 73.8589 291.936 74.4598C291.834 75.0448 291.663 75.3459 291.424 75.3634C290.387 75.4388 288.632 75.4623 286.159 75.4337L286.276 77.0374C288.631 76.7698 290.167 76.6099 290.885 76.5576C291.316 76.5263 291.568 77.0133 291.641 78.0186C291.714 79.0239 291.682 79.7963 291.545 80.3357C291.423 80.8579 291.218 81.1295 290.931 81.1504L286.591 81.37L286.703 82.9019C289.464 82.4924 291.372 82.2493 292.425 82.1727C292.76 82.1483 292.968 82.6946 293.05 83.8117C293.131 84.9287 293.121 85.7797 293.019 86.3646C292.917 86.9496 292.746 87.2507 292.507 87.2682ZM307.091 85.1961C306.638 85.582 305.99 85.926 305.145 86.2281C304.316 86.5131 303.223 86.7049 301.866 86.8036C300.526 86.9012 299.241 86.8824 298.012 86.7472C296.783 86.6121 295.895 86.428 295.349 86.195C294.803 85.9621 294.52 85.7179 294.502 85.4626C294.437 84.569 294.497 83.6341 294.683 82.6581C294.867 81.6661 295.135 81.1573 295.486 81.1318C295.55 81.1271 296.228 81.2943 297.52 81.6335C298.812 81.9726 299.777 82.1189 300.415 82.0725C301.053 82.026 301.464 81.932 301.646 81.7904C301.827 81.6328 301.908 81.4264 301.89 81.1711C301.871 80.9157 301.679 80.7051 301.314 80.5392C300.948 80.3573 300.496 80.2137 299.959 80.1084C299.421 79.9871 298.83 79.8055 298.187 79.5636C297.56 79.3204 296.97 79.0425 296.418 78.7298C295.866 78.417 295.391 77.9543 294.993 77.3415C294.595 76.7128 294.365 75.9835 294.305 75.1537C294.047 71.6111 296.033 69.6859 300.261 69.3781C301.841 69.2632 303.213 69.2676 304.377 69.3914C305.54 69.4993 306.362 69.6641 306.844 69.8857C307.34 70.0902 307.596 70.3122 307.614 70.5516C307.674 71.3814 307.54 72.2895 307.211 73.276C306.897 74.2614 306.557 74.7674 306.19 74.7941C306.126 74.7987 305.914 74.742 305.552 74.624C304.465 74.2378 303.571 74.0703 302.868 74.1214C302.182 74.1713 301.716 74.2694 301.47 74.4157C301.24 74.5608 301.135 74.7689 301.155 75.0402C301.173 75.2956 301.364 75.4982 301.728 75.6482C302.091 75.7822 302.533 75.9025 303.054 76.0089C303.59 76.0983 304.171 76.2645 304.799 76.5076C305.441 76.7336 306.039 77.0189 306.594 77.3636C307.147 77.6923 307.624 78.187 308.025 78.8476C308.426 79.5082 308.66 80.2933 308.726 81.2029C308.796 82.1604 308.612 83.0481 308.174 83.866C307.905 84.3668 307.545 84.8102 307.091 85.1961ZM316.693 84.2808C316.694 84.7459 316.47 85.0831 316.02 85.2923C315.586 85.5003 314.779 85.6473 313.598 85.7333C312.417 85.8192 311.42 85.7875 310.607 85.6381C309.809 85.4716 309.398 85.2208 309.373 84.8857C309.345 84.5027 309.878 82.0095 310.971 77.406C312.062 72.7866 312.687 70.1262 312.844 69.425C312.909 69.2117 313.535 68.9977 314.723 68.7829C315.925 68.551 317.212 68.3852 318.585 68.2853C319.973 68.1843 320.756 68.3679 320.935 68.8362C324.68 78.6382 326.559 83.619 326.57 83.7785C326.582 83.9381 326.498 84.1047 326.318 84.2782C325.897 84.6618 325.024 84.9018 323.699 84.9981C320.875 85.2037 319.406 84.9737 319.294 84.3081L319.013 82.7644L316.715 82.9316L316.693 84.2808ZM318.179 78.253L317.507 73.9705L316.98 74.0089L316.887 78.3471L318.179 78.253ZM329.858 84.55C329.06 84.608 328.522 84.607 328.245 84.547C327.967 84.471 327.82 84.3293 327.805 84.1218L326.722 69.2332C326.696 68.8821 327.134 68.5053 328.035 68.1029C328.935 67.6844 329.96 67.4334 331.109 67.3498C332.13 67.2755 332.816 67.4421 333.166 67.8498C333.29 68.0012 333.357 68.1567 333.369 68.3163L334.14 78.9203C336.078 78.6509 337.541 78.4802 338.531 78.4082C338.866 78.3839 339.072 78.9062 339.15 79.9754C339.227 81.0286 339.221 81.9435 339.133 82.7199C339.046 83.4963 338.882 83.8932 338.643 83.9107L329.858 84.55ZM353.003 82.8656L342.854 83.6042C342.072 83.6611 341.541 83.6435 341.262 83.5516C340.983 83.4596 340.834 83.2939 340.817 83.0546L339.714 67.9026C339.684 67.4877 339.846 67.1792 340.2 66.9769C340.57 66.7735 341.242 66.6364 342.216 66.5656L351.838 65.8653C352.173 65.8409 352.382 66.3872 352.463 67.5043C352.543 68.6053 352.533 69.4563 352.432 70.0572C352.33 70.6422 352.16 70.9433 351.92 70.9608C350.883 71.0362 349.128 71.0597 346.655 71.0311L346.772 72.6348C349.127 72.3672 350.663 72.2073 351.382 72.155C351.812 72.1237 352.064 72.6106 352.138 73.616C352.211 74.6213 352.179 75.3937 352.042 75.9331C351.919 76.4553 351.714 76.7269 351.427 76.7478L347.088 76.9674L347.199 78.4993C349.961 78.0898 351.868 77.8467 352.921 77.7701C353.256 77.7457 353.464 78.292 353.546 79.4091C353.627 80.5261 353.617 81.3771 353.515 81.962C353.413 82.547 353.243 82.8481 353.003 82.8656ZM367.588 80.7935C367.135 81.1794 366.486 81.5234 365.642 81.8255C364.812 82.1104 363.719 82.3023 362.363 82.401C361.022 82.4985 359.737 82.4798 358.508 82.3446C357.279 82.2095 356.392 82.0254 355.845 81.7924C355.299 81.5595 355.016 81.3153 354.998 81.06C354.933 80.1664 354.993 79.2315 355.179 78.2555C355.363 77.2635 355.631 76.7547 355.982 76.7292C356.046 76.7245 356.724 76.8917 358.016 77.2309C359.308 77.57 360.273 77.7163 360.911 77.6699C361.55 77.6234 361.96 77.5294 362.142 77.3878C362.323 77.2302 362.404 77.0238 362.386 76.7685C362.367 76.5131 362.175 76.3025 361.81 76.1365C361.444 75.9546 360.993 75.811 360.456 75.7058C359.917 75.5845 359.327 75.4029 358.683 75.1609C358.056 74.9178 357.466 74.6399 356.914 74.3272C356.362 74.0144 355.887 73.5517 355.49 72.9389C355.091 72.3102 354.861 71.5809 354.801 70.7511C354.543 67.2085 356.529 65.2833 360.758 64.9755C362.337 64.8606 363.709 64.865 364.873 64.9888C366.036 65.0967 366.858 65.2615 367.34 65.4831C367.836 65.6876 368.093 65.9096 368.11 66.149C368.171 66.9788 368.036 67.8869 367.707 68.8734C367.394 69.8588 367.053 70.3648 366.686 70.3915C366.623 70.3961 366.41 70.3394 366.048 70.2214C364.961 69.8352 364.067 69.6677 363.365 69.7188C362.679 69.7687 362.212 69.8668 361.966 70.0131C361.736 70.1582 361.631 70.3663 361.651 70.6376C361.67 70.893 361.861 71.0956 362.225 71.2456C362.587 71.3796 363.029 71.4999 363.55 71.6063C364.086 71.6957 364.668 71.8619 365.295 72.105C365.937 72.331 366.535 72.6163 367.09 72.961C367.643 73.2897 368.12 73.7844 368.521 74.445C368.922 75.1056 369.156 75.8907 369.222 76.8003C369.292 77.7578 369.108 78.6455 368.67 79.4634C368.402 79.9642 368.041 80.4076 367.588 80.7935ZM369.704 64.8057C369.675 64.6314 370.12 64.4626 371.039 64.2995C371.956 64.1204 373.037 63.9856 374.282 63.895C375.527 63.8045 376.162 63.9427 376.189 64.3097C376.223 64.7725 376.359 68.6288 376.598 75.8786C376.611 76.2787 376.35 76.6586 375.815 77.0184C375.279 77.3782 374.501 77.5953 373.48 77.6696C372.091 77.7706 371.338 77.4485 371.22 76.7031L369.704 64.8057ZM377.131 80.8931C377.19 81.7069 376.968 82.2846 376.463 82.6261C375.976 82.9824 375.261 83.1949 374.32 83.2634C373.394 83.3307 372.674 83.2388 372.158 82.9876C371.644 82.7523 371.355 82.1958 371.291 81.3181C371.186 79.8819 372.107 79.093 374.054 78.9513C376.001 78.8096 377.027 79.4569 377.131 80.8931Z" fill="black"/>
<defs>
<filter id="filter0_d_36_395" x="1.45459" y="0.9021" width="415.883" height="152.744" filterUnits="userSpaceOnUse" color-interpolation-filters="sRGB">
<feFlood flood-opacity="0" result="BackgroundImageFix"/>
<feColorMatrix in="SourceAlpha" type="matrix" values="0 0 0 0 0 0 0 0 0 0 0 0 0 0 0 0 0 0 127 0" result="hardAlpha"/>
<feOffset dx="2" dy="4"/>
<feComposite in2="hardAlpha" operator="out"/>
<feColorMatrix type="matrix" values="0 0 0 0 0 0 0 0 0 0 0 0 0 0 0 0 0 0 1 0"/>
<feBlend mode="normal" in2="BackgroundImageFix" result="effect1_dropShadow_36_395"/>
<feBlend mode="normal" in="SourceGraphic" in2="effect1_dropShadow_36_395" result="shape"/>
</filter>
</defs>
</svg>
