<svg width="1512" height="283" viewBox="0 0 1512 283" fill="none" xmlns="http://www.w3.org/2000/svg">
<g clip-path="url(#clip0_36_399)">
<path d="M105.222 107.94C85.4857 79.3313 57.7791 73.8535 46.3928 74.6907L34.5771 253.365H1575.35V79.2194C1483.49 15.6981 1436.26 59.168 1424.13 88.8431C1339.38 43.2874 1276.15 92.8533 1255.12 123.331C1185.9 84.9504 1159.43 139.323 1154.84 171.306C1112.79 147.448 1053.19 176.91 1035.4 192.781C936.578 262.223 622.39 234.095 467.047 166.915C433.648 144.329 396.2 160.432 381.651 171.306C350.276 120.113 303.214 127.808 283.604 138.055C212.251 50.2232 134.952 81.3819 105.222 107.94Z" fill="white" stroke="black" stroke-width="2"/>
<path d="M84.8149 129.034L85.7045 131.202L87.9259 130.454C103.132 125.332 127.812 122.201 152.186 129.495C176.429 136.75 200.53 154.354 214.821 191.049L216.091 194.31L218.764 192.051C228.013 184.238 243.664 175.545 260.472 174.686C277.034 173.84 295.066 180.57 309.582 204.254L310.957 206.498L313.128 205.008C329.302 193.908 375.291 176.879 427.951 199.337L429.383 199.947L430.563 198.931C446.843 184.908 476.159 168.012 510.965 163.091C545.666 158.184 585.877 165.161 624.287 198.915L626.494 200.855L628.055 198.365C641.656 176.668 667.684 148.741 701.424 135.384C734.952 122.11 776.356 123.103 821.369 159.578L822.42 160.43L823.708 160.016C846.488 152.694 881.355 146.194 911.949 150.337C927.226 152.406 941.269 157.106 952.219 165.519C963.112 173.889 971.097 186.047 974.145 203.38L975.608 211.703L978.908 203.923C983.302 193.568 993.111 181.971 1008.16 179.962C1023.2 177.955 1044.53 185.371 1072.29 215.477L1073.92 217.248L1075.75 215.682C1089.02 204.332 1113.55 191.126 1143.74 188.718C1173.84 186.318 1209.7 194.63 1245.84 226.493L1247.37 227.846L1249 226.609C1253.55 223.156 1261.66 218.429 1270.99 215.635C1280.32 212.838 1290.57 212.067 1299.67 216.071L1302.48 217.307L1303.13 214.305C1307.15 195.485 1318.8 168.68 1340.58 149.54C1362.22 130.516 1394.03 118.89 1438.94 130.505L1441.32 131.121L1441.98 128.753C1448.11 106.648 1464.19 74.0337 1492.42 48.3494C1520.2 23.0832 1559.76 4.49257 1613.39 9.20362V289.111L-109.349 296.968V5.03631C-63.9597 -3.54307 35.668 9.23644 84.8149 129.034Z" fill="#F4EBCE" stroke="black" stroke-width="5"/>
</g>
<defs>
<clipPath id="clip0_36_399">
<rect width="1728" height="283" fill="white" transform="translate(-111.98)"/>
</clipPath>
</defs>
</svg>
