<svg width="610" height="114" viewBox="0 0 610 114" fill="none" xmlns="http://www.w3.org/2000/svg">
<g filter="url(#filter0_d_36_216)">
<mask id="path-1-inside-1_36_216" fill="white">
<path d="M35.2 3.29999C57.85 3.29999 74.35 18.45 74.35 36.9C74.35 52.8 66.7 63.3 55.15 69.3C61.45 76.65 73.9 92.25 78.25 92.25C78.25 96.45 65.5 107.25 58.6 107.25C53.65 107.25 40.6 91.5 33.4 81.45C33.55 89.85 33.85 96.6 34.6 99.75C29.35 105.15 8.65 104.85 6.1 102.3C4.45 100.65 4.15 62.85 5.05 35.55H4.6C1.6 35.55 0.7 9.9 1.9 8.69999C3.25 7.34999 20.65 3.29999 35.2 3.29999ZM34 27.75L33.55 52.05C39.7 51.6 45.7 49.2 45.7 35.4C45.7 30.45 41.95 27.75 36.85 27.6C35.95 27.6 35.05 27.6 34 27.75ZM118.93 -1.07288e-06C126.88 -1.07288e-06 143.83 6.45 145.03 12.9C145.03 15.6 144.73 18 144.43 20.1C146.68 20.25 148.48 21 149.38 22.2C151.93 26.85 153.28 31.35 153.28 43.8C153.28 82.8 141.73 104.1 123.73 104.1C105.58 104.1 83.9805 100.35 83.9805 57.15C83.9805 14.1 93.1305 -1.07288e-06 118.93 -1.07288e-06ZM127.03 52.05C127.03 45.75 126.88 40.5 126.58 36.15C125.08 35.85 123.88 35.1 123.43 33.6C126.13 26.4 122.38 20.55 120.58 20.55C116.98 20.55 113.38 28.5 113.38 52.05C113.38 75.6 113.68 86.55 120.43 86.55C126.73 86.55 127.03 73.35 127.03 52.05ZM183.605 2.54999L214.055 5.1C215.705 5.24999 216.905 6.45 217.205 8.09999C219.755 23.1 231.155 94.05 231.155 97.5C231.155 99.6 214.655 103.95 209.405 104.4C208.055 104.55 206.705 103.65 206.255 102.3C203.705 94.35 200.855 72.75 200.855 72.75H193.055C191.705 72.75 190.805 73.8 190.655 75C190.655 75 189.005 83.4 188.705 86.25C188.255 89.4 187.655 98.85 187.655 98.85C187.655 98.85 162.755 98.85 160.205 97.05C158.855 85.05 173.555 20.4 179.705 5.1C180.305 3.45 181.805 2.39999 183.605 2.54999ZM192.605 57.9H197.705C198.605 57.9 199.205 57.15 199.055 56.25L195.305 32.85L191.405 56.55C191.255 57.3 191.855 57.9 192.605 57.9ZM277.205 3.14999C295.355 3.14999 314.255 15.6 314.255 43.95C314.255 72.15 310.205 105.3 266.855 105.3C264.905 105.3 261.305 98.7 261.305 98.7C261.305 98.7 249.305 101.25 248.255 100.05C243.605 95.55 247.805 35.1 247.805 35.1C247.805 35.1 245.555 36.45 244.205 36.45C242.855 36.45 236.555 19.35 236.555 16.5C236.555 13.65 254.405 3.14999 277.205 3.14999ZM274.205 29.25C272.105 31.35 271.355 81.45 273.005 81.45C280.655 81.45 286.055 60.9 286.055 44.1C286.055 23.7 276.155 27.15 274.205 29.25ZM360.164 10.05L359.264 26.85C365.114 13.2 373.064 3.14999 380.264 3.14999C392.114 3.14999 397.964 12.15 398.714 30.3C405.014 16.5 413.864 6.59999 421.814 6.59999C431.114 6.59999 442.514 13.65 442.514 34.65V97.8C442.514 106.8 414.314 103.35 412.364 101.25C409.064 97.95 415.064 37.2 406.814 37.2C402.914 37.2 400.514 49.5 399.314 62.55C399.464 79.5 399.464 98.1 398.114 99.9C392.564 105.45 370.814 101.1 370.814 98.55C370.814 96 373.814 37.2 366.014 37.2C358.964 37.2 357.464 81.15 357.314 90.15C357.314 94.05 357.614 97.35 357.914 99.15C352.514 104.25 329.714 103.2 327.464 100.5C325.814 98.85 325.514 65.1 327.014 38.85C327.014 37.8 324.164 37.95 323.414 37.2C322.064 35.7 328.964 13.95 330.014 12.9C333.464 9.75 360.314 8.25 360.164 10.05ZM474.441 2.54999L504.891 5.1C506.541 5.24999 507.741 6.45 508.041 8.09999C510.591 23.1 521.991 94.05 521.991 97.5C521.991 99.6 505.491 103.95 500.241 104.4C498.891 104.55 497.541 103.65 497.091 102.3C494.541 94.35 491.691 72.75 491.691 72.75H483.891C482.541 72.75 481.641 73.8 481.491 75C481.491 75 479.841 83.4 479.541 86.25C479.091 89.4 478.491 98.85 478.491 98.85C478.491 98.85 453.591 98.85 451.041 97.05C449.691 85.05 464.391 20.4 470.541 5.1C471.141 3.45 472.641 2.39999 474.441 2.54999ZM483.441 57.9H488.541C489.441 57.9 490.041 57.15 489.891 56.25L486.141 32.85L482.241 56.55C482.091 57.3 482.691 57.9 483.441 57.9ZM563.991 3.29999C586.641 3.29999 603.141 18.45 603.141 36.9C603.141 61.35 584.841 73.5 562.191 74.85C562.191 86.25 562.491 95.85 563.391 99.75C558.141 105.15 537.441 104.85 534.891 102.3C533.241 100.65 532.941 62.85 533.841 35.55H533.391C530.391 35.55 529.491 9.9 530.691 8.69999C532.041 7.34999 549.441 3.29999 563.991 3.29999ZM562.791 27.75L562.341 52.05C568.491 51.6 574.491 49.2 574.491 35.4C574.491 30.45 570.741 27.75 565.641 27.6C564.741 27.6 563.841 27.6 562.791 27.75Z"/>
</mask>
<path d="M35.2 3.29999C57.85 3.29999 74.35 18.45 74.35 36.9C74.35 52.8 66.7 63.3 55.15 69.3C61.45 76.65 73.9 92.25 78.25 92.25C78.25 96.45 65.5 107.25 58.6 107.25C53.65 107.25 40.6 91.5 33.4 81.45C33.55 89.85 33.85 96.6 34.6 99.75C29.35 105.15 8.65 104.85 6.1 102.3C4.45 100.65 4.15 62.85 5.05 35.55H4.6C1.6 35.55 0.7 9.9 1.9 8.69999C3.25 7.34999 20.65 3.29999 35.2 3.29999ZM34 27.75L33.55 52.05C39.7 51.6 45.7 49.2 45.7 35.4C45.7 30.45 41.95 27.75 36.85 27.6C35.95 27.6 35.05 27.6 34 27.75ZM118.93 -1.07288e-06C126.88 -1.07288e-06 143.83 6.45 145.03 12.9C145.03 15.6 144.73 18 144.43 20.1C146.68 20.25 148.48 21 149.38 22.2C151.93 26.85 153.28 31.35 153.28 43.8C153.28 82.8 141.73 104.1 123.73 104.1C105.58 104.1 83.9805 100.35 83.9805 57.15C83.9805 14.1 93.1305 -1.07288e-06 118.93 -1.07288e-06ZM127.03 52.05C127.03 45.75 126.88 40.5 126.58 36.15C125.08 35.85 123.88 35.1 123.43 33.6C126.13 26.4 122.38 20.55 120.58 20.55C116.98 20.55 113.38 28.5 113.38 52.05C113.38 75.6 113.68 86.55 120.43 86.55C126.73 86.55 127.03 73.35 127.03 52.05ZM183.605 2.54999L214.055 5.1C215.705 5.24999 216.905 6.45 217.205 8.09999C219.755 23.1 231.155 94.05 231.155 97.5C231.155 99.6 214.655 103.95 209.405 104.4C208.055 104.55 206.705 103.65 206.255 102.3C203.705 94.35 200.855 72.75 200.855 72.75H193.055C191.705 72.75 190.805 73.8 190.655 75C190.655 75 189.005 83.4 188.705 86.25C188.255 89.4 187.655 98.85 187.655 98.85C187.655 98.85 162.755 98.85 160.205 97.05C158.855 85.05 173.555 20.4 179.705 5.1C180.305 3.45 181.805 2.39999 183.605 2.54999ZM192.605 57.9H197.705C198.605 57.9 199.205 57.15 199.055 56.25L195.305 32.85L191.405 56.55C191.255 57.3 191.855 57.9 192.605 57.9ZM277.205 3.14999C295.355 3.14999 314.255 15.6 314.255 43.95C314.255 72.15 310.205 105.3 266.855 105.3C264.905 105.3 261.305 98.7 261.305 98.7C261.305 98.7 249.305 101.25 248.255 100.05C243.605 95.55 247.805 35.1 247.805 35.1C247.805 35.1 245.555 36.45 244.205 36.45C242.855 36.45 236.555 19.35 236.555 16.5C236.555 13.65 254.405 3.14999 277.205 3.14999ZM274.205 29.25C272.105 31.35 271.355 81.45 273.005 81.45C280.655 81.45 286.055 60.9 286.055 44.1C286.055 23.7 276.155 27.15 274.205 29.25ZM360.164 10.05L359.264 26.85C365.114 13.2 373.064 3.14999 380.264 3.14999C392.114 3.14999 397.964 12.15 398.714 30.3C405.014 16.5 413.864 6.59999 421.814 6.59999C431.114 6.59999 442.514 13.65 442.514 34.65V97.8C442.514 106.8 414.314 103.35 412.364 101.25C409.064 97.95 415.064 37.2 406.814 37.2C402.914 37.2 400.514 49.5 399.314 62.55C399.464 79.5 399.464 98.1 398.114 99.9C392.564 105.45 370.814 101.1 370.814 98.55C370.814 96 373.814 37.2 366.014 37.2C358.964 37.2 357.464 81.15 357.314 90.15C357.314 94.05 357.614 97.35 357.914 99.15C352.514 104.25 329.714 103.2 327.464 100.5C325.814 98.85 325.514 65.1 327.014 38.85C327.014 37.8 324.164 37.95 323.414 37.2C322.064 35.7 328.964 13.95 330.014 12.9C333.464 9.75 360.314 8.25 360.164 10.05ZM474.441 2.54999L504.891 5.1C506.541 5.24999 507.741 6.45 508.041 8.09999C510.591 23.1 521.991 94.05 521.991 97.5C521.991 99.6 505.491 103.95 500.241 104.4C498.891 104.55 497.541 103.65 497.091 102.3C494.541 94.35 491.691 72.75 491.691 72.75H483.891C482.541 72.75 481.641 73.8 481.491 75C481.491 75 479.841 83.4 479.541 86.25C479.091 89.4 478.491 98.85 478.491 98.85C478.491 98.85 453.591 98.85 451.041 97.05C449.691 85.05 464.391 20.4 470.541 5.1C471.141 3.45 472.641 2.39999 474.441 2.54999ZM483.441 57.9H488.541C489.441 57.9 490.041 57.15 489.891 56.25L486.141 32.85L482.241 56.55C482.091 57.3 482.691 57.9 483.441 57.9ZM563.991 3.29999C586.641 3.29999 603.141 18.45 603.141 36.9C603.141 61.35 584.841 73.5 562.191 74.85C562.191 86.25 562.491 95.85 563.391 99.75C558.141 105.15 537.441 104.85 534.891 102.3C533.241 100.65 532.941 62.85 533.841 35.55H533.391C530.391 35.55 529.491 9.9 530.691 8.69999C532.041 7.34999 549.441 3.29999 563.991 3.29999ZM562.791 27.75L562.341 52.05C568.491 51.6 574.491 49.2 574.491 35.4C574.491 30.45 570.741 27.75 565.641 27.6C564.741 27.6 563.841 27.6 562.791 27.75Z" fill="#FCCB06"/>
<path d="M55.15 69.3L54.228 67.5252L51.9908 68.6874L53.6315 70.6016L55.15 69.3ZM78.25 92.25H80.25V90.25H78.25V92.25ZM33.4 81.45L35.0258 80.2852L31.2857 75.0646L31.4003 81.4857L33.4 81.45ZM34.6 99.75L36.034 101.144L36.8002 100.356L36.5456 99.2868L34.6 99.75ZM6.1 102.3L4.68579 103.714L6.1 102.3ZM5.05 35.55L7.04891 35.6159L7.11702 33.55H5.05V35.55ZM1.9 8.69999L0.485786 7.28578L0.485785 7.28578L1.9 8.69999ZM34 27.75L33.7172 25.7701L32.0319 26.0108L32.0003 27.713L34 27.75ZM33.55 52.05L31.5503 52.013L31.5098 54.2046L33.696 54.0447L33.55 52.05ZM36.85 27.6L36.9088 25.6009L36.8794 25.6H36.85V27.6ZM35.2 5.29999C57.0023 5.29999 72.35 19.7951 72.35 36.9H76.35C76.35 17.1049 58.6977 1.29999 35.2 1.29999V5.29999ZM72.35 36.9C72.35 52.0123 65.1531 61.8498 54.228 67.5252L56.072 71.0748C68.2469 64.7502 76.35 53.5877 76.35 36.9H72.35ZM53.6315 70.6016C56.7343 74.2215 61.4853 80.0337 65.961 84.8871C68.2017 87.3169 70.4301 89.5697 72.4048 91.2289C73.3904 92.057 74.3598 92.7773 75.2721 93.3004C76.1354 93.7953 77.177 94.25 78.25 94.25V90.25C78.2675 90.25 78.1936 90.2518 78.0035 90.1852C77.8183 90.1204 77.5722 90.0083 77.2617 89.8303C76.6359 89.4715 75.8698 88.9157 74.978 88.1664C73.198 86.6709 71.1046 84.5644 68.9015 82.1754C64.4897 77.3913 59.8657 71.7285 56.6685 67.9984L53.6315 70.6016ZM76.25 92.25C76.25 92.3134 76.2104 92.6074 75.9138 93.1786C75.6334 93.7185 75.1949 94.3699 74.5981 95.1041C73.4062 96.5704 71.7075 98.2149 69.7666 99.7604C67.8284 101.304 65.7058 102.703 63.6899 103.706C61.6316 104.731 59.8699 105.25 58.6 105.25V109.25C60.7801 109.25 63.1997 108.419 65.4726 107.287C67.788 106.135 70.1466 104.571 72.2584 102.89C74.3675 101.21 76.2876 99.3671 77.702 97.6272C78.4082 96.7583 79.0197 95.8768 79.4636 95.0222C79.8912 94.1989 80.25 93.2366 80.25 92.25H76.25ZM58.6 105.25C58.4626 105.25 58.0621 105.178 57.3322 104.789C56.6375 104.418 55.8012 103.846 54.8398 103.073C52.9194 101.529 50.6759 99.3286 48.3152 96.7642C43.6025 91.6449 38.5912 85.262 35.0258 80.2852L31.7742 82.6148C35.4088 87.688 40.5225 94.2051 45.3723 99.4733C47.7929 102.103 50.19 104.467 52.3336 106.191C53.4043 107.052 54.4558 107.788 55.4504 108.318C56.4098 108.83 57.4999 109.25 58.6 109.25V105.25ZM31.4003 81.4857C31.4755 85.6949 31.5886 89.5152 31.7786 92.6883C31.9664 95.8245 32.2353 98.4531 32.6544 100.213L36.5456 99.2868C36.2147 97.8969 35.9586 95.5755 35.7714 92.4492C35.5864 89.3598 35.4745 85.6051 35.3997 81.4143L31.4003 81.4857ZM33.166 98.3558C32.251 99.297 30.4229 100.179 27.7977 100.847C25.247 101.496 22.2294 101.872 19.2461 102.008C16.2654 102.145 13.3914 102.038 11.1425 101.753C10.0147 101.609 9.08974 101.427 8.40667 101.226C7.6366 100.999 7.45571 100.827 7.51421 100.886L4.68579 103.714C5.38179 104.41 6.40558 104.806 7.27615 105.062C8.2337 105.345 9.3853 105.562 10.6387 105.721C13.1524 106.04 16.2596 106.149 19.4289 106.004C22.5956 105.859 25.8968 105.458 28.7836 104.723C31.5959 104.008 34.324 102.903 36.034 101.144L33.166 98.3558ZM7.51421 100.886C7.64759 101.019 7.72204 101.138 7.7531 101.192C7.7873 101.251 7.80227 101.288 7.80285 101.29C7.80435 101.293 7.79883 101.28 7.78788 101.245C7.77721 101.21 7.76365 101.162 7.74782 101.098C7.68106 100.828 7.60513 100.408 7.52703 99.816C7.37214 98.6429 7.23192 96.9807 7.10986 94.8964C6.86636 90.7383 6.7028 85.0402 6.61858 78.5179C6.45022 65.4792 6.59994 49.2348 7.04891 35.6159L3.05109 35.4841C2.60006 49.1652 2.44978 65.4708 2.61892 78.5696C2.70345 85.1161 2.86801 90.8836 3.1167 95.1302C3.24073 97.2482 3.38763 99.0231 3.56145 100.34C3.6477 100.993 3.74653 101.58 3.865 102.059C3.92391 102.297 3.99806 102.551 4.09568 102.792C4.17615 102.991 4.34787 103.376 4.68579 103.714L7.51421 100.886ZM5.05 33.55H4.6V37.55H5.05V33.55ZM4.6 33.55C5.18801 33.55 5.505 33.8756 5.54183 33.9161C5.57756 33.9554 5.51835 33.9 5.40431 33.6406C5.18221 33.1354 4.93918 32.2958 4.70447 31.129C4.24192 28.8296 3.89293 25.6846 3.67031 22.4382C3.44852 19.2037 3.35696 15.9409 3.39354 13.4307C3.4119 12.1703 3.46215 11.1361 3.53784 10.4039C3.57622 10.0326 3.61636 9.78774 3.64834 9.64921C3.66457 9.57892 3.66896 9.57937 3.65131 9.62363C3.64827 9.63123 3.56178 9.86664 3.31421 10.1142L0.485785 7.28578C0.163217 7.60835 0.00582922 7.96651 -0.0640008 8.14157C-0.148453 8.35328 -0.206761 8.56587 -0.249126 8.74936C-0.33433 9.11841 -0.394971 9.54769 -0.440961 9.99259C-0.534023 10.8928 -0.586905 12.0594 -0.606038 13.3724C-0.644459 16.0091 -0.548522 19.3838 -0.320314 22.7118C-0.0929264 26.0279 0.270581 29.3704 0.783027 31.9179C1.03582 33.1745 1.34592 34.3482 1.74256 35.2504C1.9379 35.6948 2.20447 36.1916 2.58239 36.6072C2.96141 37.024 3.63699 37.55 4.6 37.55V33.55ZM3.31421 10.1142C3.16554 10.2629 3.0772 10.2836 3.23968 10.2014C3.35909 10.1409 3.55117 10.0564 3.83018 9.95067C4.38529 9.74038 5.16897 9.4898 6.16231 9.21362C8.14192 8.66323 10.8397 8.04269 13.9665 7.45988C20.2283 6.29274 28.0866 5.29999 35.2 5.29999V1.29999C27.7634 1.29999 19.6467 2.33225 13.2335 3.5276C10.0228 4.12605 7.20808 4.77114 5.09082 5.3598C4.03572 5.65315 3.12486 5.94047 2.41318 6.21006C2.05879 6.34431 1.72441 6.48516 1.43352 6.63238C1.18569 6.75779 0.803208 6.96836 0.485786 7.28578L3.31421 10.1142ZM32.0003 27.713L31.5503 52.013L35.5497 52.087L35.9997 27.787L32.0003 27.713ZM33.696 54.0447C36.9379 53.8075 40.5938 53.0344 43.3793 50.1108C46.1547 47.1978 47.7 42.5395 47.7 35.4H43.7C43.7 42.0605 42.2453 45.5022 40.4832 47.3517C38.7312 49.1906 36.3121 49.8425 33.404 50.0553L33.696 54.0447ZM47.7 35.4C47.7 32.3688 46.5268 29.8793 44.4679 28.1636C42.4592 26.4896 39.7735 25.6851 36.9088 25.6009L36.7912 29.5991C39.0265 29.6649 40.7658 30.2854 41.9071 31.2364C42.9982 32.1457 43.7 33.4812 43.7 35.4H47.7ZM36.85 25.6C35.9562 25.6 34.9249 25.5976 33.7172 25.7701L34.2828 29.7299C35.1751 29.6024 35.9438 29.6 36.85 29.6V25.6ZM145.03 12.9H147.03V12.7155L146.997 12.5342L145.03 12.9ZM144.43 20.1L142.451 19.8172L142.146 21.9521L144.297 22.0956L144.43 20.1ZM149.38 22.2L151.134 21.2383L151.066 21.1137L150.98 21L149.38 22.2ZM126.58 36.15L128.576 36.0124L128.471 34.4884L126.973 34.1888L126.58 36.15ZM123.43 33.6L121.558 32.8977L121.321 33.529L121.515 34.1747L123.43 33.6ZM118.93 2C122.519 2 128.454 3.50097 133.692 5.85545C136.289 7.02266 138.606 8.35217 140.312 9.72255C142.081 11.144 142.898 12.372 143.064 13.2658L146.997 12.5342C146.563 10.203 144.811 8.20595 142.817 6.604C140.759 4.95095 138.116 3.45858 135.332 2.20705C129.807 -0.275978 123.292 -2 118.93 -2V2ZM143.03 12.9C143.03 15.4547 142.747 17.7418 142.451 19.8172L146.41 20.3828C146.714 18.2582 147.03 15.7453 147.03 12.9H143.03ZM144.297 22.0956C146.281 22.2278 147.383 22.8703 147.78 23.4L150.98 21C149.578 19.1297 147.08 18.2722 144.564 18.1044L144.297 22.0956ZM147.627 23.1617C149.953 27.4036 151.28 31.5276 151.28 43.8H155.28C155.28 31.1724 153.908 26.2964 151.134 21.2383L147.627 23.1617ZM151.28 43.8C151.28 63.1487 148.408 77.8695 143.469 87.6753C138.563 97.4157 131.761 102.1 123.73 102.1V106.1C133.7 106.1 141.673 100.134 147.042 89.4747C152.378 78.8805 155.28 63.4513 155.28 43.8H151.28ZM123.73 102.1C114.707 102.1 105.409 101.139 98.3233 95.2833C91.3084 89.4862 85.9805 78.4621 85.9805 57.15H81.9805C81.9805 79.0379 87.4525 91.4888 95.7752 98.3667C104.027 105.186 114.604 106.1 123.73 106.1V102.1ZM85.9805 57.15C85.9805 35.642 88.2915 21.8684 93.4811 13.4838C98.4964 5.38082 106.427 2 118.93 2V-2C105.634 -2 96.0895 1.66918 90.0799 11.3787C84.2444 20.8066 81.9805 35.608 81.9805 57.15H85.9805ZM129.03 52.05C129.03 45.7217 128.88 40.4229 128.576 36.0124L124.585 36.2876C124.881 40.5771 125.03 45.7783 125.03 52.05H129.03ZM126.973 34.1888C125.905 33.9753 125.51 33.5709 125.346 33.0253L121.515 34.1747C122.251 36.6291 124.256 37.7247 126.188 38.1112L126.973 34.1888ZM125.303 34.3022C126.829 30.2344 126.55 26.4888 125.581 23.7156C125.101 22.3397 124.435 21.1578 123.688 20.2803C123.315 19.8427 122.889 19.4412 122.415 19.1352C121.961 18.8419 121.327 18.55 120.58 18.55V22.55C120.283 22.55 120.161 22.4409 120.246 22.4956C120.311 22.5377 120.452 22.6495 120.642 22.8728C121.02 23.3172 121.46 24.0478 121.805 25.0344C122.486 26.9862 122.732 29.7656 121.558 32.8977L125.303 34.3022ZM120.58 18.55C118.847 18.55 117.419 19.532 116.343 20.9521C115.281 22.3525 114.409 24.3566 113.701 26.9406C112.282 32.1265 111.38 40.2093 111.38 52.05H115.38C115.38 40.3407 116.279 32.6735 117.559 27.9968C118.202 25.6496 118.905 24.1943 119.531 23.3682C120.142 22.5618 120.513 22.55 120.58 22.55V18.55ZM111.38 52.05C111.38 63.7593 111.449 72.5734 112.4 78.4505C112.873 81.3783 113.602 83.8474 114.843 85.6189C116.185 87.5326 118.073 88.55 120.43 88.55V84.55C119.413 84.55 118.733 84.1986 118.119 83.3232C117.406 82.3057 116.794 80.5655 116.349 77.812C115.461 72.3266 115.38 63.8907 115.38 52.05H111.38ZM120.43 88.55C122.894 88.55 124.674 87.1769 125.848 85.1608C126.96 83.251 127.631 80.6251 128.072 77.5738C128.96 71.4379 129.03 62.6511 129.03 52.05H125.03C125.03 62.7489 124.951 71.2121 124.114 77.0012C123.692 79.9124 123.107 81.9178 122.391 83.1486C121.736 84.2731 121.117 84.55 120.43 84.55V88.55ZM183.605 2.54999L183.772 0.556969L183.771 0.556901L183.605 2.54999ZM214.055 5.1L214.236 3.10821L214.229 3.10757L214.222 3.10697L214.055 5.1ZM217.205 8.09999L219.177 7.7648L219.175 7.7535L219.173 7.74222L217.205 8.09999ZM209.405 104.4L209.234 102.407L209.209 102.409L209.184 102.412L209.405 104.4ZM206.255 102.3L204.351 102.911L204.354 102.922L204.358 102.932L206.255 102.3ZM200.855 72.75L202.838 72.4884L202.609 70.75H200.855V72.75ZM190.655 75L192.618 75.3855L192.631 75.3172L192.64 75.2481L190.655 75ZM188.705 86.25L190.685 86.5328L190.69 86.4962L190.694 86.4594L188.705 86.25ZM187.655 98.85V100.85H189.532L189.651 98.9767L187.655 98.85ZM160.205 97.05L158.218 97.2736L158.318 98.166L159.052 98.6839L160.205 97.05ZM179.705 5.1L181.561 5.84591L181.573 5.8149L181.585 5.78348L179.705 5.1ZM199.055 56.25L197.08 56.5665L197.082 56.5788L199.055 56.25ZM195.305 32.85L197.28 32.5335L193.332 32.5252L195.305 32.85ZM191.405 56.55L193.366 56.9422L193.373 56.9086L193.379 56.8747L191.405 56.55ZM183.438 4.54302L213.888 7.09302L214.222 3.10697L183.772 0.556969L183.438 4.54302ZM213.874 7.09178C214.54 7.15236 215.082 7.60126 215.237 8.45777L219.173 7.74222C218.729 5.29873 216.87 3.34763 214.236 3.10821L213.874 7.09178ZM215.233 8.43518C216.506 15.9231 219.992 37.401 223.161 57.4436C224.745 67.4636 226.249 77.1188 227.356 84.4826C227.91 88.1654 228.364 91.2689 228.679 93.5562C228.837 94.7008 228.958 95.6325 229.04 96.3266C229.081 96.6742 229.111 96.9534 229.131 97.1654C229.14 97.2712 229.147 97.354 229.151 97.4161C229.155 97.4829 229.155 97.5062 229.155 97.5H233.155C233.155 97.1429 233.093 96.5373 233.013 95.8579C232.926 95.1263 232.801 94.1654 232.642 93.0104C232.323 90.6986 231.866 87.576 231.312 83.8877C230.202 76.5093 228.696 66.8426 227.112 56.8189C223.943 36.7739 220.454 15.2769 219.177 7.7648L215.233 8.43518ZM229.155 97.5C229.155 96.9721 229.406 96.6699 229.429 96.6422C229.467 96.5958 229.448 96.6317 229.294 96.7388C228.992 96.949 228.466 97.2316 227.696 97.5674C226.178 98.229 224.043 98.9564 221.684 99.65C216.939 101.046 211.655 102.2 209.234 102.407L209.576 106.393C212.405 106.15 217.996 104.904 222.813 103.487C225.236 102.775 227.554 101.993 229.294 101.234C230.153 100.86 230.957 100.455 231.578 100.023C231.885 99.8094 232.226 99.536 232.508 99.195C232.775 98.8727 233.155 98.2904 233.155 97.5H229.155ZM209.184 102.412C208.835 102.451 208.325 102.185 208.152 101.668L204.358 102.932C205.085 105.115 207.275 106.649 209.626 106.388L209.184 102.412ZM208.16 101.689C206.939 97.8828 205.609 90.648 204.573 84.2253C204.06 81.0435 203.626 78.1074 203.32 75.9664C203.167 74.8962 203.047 74.0253 202.964 73.4226C202.923 73.1213 202.891 72.887 202.87 72.7284C202.859 72.6491 202.851 72.5888 202.846 72.5484C202.843 72.5282 202.841 72.513 202.84 72.503C202.839 72.498 202.839 72.4942 202.838 72.4918C202.838 72.4906 202.838 72.4897 202.838 72.4891C202.838 72.4888 202.838 72.4886 202.838 72.4885C202.838 72.4884 202.838 72.4884 200.855 72.75C198.872 73.0116 198.872 73.0118 198.872 73.012C198.872 73.0122 198.872 73.0125 198.872 73.0129C198.873 73.0136 198.873 73.0147 198.873 73.0161C198.873 73.0189 198.874 73.023 198.874 73.0284C198.876 73.0392 198.878 73.0551 198.881 73.076C198.886 73.1179 198.895 73.1797 198.905 73.2606C198.927 73.4223 198.959 73.6599 199.001 73.9647C199.084 74.5743 199.206 75.4531 199.36 76.5321C199.669 78.6895 200.106 81.6503 200.624 84.8622C201.651 91.227 203.022 98.7672 204.351 102.911L208.16 101.689ZM200.855 70.75H193.055V74.75H200.855V70.75ZM193.055 70.75C190.483 70.75 188.917 72.7781 188.671 74.7519L192.64 75.2481C192.664 75.0538 192.746 74.9128 192.819 74.8392C192.853 74.8054 192.884 74.7861 192.912 74.7743C192.938 74.7634 192.981 74.75 193.055 74.75V70.75ZM190.655 75C188.693 74.6145 188.693 74.6146 188.693 74.6147C188.693 74.6147 188.693 74.6149 188.692 74.615C188.692 74.6153 188.692 74.6157 188.692 74.6163C188.692 74.6174 188.692 74.619 188.691 74.6211C188.69 74.6253 188.689 74.6315 188.688 74.6396C188.684 74.6559 188.68 74.68 188.674 74.7115C188.661 74.7744 188.643 74.8667 188.62 74.9851C188.574 75.2218 188.508 75.5628 188.428 75.9808C188.268 76.8164 188.052 77.9609 187.825 79.1958C187.379 81.6312 186.876 84.5244 186.716 86.0406L190.694 86.4594C190.834 85.1256 191.306 82.3938 191.76 79.9167C191.984 78.6953 192.198 77.5618 192.357 76.7333C192.436 76.3192 192.501 75.9817 192.547 75.7479C192.57 75.631 192.587 75.5401 192.599 75.4786C192.605 75.4478 192.61 75.4244 192.613 75.4087C192.615 75.4009 192.616 75.395 192.616 75.3911C192.617 75.3892 192.617 75.3877 192.617 75.3868C192.617 75.3863 192.617 75.386 192.618 75.3858C192.618 75.3857 192.618 75.3856 192.618 75.3855C192.618 75.3855 192.618 75.3855 190.655 75ZM186.725 85.9672C186.489 87.622 186.222 90.8442 186.017 93.582C185.913 94.9662 185.824 96.2508 185.76 97.1892C185.729 97.6585 185.703 98.0415 185.686 98.3074C185.677 98.4404 185.671 98.5441 185.666 98.6146C185.664 98.6499 185.662 98.677 185.661 98.6952C185.66 98.7044 185.66 98.7113 185.66 98.716C185.659 98.7183 185.659 98.7201 185.659 98.7213C185.659 98.7219 185.659 98.7224 185.659 98.7227C185.659 98.7229 185.659 98.723 185.659 98.7231C185.659 98.7232 185.659 98.7233 187.655 98.85C189.651 98.9767 189.651 98.9767 189.651 98.9767C189.651 98.9766 189.651 98.9765 189.651 98.9764C189.651 98.9762 189.651 98.9758 189.651 98.9752C189.651 98.9741 189.651 98.9725 189.651 98.9703C189.652 98.9659 189.652 98.9592 189.653 98.9504C189.654 98.9327 189.656 98.9062 189.658 98.8716C189.662 98.8022 189.669 98.6998 189.677 98.5682C189.695 98.305 189.72 97.9251 189.751 97.4593C189.814 96.5273 189.903 95.2526 190.006 93.8805C190.213 91.1058 190.471 88.028 190.685 86.5328L186.725 85.9672ZM187.655 98.85C187.655 96.85 187.655 96.85 187.655 96.85C187.655 96.85 187.655 96.85 187.654 96.85C187.654 96.85 187.653 96.85 187.651 96.85C187.648 96.85 187.644 96.85 187.638 96.85C187.627 96.85 187.609 96.85 187.586 96.8499C187.54 96.8499 187.47 96.8498 187.38 96.8496C187.198 96.8491 186.931 96.8483 186.59 96.8465C185.908 96.843 184.93 96.836 183.748 96.822C181.383 96.794 178.207 96.738 174.955 96.6262C171.696 96.5141 168.391 96.347 165.757 96.0994C164.436 95.9753 163.322 95.8343 162.483 95.678C162.062 95.5996 161.744 95.5235 161.52 95.4547C161.259 95.3749 161.256 95.3435 161.358 95.4161L159.052 98.6839C159.473 98.9815 159.963 99.1611 160.347 99.279C160.768 99.408 161.246 99.5164 161.75 99.6103C162.761 99.7985 164.01 99.9529 165.383 100.082C168.135 100.341 171.532 100.511 174.818 100.624C178.109 100.737 181.318 100.794 183.701 100.822C184.893 100.836 185.88 100.843 186.57 100.846C186.915 100.848 187.185 100.849 187.37 100.85C187.462 100.85 187.533 100.85 187.581 100.85C187.605 100.85 187.624 100.85 187.636 100.85C187.642 100.85 187.647 100.85 187.65 100.85C187.652 100.85 187.653 100.85 187.654 100.85C187.654 100.85 187.654 100.85 187.655 100.85C187.655 100.85 187.655 100.85 187.655 98.85ZM162.193 96.8264C162.049 95.5485 162.111 93.4035 162.394 90.4737C162.673 87.5847 163.154 84.0601 163.792 80.0894C165.069 72.1504 166.964 62.5046 169.097 52.7392C173.376 33.1436 178.558 13.3168 181.561 5.84591L177.849 4.35408C174.702 12.1832 169.459 32.3314 165.189 51.8858C163.046 61.6954 161.135 71.4183 159.843 79.4544C159.197 83.4711 158.703 87.0856 158.412 90.0888C158.126 93.0512 158.024 95.5515 158.218 97.2736L162.193 96.8264ZM181.585 5.78348C181.898 4.92227 182.6 4.47313 183.439 4.54308L183.771 0.556901C181.011 0.326857 178.712 1.97773 177.825 4.41651L181.585 5.78348ZM192.605 59.9H197.705V55.9H192.605V59.9ZM197.705 59.9C199.925 59.9 201.367 57.9561 201.028 55.9212L197.082 56.5788C197.07 56.5029 197.079 56.3269 197.222 56.1513C197.37 55.9682 197.573 55.9 197.705 55.9V59.9ZM201.03 55.9335L197.28 32.5335L193.33 33.1665L197.08 56.5665L201.03 55.9335ZM193.332 32.5252L189.432 56.2253L193.379 56.8747L197.279 33.1747L193.332 32.5252ZM189.444 56.1578C188.999 58.3816 190.846 59.9 192.605 59.9V55.9C192.76 55.9 192.965 55.963 193.137 56.1497C193.33 56.3586 193.422 56.6656 193.366 56.9422L189.444 56.1578ZM261.305 98.7L263.061 97.7423L262.347 96.4339L260.889 96.7437L261.305 98.7ZM248.255 100.05L249.76 98.733L249.706 98.6705L249.646 98.6128L248.255 100.05ZM247.805 35.1L249.8 35.2386L250.066 31.4109L246.776 33.385L247.805 35.1ZM274.205 29.25L275.619 30.6642L275.645 30.638L275.671 30.6109L274.205 29.25ZM277.205 5.14999C285.837 5.14999 294.584 8.111 301.158 14.3675C307.702 20.5966 312.255 30.2462 312.255 43.95H316.255C316.255 29.3038 311.358 18.5534 303.915 11.47C296.501 4.41399 286.723 1.14999 277.205 1.14999V5.14999ZM312.255 43.95C312.255 58.0482 311.22 72.9198 305.055 84.2437C302 89.8539 297.69 94.5825 291.589 97.9257C285.473 101.277 277.44 103.3 266.855 103.3V107.3C277.945 107.3 286.675 105.179 293.511 101.434C300.361 97.68 305.191 92.3586 308.568 86.1563C315.265 73.8552 316.255 58.0518 316.255 43.95H312.255ZM266.855 103.3C267.151 103.3 267.262 103.412 267.127 103.327C267.016 103.257 266.835 103.113 266.587 102.863C266.095 102.365 265.539 101.648 264.993 100.861C264.456 100.086 263.971 99.3033 263.617 98.709C263.441 98.4133 263.3 98.1678 263.204 97.9977C263.156 97.9128 263.119 97.8468 263.094 97.8032C263.082 97.7813 263.073 97.7651 263.068 97.7548C263.065 97.7497 263.063 97.746 263.062 97.7439C263.061 97.7429 263.061 97.7422 263.061 97.7419C263.061 97.7418 263.061 97.7418 263.061 97.7418C263.061 97.7418 263.061 97.742 263.061 97.742C263.061 97.7421 263.061 97.7423 261.305 98.7C259.549 99.6577 259.549 99.6579 259.55 99.6582C259.55 99.6583 259.55 99.6586 259.55 99.6588C259.55 99.6592 259.55 99.6598 259.551 99.6605C259.552 99.6618 259.552 99.6635 259.554 99.6657C259.556 99.6699 259.559 99.6757 259.563 99.6831C259.571 99.6978 259.583 99.7186 259.597 99.7451C259.627 99.7981 259.669 99.874 259.723 99.9695C259.832 100.16 259.987 100.43 260.179 100.754C260.562 101.397 261.098 102.264 261.705 103.139C262.303 104.002 263.012 104.935 263.743 105.675C264.108 106.044 264.527 106.415 264.987 106.706C265.422 106.982 266.072 107.3 266.855 107.3V103.3ZM261.305 98.7C260.889 96.7437 260.889 96.7437 260.889 96.7437C260.889 96.7437 260.889 96.7437 260.889 96.7437C260.889 96.7438 260.889 96.7438 260.888 96.744C260.887 96.7442 260.885 96.7446 260.882 96.7452C260.877 96.7462 260.869 96.7479 260.858 96.7502C260.837 96.7547 260.805 96.7616 260.762 96.7705C260.676 96.7883 260.55 96.8145 260.387 96.8476C260.063 96.9138 259.597 97.0073 259.035 97.1159C257.907 97.3336 256.4 97.61 254.866 97.8488C253.32 98.0895 251.799 98.2836 250.627 98.3484C250.032 98.3812 249.6 98.3763 249.327 98.3475C249.189 98.333 249.156 98.3187 249.192 98.3303C249.194 98.3307 249.482 98.4145 249.76 98.733L246.75 101.367C247.16 101.835 247.665 102.04 247.957 102.135C248.284 102.241 248.617 102.295 248.908 102.326C249.492 102.387 250.169 102.38 250.847 102.342C252.22 102.266 253.896 102.048 255.482 101.801C257.079 101.552 258.637 101.266 259.793 101.043C260.371 100.932 260.851 100.835 261.187 100.767C261.355 100.733 261.488 100.705 261.578 100.686C261.624 100.677 261.659 100.669 261.683 100.664C261.695 100.662 261.704 100.66 261.71 100.659C261.714 100.658 261.716 100.657 261.718 100.657C261.719 100.657 261.719 100.657 261.72 100.657C261.72 100.656 261.72 100.656 261.72 100.656C261.721 100.656 261.721 100.656 261.305 98.7ZM249.646 98.6128C249.719 98.6836 249.586 98.5741 249.385 97.9597C249.206 97.4088 249.033 96.6425 248.876 95.6542C248.564 93.6827 248.35 91.041 248.221 87.9206C247.964 81.6923 248.051 73.7704 248.285 65.9473C248.519 58.133 248.898 50.4547 249.218 44.7274C249.379 41.8644 249.524 39.4907 249.63 37.8333C249.682 37.0046 249.725 36.3551 249.755 35.9132C249.769 35.6922 249.781 35.5232 249.789 35.4095C249.792 35.3527 249.795 35.3098 249.797 35.2812C249.798 35.2668 249.799 35.2561 249.8 35.249C249.8 35.2454 249.8 35.2428 249.8 35.2411C249.8 35.2402 249.8 35.2396 249.8 35.2392C249.8 35.2388 249.8 35.2386 247.805 35.1C245.81 34.9614 245.81 34.9617 245.81 34.9622C245.81 34.9627 245.81 34.9635 245.81 34.9645C245.81 34.9664 245.809 34.9693 245.809 34.973C245.809 34.9806 245.808 34.9917 245.807 35.0065C245.805 35.036 245.802 35.0798 245.798 35.1376C245.79 35.253 245.778 35.4239 245.763 35.6468C245.734 36.0925 245.691 36.7462 245.638 37.5792C245.532 39.2452 245.385 41.6293 245.225 44.5039C244.903 50.2515 244.522 57.967 244.287 65.8277C244.052 73.6796 243.962 81.7139 244.225 88.0856C244.356 91.2652 244.577 94.0844 244.925 96.2802C245.099 97.3754 245.312 98.3693 245.582 99.1983C245.831 99.9638 246.21 100.854 246.864 101.487L249.646 98.6128ZM247.805 35.1C246.776 33.385 246.776 33.3849 246.777 33.3848C246.777 33.3847 246.777 33.3846 246.777 33.3845C246.777 33.3844 246.777 33.3843 246.777 33.3842C246.778 33.384 246.778 33.3839 246.778 33.3838C246.778 33.3838 246.778 33.384 246.777 33.3845C246.775 33.3856 246.771 33.3879 246.765 33.3913C246.754 33.3981 246.735 33.4094 246.708 33.4244C246.656 33.4547 246.576 33.4999 246.475 33.5551C246.271 33.6665 245.988 33.8138 245.673 33.9591C245.354 34.1063 245.029 34.2391 244.735 34.3319C244.418 34.4319 244.248 34.45 244.205 34.45V38.45C245.364 38.45 246.623 37.9263 247.349 37.5909C247.766 37.3987 248.13 37.2085 248.39 37.0667C248.521 36.9954 248.627 36.9352 248.703 36.8916C248.741 36.8697 248.771 36.852 248.794 36.839C248.805 36.8325 248.814 36.8272 248.82 36.8232C248.824 36.8212 248.827 36.8195 248.829 36.8181C248.83 36.8174 248.831 36.8168 248.832 36.8163C248.832 36.816 248.833 36.8158 248.833 36.8156C248.833 36.8155 248.834 36.8153 248.834 36.8153C248.834 36.8151 248.834 36.815 247.805 35.1ZM244.205 34.45C244.681 34.45 245.008 34.6313 245.13 34.7085C245.266 34.7943 245.338 34.8702 245.343 34.8758C245.354 34.887 245.298 34.8268 245.175 34.635C244.941 34.2668 244.626 33.6758 244.248 32.8774C243.5 31.2989 242.608 29.1286 241.746 26.839C240.885 24.5543 240.07 22.1906 239.473 20.2356C239.175 19.2566 238.936 18.3992 238.775 17.7156C238.694 17.3738 238.636 17.0911 238.6 16.8683C238.581 16.7576 238.57 16.6698 238.563 16.6027C238.559 16.5697 238.557 16.5443 238.556 16.526C238.555 16.5074 238.555 16.4992 238.555 16.5H234.555C234.555 17.1125 234.707 17.8934 234.882 18.6353C235.07 19.4324 235.335 20.3786 235.648 21.4035C236.274 23.4562 237.119 25.9019 238.002 28.2485C238.884 30.5902 239.82 32.873 240.633 34.5898C241.035 35.4391 241.434 36.2062 241.802 36.7844C241.981 37.0656 242.199 37.3756 242.45 37.6387C242.576 37.7703 242.759 37.9426 242.999 38.0932C243.224 38.2353 243.645 38.45 244.205 38.45V34.45ZM238.555 16.5C238.555 16.8179 238.442 16.9676 238.488 16.8888C238.521 16.8322 238.615 16.6975 238.816 16.4866C239.216 16.0662 239.878 15.5121 240.828 14.8637C242.715 13.5757 245.527 12.0587 249.085 10.6082C256.195 7.70958 266.101 5.14999 277.205 5.14999V1.14999C265.509 1.14999 255.09 3.84041 247.575 6.90424C243.82 8.43502 240.745 10.0774 238.573 11.5597C237.493 12.2965 236.583 13.0303 235.918 13.7296C235.586 14.0786 235.273 14.4617 235.034 14.872C234.807 15.2601 234.555 15.8258 234.555 16.5H238.555ZM272.791 27.8358C272.434 28.1929 272.248 28.6114 272.157 28.8376C272.047 29.1111 271.959 29.4081 271.887 29.6977C271.742 30.2801 271.615 31.0059 271.502 31.8207C271.274 33.4601 271.075 35.6433 270.904 38.1563C270.561 43.1927 270.321 49.6873 270.199 56.0994C270.077 62.5118 270.072 68.8728 270.202 73.6435C270.267 76.0217 270.366 78.0421 270.506 79.4863C270.575 80.1954 270.66 80.8386 270.775 81.3357C270.828 81.5675 270.914 81.8879 271.065 82.1927C271.138 82.342 271.281 82.5988 271.531 82.843C271.793 83.0995 272.292 83.45 273.005 83.45V79.45C273.666 79.45 274.116 79.776 274.328 79.9843C274.529 80.1803 274.623 80.3653 274.65 80.4197C274.707 80.5349 274.704 80.5737 274.673 80.438C274.618 80.2001 274.552 79.765 274.487 79.1C274.361 77.7962 274.265 75.8861 274.2 73.5346C274.073 68.8459 274.077 62.5507 274.198 56.1756C274.32 49.8002 274.558 43.376 274.895 38.428C275.064 35.9489 275.255 33.8735 275.464 32.3711C275.569 31.615 275.672 31.0491 275.768 30.6669C275.816 30.4742 275.852 30.3707 275.867 30.3314C275.902 30.2449 275.845 30.4383 275.619 30.6642L272.791 27.8358ZM273.005 83.45C275.88 83.45 278.173 81.527 279.892 79.148C281.649 76.7174 283.12 73.4003 284.304 69.6822C286.681 62.225 288.055 52.68 288.055 44.1H284.055C284.055 52.32 282.729 61.45 280.493 68.4678C279.372 71.9872 278.058 74.8575 276.65 76.8051C275.206 78.8043 273.955 79.45 273.005 79.45V83.45ZM288.055 44.1C288.055 33.7955 285.587 28.4563 281.79 26.4661C279.902 25.4764 277.958 25.4851 276.395 25.8751C274.884 26.2522 273.535 27.0328 272.74 27.8891L275.671 30.6109C275.851 30.4172 276.47 29.979 277.363 29.7561C278.205 29.5462 279.102 29.5736 279.933 30.0089C281.573 30.8687 284.055 34.0045 284.055 44.1H288.055ZM360.164 10.05L358.171 9.88391L358.169 9.91343L358.167 9.94301L360.164 10.05ZM359.264 26.85L357.267 26.743L361.103 27.6378L359.264 26.85ZM398.714 30.3L396.716 30.3826L400.534 31.1306L398.714 30.3ZM412.364 101.25L413.83 99.8891L413.805 99.862L413.779 99.8358L412.364 101.25ZM399.314 62.55L397.323 62.3669L397.314 62.4671L397.315 62.5677L399.314 62.55ZM398.114 99.9L399.529 101.314L399.629 101.214L399.714 101.1L398.114 99.9ZM357.314 90.15L355.315 90.1167L355.314 90.1333V90.15H357.314ZM357.914 99.15L359.288 100.604L360.062 99.8723L359.887 98.8212L357.914 99.15ZM327.464 100.5L329.001 99.2196L328.943 99.1499L328.879 99.0858L327.464 100.5ZM327.014 38.85L329.011 38.9641L329.014 38.9071V38.85H327.014ZM323.414 37.2L321.928 38.5379L321.963 38.577L322 38.6142L323.414 37.2ZM330.014 12.9L328.666 11.423L328.632 11.4537L328.6 11.4858L330.014 12.9ZM358.167 9.94301L357.267 26.743L361.262 26.957L362.162 10.157L358.167 9.94301ZM361.103 27.6378C363.978 20.9297 367.331 15.1993 370.776 11.1834C374.292 7.08476 377.57 5.14999 380.264 5.14999V1.14999C375.759 1.14999 371.462 4.24023 367.74 8.57911C363.947 13.0007 360.401 19.1203 357.426 26.0622L361.103 27.6378ZM380.264 5.14999C385.588 5.14999 389.361 7.11961 391.992 11.0345C394.724 15.0984 396.347 21.4439 396.716 30.3826L400.713 30.2174C400.332 21.0061 398.655 13.7766 395.312 8.80299C391.868 3.68038 386.791 1.14999 380.264 1.14999V5.14999ZM400.534 31.1306C403.621 24.3692 407.296 18.6488 411.095 14.6532C414.945 10.6043 418.653 8.59999 421.814 8.59999V4.59999C417.026 4.59999 412.334 7.54569 408.196 11.8968C404.008 16.3012 400.108 22.4308 396.895 29.4694L400.534 31.1306ZM421.814 8.59999C425.965 8.59999 430.582 10.1699 434.176 14.0997C437.767 18.0267 440.514 24.5093 440.514 34.65H444.514C444.514 23.7907 441.562 16.2483 437.128 11.4003C432.697 6.55513 426.964 4.59999 421.814 4.59999V8.59999ZM440.514 34.65V97.8H444.514V34.65H440.514ZM440.514 97.8C440.514 98.7005 439.892 99.702 437.434 100.538C435.068 101.342 431.739 101.688 428.171 101.688C424.639 101.688 421.039 101.35 418.221 100.889C416.81 100.658 415.633 100.401 414.777 100.153C414.347 100.028 414.035 99.9163 413.832 99.8265C413.568 99.71 413.661 99.7069 413.83 99.8891L410.899 102.611C411.312 103.056 411.853 103.326 412.217 103.486C412.641 103.673 413.135 103.842 413.663 103.995C414.723 104.302 416.068 104.589 417.575 104.836C420.593 105.331 424.409 105.688 428.171 105.688C431.896 105.688 435.739 105.339 438.722 104.325C441.612 103.342 444.514 101.4 444.514 97.8H440.514ZM413.779 99.8358C413.947 100.004 413.976 100.125 413.936 100.026C413.905 99.9512 413.857 99.8021 413.801 99.5525C413.69 99.0531 413.591 98.3326 413.51 97.3812C413.349 95.4877 413.28 92.9101 413.265 89.8401C413.235 83.6691 413.417 75.875 413.446 67.9947C413.474 60.1956 413.349 52.394 412.685 46.5192C412.356 43.6022 411.879 41.0152 411.156 39.1081C410.796 38.1582 410.326 37.2394 409.672 36.529C408.985 35.7825 408.024 35.2 406.814 35.2V39.2C406.636 39.2 406.595 39.0921 406.728 39.2371C406.895 39.4182 407.144 39.8078 407.416 40.5255C407.957 41.9536 408.391 44.1384 408.711 46.9683C409.345 52.5873 409.474 60.1794 409.446 67.9803C409.418 75.7 409.235 83.7122 409.265 89.8599C409.281 92.9493 409.349 95.6592 409.524 97.7196C409.611 98.7451 409.729 99.6682 409.897 100.421C409.98 100.798 410.086 101.177 410.228 101.526C410.359 101.851 410.576 102.29 410.95 102.664L413.779 99.8358ZM406.814 35.2C404.695 35.2 403.297 36.8475 402.439 38.3175C401.511 39.9066 400.753 42.0564 400.118 44.4726C398.838 49.3376 397.926 55.8032 397.323 62.3669L401.306 62.7331C401.902 56.2468 402.79 50.0374 403.986 45.4899C404.588 43.1999 405.237 41.459 405.893 40.3341C406.62 39.09 406.984 39.2 406.814 39.2V35.2ZM397.315 62.5677C397.39 71.0428 397.427 79.9031 397.277 86.8634C397.203 90.3477 397.082 93.3229 396.899 95.523C396.808 96.6272 396.704 97.4954 396.592 98.1182C396.535 98.4306 396.483 98.6447 396.442 98.7783C396.388 98.9509 396.39 98.8656 396.514 98.7L399.714 101.1C400.007 100.709 400.168 100.268 400.262 99.962C400.369 99.6171 400.455 99.2304 400.528 98.8289C400.673 98.0238 400.79 97.0111 400.886 95.8535C401.078 93.5303 401.201 90.4585 401.276 86.9491C401.427 79.9219 401.389 71.0072 401.314 62.5323L397.315 62.5677ZM396.7 98.4858C395.807 99.3788 393.982 100.083 391.273 100.403C388.656 100.712 385.581 100.621 382.614 100.276C379.649 99.9313 376.887 99.3448 374.909 98.7122C373.907 98.3918 373.191 98.0863 372.765 97.8389C372.547 97.7122 372.492 97.6501 372.516 97.6751C372.52 97.6794 372.814 97.9823 372.814 98.55H368.814C368.814 99.4364 369.279 100.072 369.604 100.418C369.949 100.784 370.367 101.071 370.754 101.297C371.54 101.754 372.567 102.163 373.691 102.522C375.964 103.249 378.986 103.881 382.152 104.249C385.316 104.617 388.72 104.732 391.742 104.375C394.672 104.029 397.647 103.196 399.529 101.314L396.7 98.4858ZM372.814 98.55C372.814 97.5708 373.563 81.7964 373.339 66.8888C373.226 59.3598 372.869 51.8233 372.034 46.1367C371.619 43.3129 371.068 40.8123 370.309 38.9697C369.931 38.0523 369.451 37.1702 368.809 36.4892C368.142 35.7816 367.203 35.2 366.014 35.2V39.2C365.8 39.2 365.752 39.0778 365.898 39.2327C366.069 39.4143 366.324 39.798 366.611 40.4934C367.181 41.8764 367.676 43.9894 368.076 46.718C368.872 52.1361 369.227 59.4589 369.34 66.9487C369.566 82.0786 368.814 96.9792 368.814 98.55H372.814ZM366.014 35.2C363.996 35.2 362.684 36.7542 361.898 38.0933C361.046 39.545 360.353 41.5018 359.769 43.6933C358.594 48.1082 357.728 54.0078 357.088 60.0906C355.804 72.2858 355.39 85.5887 355.315 90.1167L359.314 90.1833C359.389 85.7113 359.8 72.5392 361.066 60.5094C361.701 54.4797 362.541 48.8293 363.635 44.7223C364.186 42.6529 364.768 41.1058 365.347 40.1188C365.993 39.0193 366.27 39.2 366.014 39.2V35.2ZM355.314 90.15C355.314 94.1332 355.62 97.5464 355.942 99.4788L359.887 98.8212C359.609 97.1536 359.314 93.9668 359.314 90.15H355.314ZM356.541 97.696C355.629 98.5571 353.682 99.3649 350.809 99.9298C348.036 100.475 344.742 100.732 341.497 100.75C338.254 100.768 335.135 100.548 332.722 100.17C331.511 99.9794 330.529 99.7571 329.818 99.525C329.462 99.409 329.214 99.3031 329.055 99.2188C328.875 99.1237 328.907 99.1074 329.001 99.2196L325.928 101.78C326.303 102.23 326.777 102.538 327.181 102.753C327.606 102.978 328.083 103.167 328.577 103.328C329.564 103.65 330.774 103.913 332.102 104.121C334.766 104.539 338.106 104.769 341.519 104.75C344.931 104.731 348.49 104.462 351.581 103.855C354.572 103.266 357.499 102.293 359.288 100.604L356.541 97.696ZM328.879 99.0858C328.996 99.2034 329.065 99.3078 329.097 99.36C329.131 99.4159 329.147 99.4528 329.149 99.4583C329.152 99.4656 329.134 99.4229 329.103 99.3053C329.04 99.0712 328.966 98.6997 328.889 98.1686C328.738 97.1154 328.6 95.6214 328.483 93.7384C328.25 89.9835 328.105 84.83 328.058 78.8843C327.965 66.9977 328.264 52.0412 329.011 38.9641L325.018 38.7359C324.265 51.9088 323.964 66.9523 324.058 78.9157C324.105 84.895 324.251 90.1291 324.491 93.9866C324.611 95.9099 324.756 97.5283 324.93 98.7393C325.017 99.3401 325.117 99.8885 325.239 100.343C325.3 100.57 325.377 100.813 325.478 101.047C325.566 101.249 325.736 101.6 326.05 101.914L328.879 99.0858ZM329.014 38.85C329.014 37.4656 328.003 36.7528 327.482 36.481C326.951 36.2047 326.341 36.0558 325.949 35.9645C325.45 35.8484 325.155 35.7938 324.849 35.7053C324.494 35.6026 324.624 35.5808 324.829 35.7858L322 38.6142C322.58 39.1942 323.347 39.4349 323.738 39.5478C324.177 39.6749 324.736 39.7891 325.043 39.8605C325.227 39.9033 325.369 39.9401 325.483 39.9751C325.601 40.0117 325.641 40.0323 325.633 40.0284C325.626 40.0247 325.592 40.0067 325.543 39.9697C325.494 39.9325 325.418 39.8678 325.337 39.7685C325.154 39.5423 325.014 39.2176 325.014 38.85H329.014ZM324.901 35.8621C325.278 36.2812 325.263 36.6839 325.245 36.4992C325.238 36.4266 325.234 36.249 325.26 35.9339C325.312 35.3147 325.456 34.4311 325.686 33.3269C326.144 31.135 326.896 28.3 327.734 25.4439C328.569 22.5941 329.478 19.763 330.238 17.5895C330.619 16.5 330.957 15.5954 331.224 14.9434C331.359 14.6149 331.466 14.3756 331.544 14.2187C331.668 13.9677 331.628 14.1146 331.429 14.3142L328.6 11.4858C328.269 11.8166 328.052 12.2565 327.961 12.4402C327.823 12.718 327.676 13.0551 327.524 13.4247C327.218 14.1691 326.855 15.1476 326.463 16.2683C325.676 18.5151 324.747 21.4122 323.895 24.3186C323.045 27.2188 322.26 30.1682 321.771 32.509C321.528 33.6712 321.346 34.7411 321.274 35.6026C321.239 36.0278 321.224 36.4724 321.264 36.8837C321.293 37.1829 321.382 37.9313 321.928 38.5379L324.901 35.8621ZM331.363 14.377C331.362 14.3778 331.391 14.3519 331.466 14.3047C331.54 14.2584 331.643 14.2012 331.782 14.1354C332.062 14.0022 332.437 13.8567 332.914 13.705C333.868 13.4011 335.109 13.109 336.566 12.8392C339.473 12.3009 343.073 11.8815 346.592 11.6129C350.111 11.3444 353.49 11.2312 355.952 11.2924C357.198 11.3233 358.133 11.3974 358.714 11.4975C359.026 11.5512 359.103 11.591 359.052 11.5675C359.031 11.5575 358.841 11.4726 358.639 11.2551C358.401 11.0005 358.118 10.5217 358.171 9.88391L362.158 10.2161C362.22 9.46575 361.894 8.88098 361.563 8.52658C361.268 8.20946 360.936 8.03111 360.725 7.93401C360.295 7.73629 359.807 7.6268 359.393 7.55546C358.521 7.40535 357.355 7.32594 356.052 7.29358C353.414 7.22812 349.893 7.34938 346.287 7.62455C342.681 7.89976 338.93 8.33345 335.838 8.90608C334.295 9.19181 332.874 9.51963 331.7 9.89367C330.607 10.2416 329.443 10.7138 328.666 11.423L331.363 14.377ZM474.441 2.54999L474.608 0.556969L474.607 0.556901L474.441 2.54999ZM504.891 5.1L505.072 3.10821L505.065 3.10757L505.058 3.10697L504.891 5.1ZM508.041 8.09999L510.013 7.7648L510.011 7.7535L510.009 7.74222L508.041 8.09999ZM500.241 104.4L500.07 102.407L500.045 102.409L500.02 102.412L500.241 104.4ZM497.091 102.3L495.187 102.911L495.19 102.922L495.194 102.932L497.091 102.3ZM491.691 72.75L493.674 72.4884L493.444 70.75H491.691V72.75ZM481.491 75L483.454 75.3855L483.467 75.3172L483.476 75.2481L481.491 75ZM479.541 86.25L481.521 86.5328L481.526 86.4962L481.53 86.4594L479.541 86.25ZM478.491 98.85V100.85H480.368L480.487 98.9767L478.491 98.85ZM451.041 97.05L449.054 97.2736L449.154 98.166L449.888 98.6839L451.041 97.05ZM470.541 5.1L472.397 5.84591L472.409 5.8149L472.421 5.78348L470.541 5.1ZM489.891 56.25L487.916 56.5665L487.918 56.5788L489.891 56.25ZM486.141 32.85L488.116 32.5335L484.168 32.5252L486.141 32.85ZM482.241 56.55L484.202 56.9422L484.209 56.9086L484.214 56.8747L482.241 56.55ZM474.274 4.54302L504.724 7.09302L505.058 3.10697L474.608 0.556969L474.274 4.54302ZM504.71 7.09178C505.376 7.15236 505.918 7.60126 506.073 8.45777L510.009 7.74222C509.564 5.29873 507.706 3.34763 505.072 3.10821L504.71 7.09178ZM506.069 8.43518C507.342 15.9231 510.828 37.401 513.997 57.4436C515.581 67.4636 517.085 77.1188 518.192 84.4826C518.746 88.1654 519.2 91.2689 519.515 93.5562C519.673 94.7008 519.794 95.6325 519.876 96.3266C519.917 96.6742 519.947 96.9534 519.967 97.1654C519.976 97.2712 519.983 97.354 519.987 97.4161C519.991 97.4829 519.991 97.5062 519.991 97.5H523.991C523.991 97.1429 523.929 96.5373 523.849 95.8579C523.762 95.1263 523.637 94.1654 523.477 93.0104C523.159 90.6986 522.702 87.576 522.148 83.8877C521.038 76.5093 519.532 66.8426 517.948 56.8189C514.779 36.7739 511.29 15.2769 510.013 7.7648L506.069 8.43518ZM519.991 97.5C519.991 96.9721 520.242 96.6699 520.265 96.6422C520.303 96.5958 520.284 96.6317 520.13 96.7388C519.828 96.949 519.302 97.2316 518.532 97.5674C517.014 98.229 514.879 98.9564 512.52 99.65C507.775 101.046 502.491 102.2 500.07 102.407L500.412 106.393C503.241 106.15 508.832 104.904 513.649 103.487C516.072 102.775 518.39 101.993 520.13 101.234C520.989 100.86 521.793 100.455 522.413 100.023C522.721 99.8094 523.061 99.536 523.344 99.195C523.611 98.8727 523.991 98.2904 523.991 97.5H519.991ZM500.02 102.412C499.671 102.451 499.161 102.185 498.988 101.668L495.194 102.932C495.921 105.115 498.111 106.649 500.462 106.388L500.02 102.412ZM498.995 101.689C497.775 97.8828 496.445 90.648 495.409 84.2253C494.896 81.0435 494.462 78.1074 494.156 75.9664C494.003 74.8962 493.882 74.0253 493.8 73.4226C493.759 73.1213 493.727 72.887 493.706 72.7284C493.695 72.6491 493.687 72.5888 493.682 72.5484C493.679 72.5282 493.677 72.513 493.676 72.503C493.675 72.498 493.675 72.4942 493.674 72.4918C493.674 72.4906 493.674 72.4897 493.674 72.4891C493.674 72.4888 493.674 72.4886 493.674 72.4885C493.674 72.4884 493.674 72.4884 491.691 72.75C489.708 73.0116 489.708 73.0118 489.708 73.012C489.708 73.0122 489.708 73.0125 489.708 73.0129C489.708 73.0136 489.709 73.0147 489.709 73.0161C489.709 73.0189 489.71 73.023 489.71 73.0284C489.712 73.0392 489.714 73.0551 489.717 73.076C489.722 73.1179 489.731 73.1797 489.741 73.2606C489.763 73.4223 489.795 73.6599 489.837 73.9647C489.92 74.5743 490.042 75.4531 490.196 76.5321C490.504 78.6895 490.942 81.6503 491.46 84.8622C492.487 91.227 493.857 98.7672 495.187 102.911L498.995 101.689ZM491.691 70.75H483.891V74.75H491.691V70.75ZM483.891 70.75C481.319 70.75 479.753 72.7781 479.506 74.7519L483.476 75.2481C483.5 75.0538 483.582 74.9128 483.655 74.8392C483.689 74.8054 483.72 74.7861 483.748 74.7743C483.774 74.7634 483.817 74.75 483.891 74.75V70.75ZM481.491 75C479.529 74.6145 479.529 74.6146 479.529 74.6147C479.528 74.6147 479.528 74.6149 479.528 74.615C479.528 74.6153 479.528 74.6157 479.528 74.6163C479.528 74.6174 479.528 74.619 479.527 74.6211C479.526 74.6253 479.525 74.6315 479.524 74.6396C479.52 74.6559 479.516 74.68 479.51 74.7115C479.497 74.7744 479.479 74.8667 479.456 74.9851C479.41 75.2218 479.344 75.5628 479.264 75.9808C479.104 76.8164 478.888 77.9609 478.661 79.1958C478.215 81.6312 477.712 84.5244 477.552 86.0406L481.53 86.4594C481.67 85.1256 482.142 82.3938 482.596 79.9167C482.82 78.6953 483.034 77.5618 483.193 76.7333C483.272 76.3192 483.337 75.9817 483.383 75.7479C483.406 75.631 483.423 75.5401 483.435 75.4786C483.441 75.4478 483.446 75.4244 483.449 75.4087C483.451 75.4009 483.452 75.395 483.452 75.3911C483.453 75.3892 483.453 75.3877 483.453 75.3868C483.453 75.3863 483.453 75.386 483.453 75.3858C483.453 75.3857 483.453 75.3856 483.454 75.3855C483.454 75.3855 483.454 75.3855 481.491 75ZM477.561 85.9672C477.325 87.622 477.058 90.8442 476.853 93.582C476.749 94.9662 476.66 96.2508 476.596 97.1892C476.565 97.6585 476.539 98.0415 476.522 98.3074C476.513 98.4404 476.507 98.5441 476.502 98.6146C476.5 98.6499 476.498 98.677 476.497 98.6952C476.496 98.7044 476.496 98.7113 476.495 98.716C476.495 98.7183 476.495 98.7201 476.495 98.7213C476.495 98.7219 476.495 98.7224 476.495 98.7227C476.495 98.7229 476.495 98.723 476.495 98.7231C476.495 98.7232 476.495 98.7233 478.491 98.85C480.487 98.9767 480.487 98.9767 480.487 98.9767C480.487 98.9766 480.487 98.9765 480.487 98.9764C480.487 98.9762 480.487 98.9758 480.487 98.9752C480.487 98.9741 480.487 98.9725 480.487 98.9703C480.488 98.9659 480.488 98.9592 480.489 98.9504C480.49 98.9327 480.492 98.9062 480.494 98.8716C480.498 98.8022 480.505 98.6998 480.513 98.5682C480.531 98.305 480.556 97.9251 480.587 97.4593C480.65 96.5273 480.739 95.2526 480.842 93.8805C481.049 91.1058 481.307 88.028 481.521 86.5328L477.561 85.9672ZM478.491 98.85C478.491 96.85 478.491 96.85 478.491 96.85C478.491 96.85 478.49 96.85 478.49 96.85C478.49 96.85 478.488 96.85 478.487 96.85C478.484 96.85 478.48 96.85 478.474 96.85C478.463 96.85 478.445 96.85 478.422 96.8499C478.375 96.8499 478.306 96.8498 478.216 96.8496C478.034 96.8491 477.767 96.8483 477.426 96.8465C476.744 96.843 475.766 96.836 474.584 96.822C472.219 96.794 469.043 96.738 465.791 96.6262C462.532 96.5141 459.227 96.347 456.593 96.0994C455.272 95.9753 454.158 95.8343 453.319 95.678C452.898 95.5996 452.58 95.5235 452.356 95.4547C452.095 95.3749 452.092 95.3435 452.194 95.4161L449.888 98.6839C450.309 98.9815 450.799 99.1611 451.183 99.279C451.604 99.408 452.082 99.5164 452.586 99.6103C453.597 99.7985 454.846 99.9529 456.219 100.082C458.971 100.341 462.368 100.511 465.654 100.624C468.945 100.737 472.154 100.794 474.537 100.822C475.729 100.836 476.716 100.843 477.406 100.846C477.751 100.848 478.021 100.849 478.206 100.85C478.298 100.85 478.369 100.85 478.417 100.85C478.441 100.85 478.459 100.85 478.472 100.85C478.478 100.85 478.483 100.85 478.486 100.85C478.488 100.85 478.489 100.85 478.49 100.85C478.49 100.85 478.49 100.85 478.491 100.85C478.491 100.85 478.491 100.85 478.491 98.85ZM453.028 96.8264C452.885 95.5485 452.947 93.4035 453.23 90.4737C453.509 87.5847 453.99 84.0601 454.628 80.0894C455.905 72.1504 457.8 62.5046 459.932 52.7392C464.212 33.1436 469.394 13.3168 472.397 5.84591L468.685 4.35408C465.538 12.1832 460.295 32.3314 456.025 51.8858C453.882 61.6954 451.971 71.4183 450.679 79.4544C450.033 83.4711 449.539 87.0856 449.248 90.0888C448.962 93.0512 448.86 95.5515 449.054 97.2736L453.028 96.8264ZM472.421 5.78348C472.734 4.92227 473.435 4.47313 474.275 4.54308L474.607 0.556901C471.847 0.326857 469.548 1.97773 468.661 4.41651L472.421 5.78348ZM483.441 59.9H488.541V55.9H483.441V59.9ZM488.541 59.9C490.761 59.9 492.203 57.9561 491.864 55.9212L487.918 56.5788C487.906 56.5029 487.915 56.3269 488.058 56.1513C488.206 55.9682 488.409 55.9 488.541 55.9V59.9ZM491.866 55.9335L488.116 32.5335L484.166 33.1665L487.916 56.5665L491.866 55.9335ZM484.168 32.5252L480.268 56.2253L484.214 56.8747L488.114 33.1747L484.168 32.5252ZM480.28 56.1578C479.835 58.3816 481.682 59.9 483.441 59.9V55.9C483.596 55.9 483.801 55.963 483.973 56.1497C484.166 56.3586 484.258 56.6656 484.202 56.9422L480.28 56.1578ZM562.191 74.85L562.072 72.8535L560.191 72.9657V74.85H562.191ZM563.391 99.75L564.825 101.144L565.585 100.363L565.34 99.3003L563.391 99.75ZM534.891 102.3L533.477 103.714L534.891 102.3ZM533.841 35.55L535.84 35.6159L535.908 33.55H533.841V35.55ZM530.691 8.69999L529.277 7.28578V7.28578L530.691 8.69999ZM562.791 27.75L562.508 25.7701L560.823 26.0108L560.791 27.713L562.791 27.75ZM562.341 52.05L560.341 52.013L560.301 54.2046L562.487 54.0447L562.341 52.05ZM565.641 27.6L565.7 25.6009L565.67 25.6H565.641V27.6ZM563.991 5.29999C585.793 5.29999 601.141 19.7951 601.141 36.9H605.141C605.141 17.1049 587.489 1.29999 563.991 1.29999V5.29999ZM601.141 36.9C601.141 48.5708 596.8 57.1494 589.868 63.0103C582.882 68.918 573.1 72.1962 562.072 72.8535L562.31 76.8465C573.932 76.1538 584.625 72.682 592.451 66.0647C600.332 59.4006 605.141 49.6792 605.141 36.9H601.141ZM560.191 74.85C560.191 80.5632 560.266 85.8456 560.455 90.1994C560.643 94.5026 560.946 98.0484 561.442 100.2L565.34 99.3003C564.936 97.5516 564.64 94.3474 564.452 90.0256C564.266 85.7544 564.191 80.5368 564.191 74.85H560.191ZM561.957 98.3558C561.042 99.297 559.214 100.179 556.589 100.847C554.038 101.496 551.02 101.872 548.037 102.008C545.056 102.145 542.182 102.038 539.934 101.753C538.806 101.609 537.881 101.427 537.198 101.226C536.428 100.999 536.247 100.827 536.305 100.886L533.477 103.714C534.173 104.41 535.197 104.806 536.067 105.062C537.025 105.345 538.176 105.562 539.43 105.721C541.943 106.04 545.051 106.149 548.22 106.004C551.387 105.859 554.688 105.458 557.575 104.723C560.387 104.008 563.115 102.903 564.825 101.144L561.957 98.3558ZM536.305 100.886C536.439 101.019 536.513 101.138 536.544 101.192C536.578 101.251 536.593 101.288 536.594 101.29C536.595 101.293 536.59 101.28 536.579 101.245C536.568 101.21 536.555 101.162 536.539 101.098C536.472 100.828 536.396 100.408 536.318 99.816C536.163 98.6429 536.023 96.9807 535.901 94.8964C535.657 90.7383 535.494 85.0402 535.41 78.5179C535.241 65.4792 535.391 49.2348 535.84 35.6159L531.842 35.4841C531.391 49.1652 531.241 65.4708 531.41 78.5696C531.494 85.1161 531.659 90.8836 531.908 95.1302C532.032 97.2482 532.179 99.0231 532.352 100.34C532.439 100.993 532.538 101.58 532.656 102.059C532.715 102.297 532.789 102.551 532.887 102.792C532.967 102.991 533.139 103.376 533.477 103.714L536.305 100.886ZM533.841 33.55H533.391V37.55H533.841V33.55ZM533.391 33.55C533.979 33.55 534.296 33.8756 534.333 33.9161C534.369 33.9554 534.309 33.9 534.195 33.6406C533.973 33.1354 533.73 32.2958 533.495 31.129C533.033 28.8296 532.684 25.6846 532.461 22.4382C532.24 19.2037 532.148 15.9409 532.185 13.4307C532.203 12.1703 532.253 11.1361 532.329 10.4039C532.367 10.0326 532.407 9.78774 532.439 9.64921C532.456 9.57892 532.46 9.57937 532.442 9.62363C532.439 9.63123 532.353 9.86664 532.105 10.1142L529.277 7.28578C528.954 7.60835 528.797 7.96651 528.727 8.14157C528.643 8.35328 528.584 8.56587 528.542 8.74936C528.457 9.11841 528.396 9.54769 528.35 9.99259C528.257 10.8928 528.204 12.0594 528.185 13.3724C528.147 16.0091 528.242 19.3838 528.471 22.7118C528.698 26.0279 529.062 29.3704 529.574 31.9179C529.827 33.1745 530.137 34.3482 530.534 35.2504C530.729 35.6948 530.995 36.1916 531.373 36.6072C531.752 37.024 532.428 37.55 533.391 37.55V33.55ZM532.105 10.1142C531.957 10.2629 531.868 10.2836 532.031 10.2014C532.15 10.1409 532.342 10.0564 532.621 9.95067C533.176 9.74038 533.96 9.4898 534.953 9.21362C536.933 8.66323 539.631 8.04269 542.758 7.45988C549.019 6.29274 556.878 5.29999 563.991 5.29999V1.29999C556.554 1.29999 548.438 2.33225 542.025 3.5276C538.814 4.12605 535.999 4.77114 533.882 5.3598C532.827 5.65315 531.916 5.94047 531.204 6.21006C530.85 6.34431 530.515 6.48516 530.225 6.63238C529.977 6.75779 529.594 6.96836 529.277 7.28578L532.105 10.1142ZM560.791 27.713L560.341 52.013L564.341 52.087L564.791 27.787L560.791 27.713ZM562.487 54.0447C565.729 53.8075 569.385 53.0344 572.17 50.1108C574.946 47.1978 576.491 42.5395 576.491 35.4H572.491C572.491 42.0605 571.036 45.5022 569.274 47.3517C567.522 49.1906 565.103 49.8425 562.195 50.0553L562.487 54.0447ZM576.491 35.4C576.491 32.3688 575.318 29.8793 573.259 28.1636C571.25 26.4896 568.565 25.6851 565.7 25.6009L565.582 29.5991C567.818 29.6649 569.557 30.2854 570.698 31.2364C571.789 32.1457 572.491 33.4812 572.491 35.4H576.491ZM565.641 25.6C564.747 25.6 563.716 25.5976 562.508 25.7701L563.074 29.7299C563.966 29.6024 564.735 29.6 565.641 29.6V25.6Z" fill="black" mask="url(#path-1-inside-1_36_216)"/>
</g>
<defs>
<filter id="filter0_d_36_216" x="0.700195" y="0" width="608.866" height="113.675" filterUnits="userSpaceOnUse" color-interpolation-filters="sRGB">
<feFlood flood-opacity="0" result="BackgroundImageFix"/>
<feColorMatrix in="SourceAlpha" type="matrix" values="0 0 0 0 0 0 0 0 0 0 0 0 0 0 0 0 0 0 127 0" result="hardAlpha"/>
<feOffset dx="6.42487" dy="6.42487"/>
<feComposite in2="hardAlpha" operator="out"/>
<feColorMatrix type="matrix" values="0 0 0 0 0.309804 0 0 0 0 0.105882 0 0 0 0 0.054902 0 0 0 1 0"/>
<feBlend mode="normal" in2="BackgroundImageFix" result="effect1_dropShadow_36_216"/>
<feBlend mode="normal" in="SourceGraphic" in2="effect1_dropShadow_36_216" result="shape"/>
</filter>
</defs>
</svg>
