<svg width="175" height="181" viewBox="0 0 175 181" fill="none" xmlns="http://www.w3.org/2000/svg">
<path d="M19.5248 177.722L19.5024 177.718L19.4799 177.715C-2.63095 174.188 -20.5821 157.24 -23.9472 137.726L-24.2866 135.758L-26.1881 136.368C-35.4345 139.338 -45.2462 140.108 -54.8431 138.62L-54.8506 138.619C-64.2674 137.2 -73.144 133.325 -80.586 127.384C-96.9929 114.02 -103.14 90.1434 -95.0407 71.9447C-87.7645 55.6035 -68.9091 45.3743 -51.4679 48.1562L-51.4635 48.1569C-49.9242 48.3983 -48.4037 48.7466 -46.9128 49.1994L-45.0082 49.7778L-44.6947 47.8122C-44.5966 47.1975 -44.5202 46.7449 -44.402 46.3858L-44.2978 46.0695L-44.3181 45.7371C-44.4839 43.0271 -44.3302 40.3071 -43.8602 37.6331C-39.5889 13.7828 -11.0779 -1.59966 21.9961 3.67572L23.5531 3.92408C41.9352 7.20337 57.7377 16.4814 67.0489 28.9623L68.412 30.7894L69.8105 28.9892C75.7225 21.3789 86.2954 17.7907 98.5379 19.7407C106.209 21.0516 113.479 24.1015 119.789 28.6567L119.799 28.6638C134.832 39.3531 142.222 55.9917 138.897 69.0292L138.516 70.522L139.953 71.077C144.584 72.8655 148.949 75.2765 152.929 78.2436L153.033 78.321L153.147 78.3821C155.908 79.8606 158.268 81.987 160.026 84.5786L160.104 84.6944L160.2 84.7962C164.971 89.847 168.566 95.8899 170.728 102.492C172.89 109.092 173.566 116.088 172.708 122.979C169.171 149.457 142.87 168.115 113.832 164.244L112.35 164.008L112.34 164.006C102.144 162.437 92.5882 158.052 84.7499 151.345L83.4494 150.232L82.3187 151.517C66.7405 169.221 45.6986 179.153 25.5303 178.462C23.5152 178.34 21.5094 178.093 19.5248 177.722Z" fill="white" stroke="black" stroke-width="3.47098"/>
</svg>
