<svg width="1512" height="284" viewBox="0 0 1512 284" fill="none" xmlns="http://www.w3.org/2000/svg">
<path d="M105.221 108.446C85.4852 79.8372 57.7786 74.3594 46.3923 75.1966L34.5767 253.871H1575.35V79.7253C1483.49 16.2039 1436.26 59.6738 1424.13 89.349C1339.38 43.7933 1276.14 93.3592 1255.12 123.837C1185.9 85.4563 1159.43 139.828 1154.84 171.812C1112.79 147.954 1053.19 177.416 1035.4 193.287C936.577 262.729 622.39 234.6 467.047 167.42C433.648 144.835 396.2 160.938 381.651 171.812C350.276 120.618 303.213 128.314 283.604 138.561C212.25 50.729 134.951 81.8877 105.221 108.446Z" fill="white" stroke="black" stroke-width="2"/>
<path d="M84.8147 129.539L85.7043 131.708L87.9256 130.96C103.132 125.838 127.811 122.707 152.186 130.001C176.429 137.255 200.529 154.86 214.821 191.555L216.091 194.816L218.764 192.557C228.013 184.743 243.664 176.051 260.471 175.192C277.033 174.346 295.066 181.075 309.582 204.759L310.957 207.004L313.128 205.514C329.302 194.414 375.29 177.384 427.951 199.842L429.383 200.453L430.563 199.437C446.842 185.414 476.158 168.518 510.965 163.597C545.665 158.69 585.877 165.667 624.287 199.421L626.494 201.361L628.055 198.871C641.656 177.174 667.684 149.247 701.424 135.89C734.952 122.616 776.356 123.609 821.368 160.084L822.419 160.936L823.707 160.522C846.487 153.2 881.355 146.699 911.949 150.843C927.226 152.912 941.269 157.612 952.218 166.025C963.112 174.395 971.097 186.553 974.144 203.886L975.608 212.209L978.908 204.429C983.301 194.074 993.11 182.477 1008.16 180.468C1023.2 178.461 1044.53 185.877 1072.29 215.983L1073.92 217.754L1075.75 216.188C1089.02 204.838 1113.55 191.632 1143.74 189.224C1173.84 186.824 1209.7 195.136 1245.84 226.999L1247.37 228.352L1249 227.115C1253.55 223.661 1261.66 218.935 1270.99 216.141C1280.32 213.344 1290.57 212.573 1299.67 216.577L1302.48 217.813L1303.13 214.811C1307.15 195.991 1318.8 169.186 1340.57 150.046C1362.21 131.022 1394.03 119.396 1438.94 131.011L1441.32 131.626L1441.98 129.259C1448.11 107.154 1464.19 74.5396 1492.42 48.8553C1520.2 23.5891 1559.76 4.99843 1613.39 9.70948V289.617L-109.349 297.474V5.54217C-63.96 -3.03721 35.6678 9.7423 84.8147 129.539Z" fill="#F4EBCE" stroke="black" stroke-width="5"/>
</svg>
