<svg width="1512" height="284" viewBox="0 0 1512 284" fill="none" xmlns="http://www.w3.org/2000/svg">
<path d="M88.7949 129.534L89.6845 131.702L91.9059 130.954C107.112 125.832 131.792 122.701 156.166 129.995C180.409 137.25 204.51 154.854 218.801 191.549L220.071 194.81L222.744 192.551C231.993 184.738 247.644 176.045 264.452 175.186C281.014 174.34 299.046 181.07 313.562 204.754L314.937 206.998L317.108 205.508C333.282 194.408 379.271 177.379 431.931 199.837L433.363 200.447L434.543 199.431C450.823 185.408 480.139 168.512 514.945 163.591C549.646 158.684 589.857 165.661 628.267 199.415L630.474 201.355L632.035 198.865C645.636 177.168 671.664 149.241 705.404 135.884C738.932 122.61 780.336 123.603 825.349 160.078L826.4 160.93L827.688 160.516C850.468 153.194 885.335 146.694 915.929 150.837C931.206 152.906 945.249 157.606 956.199 166.019C967.092 174.389 975.077 186.547 978.125 203.88L979.588 212.203L982.888 204.423C987.281 194.068 997.091 182.471 1012.14 180.462C1027.18 178.455 1048.51 185.871 1076.27 215.977L1077.9 217.748L1079.73 216.182C1093 204.832 1117.53 191.626 1147.72 189.218C1177.82 186.818 1213.68 195.13 1249.82 226.993L1251.35 228.346L1252.98 227.109C1257.53 223.656 1265.64 218.929 1274.97 216.135C1284.3 213.338 1294.55 212.567 1303.65 216.571L1306.46 217.807L1307.11 214.805C1311.13 195.985 1322.78 169.18 1344.56 150.04C1366.2 131.016 1398.01 119.39 1442.92 131.005L1445.3 131.621L1445.96 129.253C1452.09 107.148 1468.17 74.5337 1496.4 48.8494C1524.18 23.5832 1563.74 4.99257 1617.37 9.70362V289.611L-105.369 297.468V5.53631C-59.9798 -3.04307 39.648 9.73644 88.7949 129.534Z" fill="#FCCB06" stroke="black" stroke-width="5"/>
</svg>
